<svg width="600" height="300" viewBox="0 0 600 300" fill="none" xmlns="http://www.w3.org/2000/svg">
<rect width="600" height="300" fill="#30B396"/>
<path d="M234.054 141.571C232.789 140.539 231.515 139.782 230.25 139.282C228.985 138.79 227.76 138.54 226.567 138.54C225.06 138.54 223.834 138.895 222.883 139.612C221.932 140.322 221.457 141.257 221.457 142.401C221.457 143.191 221.691 143.844 222.166 144.36C222.642 144.875 223.262 145.319 224.036 145.697C224.81 146.076 225.68 146.399 226.647 146.681C227.614 146.955 228.574 147.253 229.525 147.575C233.329 148.841 236.109 150.533 237.867 152.653C239.632 154.773 240.51 157.537 240.51 160.938C240.51 163.236 240.123 165.315 239.35 167.177C238.576 169.039 237.447 170.634 235.964 171.956C234.481 173.286 232.66 174.31 230.5 175.043C228.34 175.777 225.898 176.139 223.166 176.139C217.5 176.139 212.253 174.455 207.425 171.094L212.414 161.712C214.155 163.26 215.879 164.404 217.58 165.154C219.281 165.903 220.965 166.282 222.626 166.282C224.528 166.282 225.946 165.847 226.873 164.976C227.8 164.106 228.267 163.115 228.267 162.002C228.267 161.333 228.146 160.745 227.913 160.253C227.679 159.762 227.276 159.302 226.728 158.883C226.172 158.464 225.454 158.077 224.56 157.723C223.665 157.368 222.593 156.973 221.32 156.538C219.813 156.062 218.338 155.538 216.895 154.966C215.452 154.394 214.163 153.628 213.034 152.677C211.906 151.726 210.995 150.533 210.302 149.083C209.609 147.64 209.262 145.802 209.262 143.586C209.262 141.369 209.625 139.363 210.359 137.557C211.092 135.752 212.124 134.212 213.445 132.923C214.775 131.633 216.395 130.634 218.314 129.925C220.232 129.215 222.384 128.853 224.761 128.853C226.978 128.853 229.299 129.159 231.709 129.771C234.127 130.384 236.44 131.287 238.656 132.471L234.022 141.563L234.054 141.571ZM258.701 125.588V155.409L269.985 144.424H284.718L269.453 158.504L285.613 174.898H270.525L258.701 162.486V174.898H247.949V125.596H258.701V125.588ZM297.847 161.47C297.847 166.105 300.023 168.418 304.384 168.418C306.721 168.418 308.486 167.467 309.671 165.565H320.068C317.972 172.536 312.726 176.018 304.327 176.018C301.756 176.018 299.395 175.631 297.259 174.858C295.123 174.084 293.285 172.988 291.762 171.561C290.239 170.135 289.062 168.434 288.232 166.451C287.402 164.469 286.983 162.252 286.983 159.802C286.983 157.352 287.378 154.982 288.167 152.943C288.957 150.904 290.086 149.171 291.553 147.745C293.019 146.318 294.793 145.222 296.872 144.448C298.951 143.674 301.297 143.288 303.908 143.288C306.52 143.288 308.8 143.674 310.856 144.448C312.911 145.222 314.66 146.342 316.087 147.801C317.513 149.268 318.601 151.057 319.351 153.177C320.1 155.297 320.479 157.682 320.479 160.334V161.462H297.847V161.47ZM310.437 155.232C310.082 153.725 309.349 152.516 308.236 151.605C307.124 150.695 305.778 150.235 304.198 150.235C302.538 150.235 301.176 150.67 300.128 151.541C299.08 152.411 298.411 153.644 298.137 155.224H310.437V155.232ZM338.477 125.588V147.446C341.007 144.795 344.183 143.465 347.979 143.465C350.236 143.465 352.307 143.892 354.185 144.738C356.063 145.593 357.667 146.737 358.997 148.188C360.327 149.631 361.366 151.339 362.116 153.298C362.865 155.256 363.244 157.344 363.244 159.568C363.244 161.793 362.857 163.945 362.084 165.927C361.31 167.91 360.23 169.627 358.844 171.094C357.457 172.561 355.821 173.721 353.943 174.568C352.065 175.422 350.034 175.841 347.858 175.841C343.901 175.841 340.765 174.398 338.477 171.505V174.89H327.725V125.596H338.477V125.588ZM352.017 159.746C352.017 158.795 351.84 157.892 351.485 157.046C351.13 156.191 350.631 155.45 350.002 154.821C349.365 154.184 348.632 153.685 347.802 153.306C346.971 152.927 346.061 152.742 345.069 152.742C344.078 152.742 343.232 152.919 342.394 153.274C341.563 153.628 340.838 154.128 340.225 154.757C339.613 155.393 339.113 156.135 338.742 156.981C338.364 157.835 338.178 158.73 338.178 159.681C338.178 160.632 338.356 161.519 338.71 162.357C339.065 163.187 339.565 163.913 340.193 164.525C340.83 165.138 341.571 165.637 342.418 166.008C343.272 166.387 344.167 166.572 345.118 166.572C346.069 166.572 346.955 166.395 347.794 166.04C348.624 165.686 349.349 165.186 349.962 164.557C350.574 163.921 351.074 163.187 351.445 162.357C351.823 161.527 352.009 160.656 352.009 159.746H352.017ZM419.139 145.077C416.447 141.788 413.118 140.144 409.161 140.144C407.42 140.144 405.808 140.459 404.317 141.095C402.834 141.732 401.552 142.594 400.488 143.683C399.416 144.771 398.578 146.068 397.966 147.575C397.353 149.083 397.047 150.703 397.047 152.444C397.047 154.184 397.353 155.869 397.966 157.376C398.578 158.883 399.432 160.189 400.521 161.293C401.609 162.405 402.89 163.276 404.349 163.904C405.816 164.541 407.396 164.856 409.104 164.856C412.828 164.856 416.173 163.276 419.147 160.1V173.882L417.962 174.302C416.181 174.938 414.512 175.398 412.973 175.696C411.425 175.994 409.902 176.139 408.403 176.139C405.316 176.139 402.35 175.551 399.521 174.39C396.692 173.222 394.194 171.577 392.034 169.458C389.874 167.338 388.141 164.823 386.835 161.914C385.529 159.004 384.877 155.829 384.877 152.379C384.877 148.929 385.521 145.778 386.811 142.909C388.1 140.04 389.817 137.565 391.977 135.486C394.137 133.406 396.644 131.786 399.489 130.618C402.342 129.449 405.332 128.869 408.459 128.869C410.241 128.869 411.99 129.054 413.714 129.433C415.439 129.812 417.245 130.392 419.147 131.182V145.085L419.139 145.077ZM425.433 159.391C425.433 157.134 425.885 155.023 426.803 153.064C427.714 151.106 428.98 149.405 430.608 147.954C432.228 146.512 434.162 145.367 436.403 144.537C438.643 143.707 441.085 143.288 443.737 143.288C446.389 143.288 448.774 143.691 451.015 144.505C453.256 145.319 455.19 146.447 456.834 147.89C458.478 149.332 459.752 151.057 460.662 153.056C461.573 155.055 462.033 157.263 462.033 159.681C462.033 162.099 461.565 164.307 460.638 166.306C459.711 168.305 458.43 170.03 456.81 171.473C455.182 172.915 453.239 174.036 450.959 174.834C448.678 175.623 446.219 176.018 443.56 176.018C440.9 176.018 438.53 175.623 436.314 174.834C434.098 174.044 432.187 172.915 430.583 171.448C428.98 169.982 427.722 168.233 426.811 166.193C425.901 164.154 425.441 161.89 425.441 159.391H425.433ZM436.781 159.512C436.781 160.544 436.967 161.487 437.346 162.333C437.724 163.187 438.216 163.929 438.829 164.557C439.441 165.194 440.175 165.686 441.029 166.04C441.883 166.395 442.778 166.572 443.729 166.572C444.68 166.572 445.583 166.395 446.429 166.04C447.275 165.686 448.009 165.186 448.629 164.557C449.242 163.921 449.742 163.179 450.112 162.333C450.491 161.478 450.676 160.56 450.676 159.568C450.676 158.577 450.491 157.715 450.112 156.868C449.733 156.014 449.242 155.272 448.629 154.644C448.017 154.007 447.283 153.515 446.429 153.161C445.575 152.806 444.68 152.629 443.729 152.629C442.778 152.629 441.875 152.806 441.029 153.161C440.183 153.515 439.449 154.015 438.829 154.644C438.216 155.281 437.716 156.014 437.346 156.844C436.967 157.674 436.781 158.569 436.781 159.52V159.512ZM468.617 132.721C468.617 131.891 468.779 131.109 469.093 130.376C469.407 129.642 469.843 128.998 470.399 128.442C470.955 127.885 471.6 127.45 472.325 127.136C473.058 126.822 473.84 126.66 474.67 126.66C475.501 126.66 476.282 126.822 477.016 127.136C477.749 127.45 478.394 127.885 478.95 128.442C479.506 128.998 479.941 129.642 480.256 130.376C480.57 131.109 480.731 131.891 480.731 132.721C480.731 133.551 480.57 134.333 480.256 135.067C479.941 135.8 479.506 136.445 478.95 137.001C478.394 137.557 477.749 137.992 477.016 138.307C476.282 138.621 475.501 138.782 474.67 138.782C473.84 138.782 473.058 138.621 472.325 138.307C471.592 137.992 470.947 137.557 470.399 137.001C469.843 136.445 469.407 135.8 469.093 135.067C468.779 134.333 468.617 133.551 468.617 132.721V132.721ZM480.078 144.424V174.898H469.327V144.424H480.078ZM488.573 144.424H499.325V148.285C500.792 146.503 502.275 145.303 503.782 144.69C505.289 144.077 507.046 143.771 509.069 143.771C511.205 143.771 513.043 144.118 514.566 144.811C516.089 145.504 517.387 146.487 518.459 147.753C519.329 148.784 519.926 149.929 520.24 151.194C520.555 152.46 520.716 153.91 520.716 155.53V174.898H509.964V159.512C509.964 158.005 509.851 156.788 509.634 155.861C509.416 154.934 509.029 154.184 508.473 153.636C507.997 153.161 507.466 152.822 506.869 152.629C506.273 152.427 505.644 152.331 504.967 152.331C503.146 152.331 501.751 152.879 500.776 153.967C499.809 155.055 499.317 156.61 499.317 158.633V174.906H488.565V144.432L488.573 144.424Z" fill="white"/>
<path d="M73.0286 145.641L63.7357 136.348L69.7966 130.287L79.0895 139.58L73.0286 145.641ZM96.8613 121.816L87.5684 112.524L81.5075 118.585L90.8004 127.877L96.8613 121.816ZM114.633 104.045L105.34 94.7518L99.2792 100.813L108.572 110.106L114.633 104.045ZM181.07 157.15L126.142 212.078C123.579 214.641 119.413 214.641 116.85 212.078L61.9223 157.15C59.3592 154.587 59.3592 150.421 61.9223 147.858L64.9527 144.827L73.0286 152.903L86.3594 139.572L78.2836 131.496L82.7245 127.055L90.8004 135.131L104.131 121.8L96.0553 113.724L100.496 109.284L108.572 117.359L121.903 104.029L113.827 95.9527L116.858 92.9223C119.421 90.3592 123.587 90.3592 126.15 92.9223L181.078 147.85C183.641 150.413 183.641 154.579 181.078 157.142L181.07 157.15ZM140.577 161.567C140.577 158.005 139.651 155.111 137.813 152.887C135.967 150.67 133.058 148.897 129.076 147.567C128.077 147.237 127.077 146.923 126.062 146.632C125.046 146.342 124.136 146.004 123.322 145.609C122.516 145.214 121.863 144.747 121.363 144.207C120.863 143.667 120.613 142.981 120.613 142.151C120.613 140.95 121.113 139.975 122.104 139.226C123.104 138.476 124.385 138.105 125.965 138.105C127.206 138.105 128.496 138.363 129.826 138.879C131.156 139.395 132.477 140.193 133.807 141.273L138.659 131.754C136.338 130.513 133.912 129.57 131.381 128.925C128.85 128.28 126.425 127.958 124.103 127.958C121.613 127.958 119.364 128.329 117.357 129.078C115.342 129.828 113.65 130.876 112.255 132.222C110.869 133.568 109.789 135.188 109.023 137.074C108.258 138.96 107.871 141.063 107.871 143.384C107.871 145.706 108.234 147.624 108.959 149.139C109.684 150.654 110.635 151.904 111.82 152.903C113.005 153.894 114.351 154.7 115.866 155.297C117.381 155.901 118.921 156.449 120.501 156.949C121.83 157.408 122.959 157.819 123.894 158.19C124.829 158.561 125.586 158.964 126.167 159.399C126.747 159.834 127.166 160.31 127.408 160.834C127.658 161.35 127.779 161.962 127.779 162.671C127.779 163.832 127.287 164.872 126.32 165.782C125.345 166.693 123.862 167.153 121.871 167.153C120.13 167.153 118.365 166.758 116.584 165.968C114.802 165.178 112.997 163.977 111.175 162.357L105.953 172.182C111.014 175.704 116.503 177.469 122.435 177.469C125.296 177.469 127.859 177.082 130.116 176.317C132.373 175.551 134.283 174.471 135.838 173.085C137.394 171.698 138.579 170.03 139.385 168.08C140.191 166.129 140.594 163.953 140.594 161.551L140.577 161.567Z" fill="white"/>
</svg>
