<svg width="200" height="200" viewBox="0 0 200 200" fill="none" xmlns="http://www.w3.org/2000/svg">
<rect width="200" height="200" fill="#010101"/>
<path d="M36.9478 91.0779L24.8594 78.9896L32.7436 71.1054L44.8319 83.1938L36.9478 91.0779ZM67.9497 60.0865L55.8613 47.9982L47.9772 55.8823L60.0655 67.9706L67.9497 60.0865ZM91.0674 36.9687L78.9791 24.8804L71.095 32.7646L83.1833 44.8529L91.0674 36.9687ZM177.489 106.049L106.039 177.5C102.705 180.834 97.2846 180.834 93.9506 177.5L22.5005 106.049C19.1665 102.715 19.1665 97.2951 22.5005 93.9611L26.4426 90.019L36.9478 100.524L54.2887 83.1833L43.7835 72.6781L49.5603 66.9013L60.0655 77.4065L77.4065 60.0655L66.9013 49.5603L72.6781 43.7835L83.1833 54.2887L100.524 36.9478L90.019 26.4426L93.9611 22.5005C97.2951 19.1665 102.715 19.1665 106.049 22.5005L177.5 93.9506C180.834 97.2846 180.834 102.705 177.5 106.039L177.489 106.049ZM124.816 111.795C124.816 107.161 123.611 103.397 121.22 100.503C118.819 97.6201 115.034 95.3135 109.855 93.5836C108.555 93.1538 107.255 92.7449 105.934 92.3675C104.613 91.99 103.428 91.5497 102.369 91.036C101.321 90.5222 100.472 89.9142 99.8218 89.2117C99.1717 88.5093 98.8467 87.6181 98.8467 86.5382C98.8467 84.9761 99.4968 83.7075 100.786 82.7325C102.086 81.7574 103.753 81.2751 105.808 81.2751C107.423 81.2751 109.1 81.6106 110.83 82.2816C112.56 82.9526 114.28 83.9906 116.009 85.3955L122.321 73.0136C119.301 71.399 116.146 70.1723 112.854 69.3336C109.562 68.4949 106.406 68.0755 103.386 68.0755C100.147 68.0755 97.2217 68.5578 94.6111 69.5328C91.99 70.5078 89.7884 71.8708 87.9746 73.6217C86.1713 75.3725 84.7664 77.4799 83.7704 79.9332C82.7744 82.3865 82.2712 85.1229 82.2712 88.1423C82.2712 91.1618 82.7429 93.657 83.6865 95.6281C84.6301 97.5991 85.8672 99.2242 87.4084 100.524C88.9496 101.814 90.7005 102.862 92.6715 103.638C94.6426 104.424 96.645 105.137 98.7 105.787C100.43 106.385 101.898 106.92 103.114 107.402C104.33 107.884 105.316 108.408 106.07 108.975C106.825 109.541 107.37 110.159 107.685 110.841C108.01 111.512 108.167 112.309 108.167 113.231C108.167 114.741 107.528 116.093 106.27 117.278C105.001 118.463 103.072 119.06 100.482 119.06C98.2177 119.06 95.9216 118.547 93.6046 117.519C91.2876 116.492 88.9391 114.93 86.5697 112.822L79.7759 125.603C86.36 130.184 93.4998 132.48 101.216 132.48C104.938 132.48 108.272 131.977 111.208 130.981C114.143 129.985 116.628 128.58 118.651 126.777C120.675 124.973 122.216 122.803 123.265 120.266C124.313 117.729 124.837 114.898 124.837 111.774L124.816 111.795Z" fill="#30B396"/>
</svg>
