<svg width="200" height="44" viewBox="0 0 200 44" fill="none" xmlns="http://www.w3.org/2000/svg">
<path d="M76.5255 34.5924H69.5652V15.1592H76.5773C78.5437 15.1592 80.2515 15.5432 81.6746 16.3113C83.0977 17.0795 84.2103 18.206 84.9607 19.6398C85.7369 21.0993 86.0992 22.8147 86.0992 24.8374C86.0992 26.8601 85.7111 28.6012 84.9348 30.0606C84.1586 31.52 83.0718 32.621 81.6228 33.4147C80.2256 34.2084 78.5179 34.5924 76.5255 34.5924ZM73.7052 31.0591H76.3444C78.1815 31.0591 79.5787 30.5727 80.5361 29.5741C81.4935 28.6012 81.9592 27.0137 81.9592 24.8374C81.9592 22.6867 81.4935 21.1249 80.5361 20.1263C79.5787 19.1534 78.1815 18.6669 76.3444 18.6669H73.7052V31.0591Z" fill="#2B2D42"/>
<path d="M89.2041 34.5922H84.7537L91.5329 15.1846H96.8889L103.642 34.5922H99.1918L97.7428 30.1628H90.6531L89.2041 34.5922ZM91.714 26.9623H96.7078L94.3014 19.614H94.1462L91.714 26.9623Z" fill="#2B2D42"/>
<path d="M120.668 24.8886C120.668 27.0137 120.254 28.806 119.452 30.291C118.65 31.776 117.537 32.9026 116.166 33.6963C114.768 34.4644 113.216 34.8741 111.482 34.8741C109.749 34.8741 108.17 34.49 106.799 33.6963C105.402 32.9026 104.315 31.776 103.513 30.291C102.711 28.806 102.297 27.0137 102.297 24.9142C102.297 22.7891 102.711 20.9968 103.513 19.5118C104.315 18.0268 105.402 16.9002 106.799 16.1065C108.196 15.3384 109.749 14.9287 111.482 14.9287C113.216 14.9287 114.768 15.3128 116.166 16.1065C117.563 16.8746 118.65 18.0268 119.452 19.5118C120.28 20.9456 120.668 22.7635 120.668 24.8886ZM116.476 24.8886C116.476 22.8403 116.01 21.2528 115.105 20.1775C114.199 19.1021 112.983 18.5388 111.482 18.5388C109.982 18.5388 108.765 19.0765 107.86 20.1775C106.954 21.2784 106.488 22.8403 106.488 24.8886C106.488 26.9369 106.954 28.5243 107.86 29.5997C108.765 30.675 109.982 31.2383 111.482 31.2383C112.983 31.2383 114.199 30.7006 115.105 29.5997C116.01 28.4987 116.476 26.9369 116.476 24.8886Z" fill="#2B2D42"/>
<path d="M126.231 15.1592H131.354L136.762 28.2171H136.995L142.403 15.1592H147.5V34.5924H143.464V21.9442H143.308L138.237 34.49H135.494L130.423 21.893H130.267V34.5924H126.231V15.1592V15.1592Z" fill="#2B2D42"/>
<path d="M153.529 34.8483C152.132 34.8483 150.967 34.4898 150.036 33.7473C149.104 33.0304 148.639 31.9294 148.639 30.4956C148.639 29.4203 148.897 28.5497 149.415 27.9352C149.932 27.3208 150.605 26.8599 151.459 26.5782C152.287 26.2966 153.192 26.0918 154.176 26.015C155.444 25.8869 156.375 25.7589 156.918 25.6053C157.462 25.4517 157.746 25.17 157.746 24.6836V24.6324C157.746 24.0435 157.565 23.557 157.177 23.2498C156.789 22.9169 156.272 22.7633 155.573 22.7633C154.848 22.7633 154.253 22.9169 153.813 23.2498C153.374 23.557 153.089 23.9667 152.96 24.4531L149.182 24.1459C149.467 22.8145 150.165 21.7647 151.278 20.9966C152.39 20.2285 153.839 19.8188 155.599 19.8188C156.686 19.8188 157.721 19.9981 158.652 20.3309C159.609 20.6638 160.36 21.2015 160.955 21.9184C161.55 22.6353 161.835 23.5826 161.835 24.7348V34.5922H157.953V32.5695H157.85C157.488 33.2352 156.97 33.7985 156.246 34.2338C155.521 34.6434 154.616 34.8483 153.529 34.8483ZM154.693 32.0831C155.599 32.0831 156.323 31.827 156.893 31.3149C157.462 30.8029 157.746 30.1628 157.746 29.3947V27.8584C157.591 27.9608 157.332 28.0633 156.996 28.1401C156.66 28.2169 156.297 28.2937 155.935 28.3449C155.547 28.3961 155.211 28.4473 154.926 28.4985C154.202 28.6009 153.632 28.8058 153.192 29.0874C152.753 29.3947 152.546 29.8299 152.546 30.3932C152.546 30.9565 152.753 31.3661 153.167 31.6478C153.555 31.9294 154.072 32.0831 154.693 32.0831Z" fill="#2B2D42"/>
<path d="M163.387 34.5924V15.1592H167.475V25.5287H167.708L172.417 19.9983H177.101L171.641 26.2968L177.385 34.5668H172.599L168.562 28.7036L167.45 29.9582V34.5924H163.387Z" fill="#2B2D42"/>
<path d="M183.285 34.8741C181.784 34.8741 180.49 34.5669 179.378 33.9524C178.291 33.3379 177.437 32.4674 176.868 31.3664C176.273 30.2399 175.988 28.9085 175.988 27.3722C175.988 25.8872 176.273 24.5558 176.868 23.4293C177.463 22.3027 178.291 21.4066 179.352 20.7921C180.413 20.152 181.681 19.8447 183.13 19.8447C184.423 19.8447 185.588 20.1264 186.649 20.664C187.684 21.2017 188.512 22.021 189.133 23.122C189.754 24.223 190.064 25.58 190.064 27.2442V28.3452H180.051C180.051 29.4205 180.361 30.2911 180.956 30.9056C181.551 31.52 182.379 31.8529 183.388 31.8529C184.061 31.8529 184.656 31.6993 185.148 31.4176C185.639 31.136 186.002 30.7007 186.209 30.163L189.986 30.4191C189.702 31.7761 188.977 32.8514 187.813 33.6708C186.623 34.4645 185.122 34.8741 183.285 34.8741ZM180.025 25.836H186.209C186.209 24.9655 185.924 24.2486 185.355 23.6853C184.786 23.122 184.087 22.8404 183.181 22.8404C182.276 22.8404 181.525 23.122 180.956 23.7109C180.387 24.2998 180.076 25.0167 180.025 25.836Z" fill="#2B2D42"/>
<path d="M191.073 34.5922V20.0237H195.032V22.5585H195.187C195.446 21.6623 195.912 20.971 196.533 20.5101C197.154 20.0493 197.904 19.8188 198.706 19.8188C199.172 19.8188 199.586 19.8701 200 19.9725V23.557C199.819 23.5058 199.534 23.4546 199.198 23.4034C198.861 23.3522 198.551 23.3522 198.266 23.3522C197.361 23.3522 196.61 23.6338 196.041 24.1971C195.446 24.7604 195.161 25.4773 195.161 26.3734V34.5922H191.073Z" fill="#2B2D42"/>
<path d="M0.790527 43.9242L20.392 7.61588L37.677 0L18.0755 36.3083L0.790527 43.9242Z" fill="url(#paint0_linear_185_37950)"/>
<path d="M20.3413 35.625L35.2334 8.0459L43.6849 16.3449L28.9965 44L20.3413 35.625Z" fill="url(#paint1_linear_185_37950)"/>
<path d="M45.3394 17.1802L56.362 21.1779L50.8634 31.2481L37.4988 31.7035L45.3394 17.1802Z" fill="url(#paint2_linear_185_37950)"/>
<defs>
<linearGradient id="paint0_linear_185_37950" x1="0.830219" y1="43.8976" x2="57.3895" y2="-0.430964" gradientUnits="userSpaceOnUse">
<stop stop-color="#48D5FF"/>
<stop offset="1" stop-color="#1FA5FF"/>
</linearGradient>
<linearGradient id="paint1_linear_185_37950" x1="1.32299" y1="44.0198" x2="60.2398" y2="-0.44479" gradientUnits="userSpaceOnUse">
<stop stop-color="#48D5FF"/>
<stop offset="1" stop-color="#1FA5FF"/>
</linearGradient>
<linearGradient id="paint2_linear_185_37950" x1="1.07652" y1="43.8367" x2="58.211" y2="0.458886" gradientUnits="userSpaceOnUse">
<stop stop-color="#48D5FF"/>
<stop offset="1" stop-color="#1FA5FF"/>
</linearGradient>
</defs>
</svg>
