<svg width="860" height="278" viewBox="0 0 860 278" fill="none" xmlns="http://www.w3.org/2000/svg">
<g clip-path="url(#clip0_308_254)">
<path d="M319.347 64.3087V137.107H247V73.709C247 68.4987 242.773 64.2722 237.561 64.2722H213.068V238.543C213.068 243.754 217.296 247.98 222.508 247.98H247V166.693H319.384V238.507C319.311 243.717 323.466 248.017 328.678 248.089H328.824H353.316V73.709C353.316 68.4987 349.088 64.2722 343.876 64.2722H319.347V64.3087ZM463.021 109.853V197.189C463.094 205.132 458.939 212.528 452.087 216.609C432.916 227.686 413.052 213.804 413.052 195.586V119.29C413.052 114.08 408.824 109.853 403.613 109.853H379.12V198.719C379.193 227.358 402.373 250.531 431.021 250.676H444.943C473.627 250.604 496.88 227.358 496.953 198.683V119.29C496.953 114.08 492.725 109.853 487.513 109.853H463.021Z" fill="#1B2143"/>
<path d="M833.576 248.09H858.068V124.355C858.068 119.144 853.84 114.918 848.628 114.918H824.136V238.58C824.1 243.79 828.291 248.053 833.503 248.09H833.576Z" fill="#2CA6E0"/>
<path d="M858.585 90.1689C862.584 80.52 858 69.4578 848.348 65.461C838.696 61.4642 827.631 66.0462 823.633 75.6952C819.635 85.3441 824.218 96.4062 833.87 100.403C843.522 104.4 854.587 99.8179 858.585 90.1689Z" fill="#2CA6E0"/>
<path d="M584.498 109.78C548.962 109.78 519.878 135.176 519.878 170.7V189.902C519.878 225.427 548.962 250.676 584.498 250.676C620.034 250.676 649.118 225.427 649.118 189.902V170.7C649.155 135.176 620.07 109.78 584.498 109.78V109.78ZM615.041 192.197C615.041 208.994 601.3 220.18 584.462 220.18C567.623 220.18 553.919 208.994 553.919 192.197V168.223C553.919 151.426 567.66 140.24 584.462 140.24C601.264 140.24 615.041 151.426 615.041 168.223V192.197Z" fill="#1B2143"/>
<path d="M736.664 109.78C726.021 109.707 715.525 112.112 705.939 116.739V73.8913C705.939 68.681 701.711 64.4545 696.499 64.4545H672.007V189.902C672.007 225.427 701.092 250.676 736.627 250.676C772.163 250.676 801.248 225.427 801.248 189.902V170.7C801.284 135.176 772.272 109.78 736.664 109.78V109.78ZM767.243 192.197C767.243 208.994 753.502 220.18 736.664 220.18C719.862 220.18 706.121 208.994 706.121 192.197V168.223C706.121 151.426 719.862 140.24 736.664 140.24C753.466 140.24 767.243 151.426 767.243 168.223V192.197Z" fill="#2CA6E0"/>
<path d="M110.507 79.3566C110.507 42.3381 92.4657 10.457 78.7252 0.109335C78.7252 0.109335 77.6683 -0.473633 77.7776 1.02022C76.6478 72.5432 40.0916 91.9269 20.0094 118.015C-26.351 178.279 16.7291 244.337 60.684 256.543C85.1763 263.393 54.9983 244.446 51.0985 204.476C46.324 156.236 110.507 119.363 110.507 79.3566V79.3566Z" fill="#1B2143"/>
<path d="M131.573 103.732C131.282 103.55 130.881 103.404 130.625 103.878C129.86 112.877 120.675 132.115 109.013 149.823C69.4677 209.796 91.9918 238.726 104.675 254.284C112.038 263.283 104.675 254.284 123.045 245.065C145.751 231.293 160.475 207.464 162.662 181.012C166.27 138.382 140.685 111.529 131.573 103.732V103.732Z" fill="#2CA6E0"/>
</g>
<defs>
<clipPath id="clip0_308_254">
<rect width="860" height="278" fill="white"/>
</clipPath>
</defs>
</svg>
