<svg width="747" height="306" viewBox="0 0 747 306" fill="none" xmlns="http://www.w3.org/2000/svg">
<path d="M219.02 41H4.98C3.66 41 2.39 41.52 1.46 42.46C0.53 43.39 0 44.66 0 45.98V260.02C0 261.34 0.52 262.61 1.46 263.54C2.39 264.47 3.66 265 4.98 265H219.02C220.34 265 221.61 264.48 222.54 263.54C223.47 262.61 224 261.34 224 260.02V45.98C224 44.66 223.48 43.39 222.54 42.46C221.61 41.53 220.34 41 219.02 41V41ZM149.33 185.35C149.33 186.67 148.81 187.94 147.87 188.87C146.93 189.8 145.67 190.33 144.35 190.33H79.64C78.32 190.33 77.05 189.8 76.12 188.87C75.19 187.94 74.66 186.67 74.66 185.35V120.64C74.66 119.32 75.18 118.05 76.12 117.12C77.05 116.19 78.32 115.66 79.64 115.66H144.35C145.67 115.66 146.94 116.18 147.87 117.12C148.8 118.05 149.33 119.32 149.33 120.64V185.35Z" fill="black"/>
<path d="M667.13 115.67H602.42C599.67 115.67 597.44 117.9 597.44 120.65V185.36C597.44 188.11 599.67 190.34 602.42 190.34H667.13C669.88 190.34 672.11 188.11 672.11 185.36V120.65C672.11 117.9 669.88 115.67 667.13 115.67Z" fill="black"/>
<path d="M592.43 41H527.72C524.97 41 522.74 43.23 522.74 45.98V110.69C522.74 113.44 524.97 115.67 527.72 115.67H592.43C595.18 115.67 597.41 113.44 597.41 110.69V45.98C597.41 43.23 595.18 41 592.43 41Z" fill="black"/>
<path d="M741.76 41H677.05C674.3 41 672.07 43.23 672.07 45.98V110.69C672.07 113.44 674.3 115.67 677.05 115.67H741.76C744.51 115.67 746.74 113.44 746.74 110.69V45.98C746.74 43.23 744.51 41 741.76 41Z" fill="black"/>
<path d="M592.43 190.33H527.72C524.97 190.33 522.74 192.56 522.74 195.31V260.02C522.74 262.77 524.97 265 527.72 265H592.43C595.18 265 597.41 262.77 597.41 260.02V195.31C597.41 192.56 595.18 190.33 592.43 190.33Z" fill="black"/>
<path d="M741.76 190.33H677.05C674.3 190.33 672.07 192.56 672.07 195.31V260.02C672.07 262.77 674.3 265 677.05 265H741.76C744.51 265 746.74 262.77 746.74 260.02V195.31C746.74 192.56 744.51 190.33 741.76 190.33Z" fill="black"/>
<path d="M480.34 41H415.63C412.88 41 410.65 43.23 410.65 45.98V110.69C410.65 113.44 412.88 115.67 415.63 115.67H480.34C483.09 115.67 485.32 113.44 485.32 110.69V45.98C485.32 43.23 483.09 41 480.34 41Z" fill="black"/>
<path d="M480.34 190.33H415.63C412.88 190.33 410.65 192.56 410.65 195.31V260.02C410.65 262.77 412.88 265 415.63 265H480.34C483.09 265 485.32 262.77 485.32 260.02V195.31C485.32 192.56 483.09 190.33 480.34 190.33Z" fill="black"/>
<path d="M410.66 120.59C410.66 119.27 410.13 118 409.2 117.07C408.27 116.14 407 115.61 405.68 115.61H335.99V45.98C335.99 44.66 335.47 43.39 334.53 42.46C333.59 41.53 332.33 41 331.01 41H266.3C264.98 41 263.71 41.52 262.78 42.46C261.85 43.39 261.32 44.66 261.32 45.98V259.91C261.32 261.23 261.84 262.5 262.78 263.43C263.71 264.36 264.98 264.89 266.3 264.89H331.01C332.33 264.89 333.6 264.37 334.53 263.43C335.46 262.5 335.99 261.23 335.99 259.91V190.28H405.68C407 190.28 408.27 189.76 409.2 188.82C410.13 187.89 410.66 186.62 410.66 185.3V120.59Z" fill="black"/>
</svg>
