<svg width="333" height="257" viewBox="0 0 333 257" fill="none" xmlns="http://www.w3.org/2000/svg">
<path d="M88.9668 52.95C88.9068 52.95 88.8468 52.95 88.7768 52.95C76.4068 52.95 66.3768 62.98 66.3768 75.35C66.3768 87.72 76.2968 97.63 88.5668 97.74C83.8268 91.62 80.9668 83.96 80.9668 75.61C80.9668 67.26 83.9668 59.16 88.9568 52.96L88.9668 52.95Z" fill="#CCBE00"/>
<path d="M42.3768 89.62C50.153 89.62 56.4568 83.3162 56.4568 75.54C56.4568 67.7639 50.153 61.46 42.3768 61.46C34.6006 61.46 28.2968 67.7639 28.2968 75.54C28.2968 83.3162 34.6006 89.62 42.3768 89.62Z" fill="#CCBE00"/>
<path d="M19.3614 75.6872C19.4521 70.3861 15.2281 66.0151 9.92698 65.9245C4.62582 65.8338 0.254874 70.0577 0.164193 75.3589C0.0735115 80.66 4.29744 85.031 9.59859 85.1217C14.8998 85.2123 19.2707 80.9884 19.3614 75.6872Z" fill="#CCBE00"/>
<path d="M39.9468 218.65H28.7168V211.17H59.2868V218.65H48.0568V248.06H39.9368V218.65H39.9468Z" fill="#231F20"/>
<path d="M76.1568 248.59C73.0968 248.59 70.7368 247.66 69.0668 245.8C67.3968 243.94 66.5668 241.37 66.5668 238.1V219.81H74.5768V235.53C74.5768 237.42 74.9968 238.85 75.8468 239.81C76.6868 240.77 77.8868 241.26 79.4268 241.26C80.9668 241.26 82.1968 240.78 83.0868 239.81C83.9868 238.85 84.4268 237.42 84.4268 235.53V219.81H92.4368V248.06H84.4268V244.02C83.9668 244.62 83.4668 245.2 82.9268 245.75C82.3868 246.3 81.7768 246.78 81.1068 247.21C80.4368 247.64 79.6968 247.97 78.8968 248.22C78.0868 248.47 77.1768 248.59 76.1568 248.59V248.59Z" fill="#231F20"/>
<path d="M101.717 219.81H109.727V225.5C110.537 223.57 111.647 222.02 113.047 220.86C114.447 219.7 116.347 219.17 118.737 219.28V227.66H118.317C115.647 227.66 113.547 228.47 112.017 230.08C110.487 231.7 109.727 234.21 109.727 237.62V248.05H101.717V219.8V219.81Z" fill="#231F20"/>
<path d="M126.017 209.59H134.447V216.71H126.017V209.59ZM126.227 219.81H134.237V248.06H126.227V219.81Z" fill="#231F20"/>
<path d="M143.887 219.81H151.897V223.85C152.357 223.25 152.857 222.67 153.397 222.12C153.937 221.57 154.547 221.09 155.217 220.66C155.887 220.24 156.617 219.9 157.427 219.65C158.237 219.4 159.147 219.28 160.167 219.28C163.227 219.28 165.587 220.21 167.257 222.07C168.927 223.93 169.757 226.5 169.757 229.76V248.05H161.747V232.33C161.747 230.44 161.327 229.01 160.477 228.04C159.637 227.08 158.437 226.6 156.897 226.6C155.357 226.6 154.127 227.08 153.237 228.04C152.337 229 151.897 230.43 151.897 232.33V248.05H143.887V219.8V219.81Z" fill="#231F20"/>
<path d="M191.477 256.6C189.157 256.6 186.947 256.35 184.837 255.84C182.727 255.33 180.777 254.6 178.987 253.65L181.727 247.64C183.207 248.45 184.687 249.08 186.177 249.54C187.667 250 189.367 250.23 191.267 250.23C194.007 250.23 196.037 249.58 197.357 248.28C198.677 246.98 199.337 245.07 199.337 242.54V241.17C198.147 242.61 196.837 243.73 195.437 244.54C194.027 245.35 192.257 245.75 190.117 245.75C188.467 245.75 186.887 245.46 185.377 244.88C183.867 244.3 182.527 243.45 181.367 242.32C180.207 241.2 179.287 239.82 178.597 238.18C177.907 236.55 177.567 234.68 177.567 232.57V232.46C177.567 230.35 177.917 228.48 178.617 226.85C179.317 225.22 180.247 223.84 181.407 222.71C182.567 221.59 183.897 220.73 185.417 220.15C186.927 219.57 188.487 219.28 190.107 219.28C192.287 219.28 194.077 219.68 195.487 220.49C196.887 221.3 198.137 222.3 199.227 223.49V219.8H207.237V241.67C207.237 246.69 206.047 250.4 203.657 252.79C202.317 254.13 200.647 255.09 198.627 255.69C196.607 256.29 194.227 256.59 191.487 256.59L191.477 256.6ZM192.427 239.1C193.407 239.1 194.327 238.94 195.167 238.63C196.007 238.31 196.737 237.87 197.357 237.29C197.967 236.71 198.457 236.02 198.807 235.21C199.157 234.4 199.337 233.52 199.337 232.57V232.46C199.337 231.51 199.157 230.63 198.807 229.83C198.457 229.02 197.967 228.33 197.357 227.75C196.737 227.17 196.017 226.72 195.167 226.41C194.327 226.09 193.407 225.94 192.427 225.94C191.447 225.94 190.537 226.1 189.717 226.41C188.887 226.73 188.167 227.17 187.557 227.75C186.937 228.33 186.457 229.02 186.107 229.83C185.757 230.64 185.577 231.52 185.577 232.46V232.57C185.577 234.54 186.227 236.12 187.527 237.31C188.827 238.51 190.457 239.1 192.427 239.1V239.1Z" fill="#231F20"/>
<path d="M225.897 248.59C222.837 248.59 220.477 247.66 218.807 245.8C217.137 243.94 216.307 241.37 216.307 238.1V219.81H224.317V235.53C224.317 237.42 224.737 238.85 225.587 239.81C226.427 240.77 227.627 241.26 229.167 241.26C230.707 241.26 231.937 240.78 232.827 239.81C233.727 238.85 234.167 237.42 234.167 235.53V219.81H242.177V248.06H234.167V244.02C233.707 244.62 233.207 245.2 232.667 245.75C232.127 246.3 231.517 246.78 230.847 247.21C230.177 247.64 229.437 247.97 228.637 248.22C227.827 248.47 226.917 248.59 225.897 248.59V248.59Z" fill="#231F20"/>
<path d="M251.457 219.81H259.467V223.85C259.927 223.25 260.427 222.67 260.967 222.12C261.507 221.57 262.117 221.09 262.787 220.66C263.457 220.24 264.197 219.9 265.027 219.65C265.857 219.4 266.777 219.28 267.797 219.28C269.657 219.28 271.267 219.67 272.617 220.45C273.967 221.23 275.017 222.34 275.757 223.79C276.987 222.3 278.357 221.18 279.867 220.42C281.377 219.66 283.097 219.28 285.037 219.28C288.027 219.28 290.357 220.16 292.047 221.91C293.737 223.67 294.577 226.25 294.577 229.66V248.05H286.567V232.33C286.567 230.44 286.167 229.01 285.357 228.04C284.547 227.08 283.387 226.6 281.877 226.6C280.367 226.6 279.177 227.08 278.317 228.04C277.457 229 277.027 230.43 277.027 232.33V248.05H269.017V232.33C269.017 230.44 268.617 229.01 267.807 228.04C266.997 227.08 265.837 226.6 264.327 226.6C262.817 226.6 261.627 227.08 260.767 228.04C259.907 229 259.477 230.43 259.477 232.33V248.05H251.467V219.8L251.457 219.81Z" fill="#231F20"/>
<path d="M91.4368 68.86C89.4368 68.86 88.4868 67.37 89.3168 65.55L117.857 3.31C118.687 1.49 121.007 0 123.007 0H216.297C218.297 0 219.247 1.49 218.417 3.31L189.877 65.55C189.047 67.37 186.727 68.86 184.727 68.86H91.4368Z" fill="#E3D200"/>
<path d="M91.4368 73.31C89.4368 73.31 88.2168 74.89 88.7168 76.83L109.527 156.48C110.037 158.42 112.087 160 114.087 160H207.377C209.377 160 210.597 158.42 210.097 156.48L189.287 76.83C188.777 74.89 186.727 73.31 184.727 73.31H91.4368V73.31Z" fill="#E3D200"/>
<path d="M220.957 4.70001C221.767 2.87001 222.837 2.96001 223.347 4.89001L244.157 84.54C244.667 86.48 244.417 89.56 243.607 91.39L215.817 154.46C215.007 156.29 213.937 156.2 213.427 154.27L192.617 74.62C192.107 72.68 192.357 69.6 193.167 67.77L220.957 4.70001V4.70001Z" fill="#2F749E"/>
<path d="M239.937 97.94C252.308 97.94 262.337 87.9112 262.337 75.54C262.337 63.1688 252.308 53.14 239.937 53.14C227.566 53.14 217.537 63.1688 217.537 75.54C217.537 87.9112 227.566 97.94 239.937 97.94Z" fill="#5E9CC1"/>
<path d="M286.337 89.42C294.113 89.42 300.417 83.1162 300.417 75.34C300.417 67.5638 294.113 61.26 286.337 61.26C278.561 61.26 272.257 67.5638 272.257 75.34C272.257 83.1162 278.561 89.42 286.337 89.42Z" fill="#5E9CC1"/>
<path d="M324.831 82.9211C329.023 79.6752 329.79 73.6454 326.544 69.4532C323.298 65.261 317.269 64.494 313.076 67.7399C308.884 70.9858 308.117 77.0156 311.363 81.2078C314.609 85.4 320.639 86.1671 324.831 82.9211Z" fill="#5E9CC1"/>
</svg>
