<svg width="100" height="100" viewBox="0 0 100 100" fill="none" xmlns="http://www.w3.org/2000/svg">
<g clip-path="url(#clip0_153_1332)">
<path d="M81.3813 76.9161L80.6144 71.521C80.5851 71.328 80.5969 71.1309 80.6493 70.9427C80.7016 70.7546 80.7931 70.5796 80.9179 70.4294C81.5366 69.6942 82.7392 69.8098 83.305 70.6591L84.7816 72.8751L87.7949 69.294C88.6121 68.323 90.1151 68.243 91.1517 69.1155L95.0036 72.3569C96.0405 73.2292 96.2186 74.723 95.4014 75.6948L88.9878 83.3168" fill="#FCE2CD"/>
<path d="M88.9872 84.471C88.7675 84.4709 88.5523 84.408 88.367 84.2898C88.1817 84.1716 88.034 84.0029 87.9413 83.8036C87.8486 83.6043 87.8147 83.3827 87.8437 83.1649C87.8726 82.947 87.9632 82.7419 88.1047 82.5737L94.5183 74.9521C94.9244 74.4696 94.8088 73.7017 94.2607 73.24L90.4086 69.9987C89.8606 69.537 89.0844 69.5545 88.6774 70.0372L85.6645 73.6178C85.5492 73.7549 85.4035 73.8632 85.239 73.9342C85.0745 74.0053 84.8958 74.037 84.7169 74.027C84.538 74.017 84.3639 73.9655 84.2084 73.8765C84.0529 73.7876 83.9202 73.6636 83.8209 73.5145L82.3445 71.2985C82.3074 71.241 82.2575 71.193 82.1987 71.158C82.1399 71.1231 82.0738 71.1023 82.0056 71.0973C81.968 71.0928 81.9299 71.0972 81.8944 71.1102C81.8589 71.1232 81.8269 71.1444 81.8011 71.1721C81.781 71.1983 81.7667 71.2284 81.7591 71.2605C81.7515 71.2926 81.7508 71.3259 81.757 71.3583L82.5242 76.7534C82.5673 77.0564 82.4882 77.3642 82.3044 77.609C82.1205 77.8537 81.847 78.0155 81.5439 78.0586C81.2408 78.1016 80.9331 78.0226 80.6883 77.8387C80.4435 77.6549 80.2818 77.3813 80.2387 77.0783L79.4716 71.6836C79.4155 71.3107 79.4438 70.93 79.5544 70.5695C79.6649 70.2089 79.855 69.8778 80.1105 69.6005C80.366 69.3231 80.6804 69.1066 81.0306 68.9669C81.3809 68.8272 81.758 68.7678 82.1343 68.7931C82.5601 68.8191 82.9741 68.9432 83.3439 69.1559C83.7137 69.3686 84.0292 69.664 84.2657 70.0191L84.8889 70.9549L86.9118 68.5504C88.1378 67.094 90.373 66.9511 91.895 68.232L95.7469 71.4733C97.2687 72.7541 97.5099 74.9811 96.2856 76.4375L89.8715 84.0592C89.7633 84.1884 89.628 84.2922 89.4752 84.3634C89.3224 84.4346 89.1558 84.4713 88.9872 84.471V84.471Z" fill="#262626"/>
<path d="M16.2968 76.9161L17.0637 71.521C17.093 71.328 17.081 71.1309 17.0287 70.9428C16.9764 70.7546 16.8849 70.5797 16.7602 70.4294C16.1414 69.6942 14.9389 69.8098 14.3731 70.6591L12.8966 72.8751L9.88337 69.2944C9.0662 68.3234 7.56326 68.2434 6.52642 69.1159L2.67451 72.3573C1.63786 73.2296 1.45973 74.7233 2.2769 75.6952L8.69071 83.3168" fill="#FCE2CD"/>
<path d="M8.69072 84.471C8.52231 84.4713 8.3559 84.4346 8.20321 84.3636C8.05052 84.2926 7.91527 84.1889 7.80699 84.0599L1.39357 76.4385C0.168015 74.9821 0.409239 72.7551 1.93219 71.4741L5.78409 68.2328C7.30608 66.952 9.54154 67.0947 10.7663 68.5511L12.7892 70.9557L13.4125 70.02C13.6489 69.665 13.9644 69.3696 14.3341 69.1568C14.7038 68.9441 15.1178 68.8199 15.5435 68.7939C15.9198 68.7685 16.297 68.8278 16.6473 68.9675C16.9977 69.1073 17.3122 69.3238 17.5677 69.6012C17.8232 69.8786 18.0133 70.2098 18.1238 70.5704C18.2343 70.931 18.2626 71.3118 18.2064 71.6847L17.4394 77.0784C17.3941 77.3795 17.2316 77.6505 16.9874 77.8324C16.7432 78.0142 16.437 78.0922 16.1356 78.0493C15.8341 78.0064 15.5618 77.8462 15.378 77.6034C15.1942 77.3607 15.1137 77.0551 15.1542 76.7534L15.9213 71.3587C15.9293 71.324 15.9285 71.2878 15.9191 71.2535C15.9097 71.2191 15.892 71.1876 15.8674 71.1618C15.8429 71.1359 15.8124 71.1166 15.7785 71.1054C15.7447 71.0943 15.7086 71.0917 15.6735 71.0978C15.6053 71.1029 15.5392 71.1237 15.4804 71.1586C15.4216 71.1935 15.3717 71.2416 15.3346 71.2991L13.8582 73.5151C13.7589 73.6642 13.6262 73.7881 13.4707 73.8771C13.3152 73.966 13.1411 74.0175 12.9622 74.0276C12.7833 74.0376 12.6046 74.0058 12.4401 73.9348C12.2756 73.8638 12.1299 73.7555 12.0146 73.6184L9.00004 70.0375C8.59396 69.5549 7.81777 69.5374 7.26876 69.9991L3.41666 73.2404C2.86862 73.7021 2.75281 74.4696 3.15909 74.9524L9.57251 82.5741C9.71386 82.7422 9.8043 82.9472 9.8332 83.165C9.8621 83.3827 9.82827 83.6042 9.73567 83.8034C9.64308 84.0025 9.49557 84.1712 9.31047 84.2894C9.12537 84.4077 8.91037 84.4707 8.69072 84.471V84.471Z" fill="#262626"/>
<path d="M88.9876 83.3163L85.8867 86.8923L78.2902 80.5501C79.9773 78.5668 81.3815 76.9163 81.3815 76.9163L88.9876 83.3163Z" fill="#F1F2F2"/>
<path d="M85.8865 88.0465C85.6163 88.0467 85.3546 87.9518 85.1474 87.7783L77.5509 81.4359C77.4339 81.3382 77.3374 81.2182 77.267 81.083C77.1966 80.9478 77.1537 80.7999 77.1408 80.648C77.1278 80.4961 77.1451 80.3432 77.1916 80.198C77.2381 80.0528 77.3129 79.9183 77.4117 79.8021L80.5028 76.1682C80.7005 75.9359 80.9822 75.7913 81.2862 75.7661C81.5902 75.7409 81.8918 75.837 82.1252 76.0335L89.7313 82.4335C89.8483 82.532 89.9446 82.6528 90.0146 82.7889C90.0845 82.9249 90.1267 83.0736 90.1387 83.2261C90.1507 83.3786 90.1322 83.532 90.0844 83.6773C90.0366 83.8227 89.9604 83.957 89.8601 84.0726L86.7592 87.6487C86.6509 87.7738 86.5168 87.8741 86.3662 87.9427C86.2156 88.0113 86.052 88.0467 85.8865 88.0465V88.0465ZM79.9247 80.4106L85.7574 85.2803L87.3486 83.4451L81.5167 78.5385L79.9247 80.4106Z" fill="#262626"/>
<path d="M19.4787 80.6584L11.884 86.9979L8.69073 83.3163L16.2968 76.9163C16.2968 76.9163 17.7532 78.6281 19.4787 80.6584V80.6584Z" fill="#F1F2F2"/>
<path d="M11.884 88.1521C11.7185 88.1523 11.5549 88.1169 11.4043 88.0483C11.2538 87.9796 11.1198 87.8794 11.0114 87.7543L7.81816 84.0724C7.71791 83.9568 7.64165 83.8225 7.59381 83.6771C7.54597 83.5318 7.52751 83.3783 7.5395 83.2258C7.55149 83.0733 7.5937 82.9246 7.66367 82.7885C7.73363 82.6524 7.82996 82.5316 7.94704 82.4331L15.5531 76.0332C15.7865 75.8366 16.0881 75.7405 16.3921 75.7657C16.6961 75.7909 16.9778 75.9355 17.1755 76.1678L20.3574 79.9095C20.4561 80.0256 20.5309 80.1602 20.5773 80.3054C20.6238 80.4506 20.641 80.6035 20.628 80.7554C20.615 80.9073 20.572 81.0551 20.5016 81.1903C20.4311 81.3255 20.3346 81.4454 20.2176 81.543L12.623 87.8834C12.4159 88.057 12.1543 88.1522 11.884 88.1521V88.1521ZM10.3299 83.4451L12.0132 85.3861L17.8442 80.5181L16.161 78.5387L10.3299 83.4451Z" fill="#262626"/>
<path d="M58.5088 91.0868L58.5069 100H39.0781L39.0935 97.6453C39.3186 97.6432 39.5456 97.637 39.7726 97.6309C43.0828 97.5127 46.3606 96.9354 49.512 95.9153C49.512 95.9153 55.6195 93.0562 58.5088 91.0868Z" fill="#E3E3EA"/>
<path d="M58.5088 91.0868C55.6195 93.0562 49.512 95.9152 49.512 95.9152C46.3606 96.9352 43.0828 97.5125 39.7726 97.6307C39.5456 97.6368 39.3186 97.643 39.0935 97.6451L39.2166 83.4773C42.1404 84.8818 45.3469 85.5986 48.5905 85.5727C52.2089 85.5727 55.5599 84.7346 58.3145 83.3018L58.5069 83.0727L58.5088 83.0706V91.0868Z" fill="white"/>
<path d="M39.2166 83.4498C41.9001 84.6847 45.126 85.4022 48.5905 85.4022C52.2089 85.4022 55.5599 84.6212 58.3145 83.2862L58.5069 83.0727L58.5088 83.0708" fill="#D1D0DF"/>
<path d="M48.5908 86.5564C45.0682 86.5564 41.6599 85.8447 38.734 84.4981L39.6993 82.4014C42.3243 83.6096 45.399 84.2481 48.5908 84.2481C51.8402 84.2481 54.9534 83.59 57.6105 82.3437L57.6909 82.2569L57.724 82.29L57.8114 82.248L57.9323 82.4981L58.5264 83.0908L59.3645 83.8458L59.0211 84.2273L58.818 84.3256C55.8056 85.7849 52.2691 86.5564 48.5908 86.5564V86.5564Z" fill="#262626"/>
<path d="M58.4842 73.3995L58.5084 83.0719L58.3137 83.2872C55.5604 84.6207 52.2077 85.4032 48.5915 85.4032C45.1097 85.4032 41.8722 84.6778 39.1791 83.434L39.0104 73.4962L40.2457 73.1465C41.7187 72.6079 42.7611 71.2702 42.7611 69.7007V63.934H55.3486V69.7005C55.3486 71.4905 56.7044 72.9809 58.5084 73.3237L58.4842 73.3995Z" fill="#FCE2CD"/>
<path d="M48.5913 86.5572C45.057 86.5572 41.635 85.8393 38.6953 84.4814L38.0374 84.1777L37.8414 72.6275L39.8868 72.0483C40.9331 71.6511 41.607 70.7335 41.607 69.7015V62.7796H56.5027V69.7005C56.5027 70.8984 57.437 71.9452 58.7239 72.1899L60.0049 72.4332L59.6394 73.5782L59.6644 83.5152L59.0194 84.2281L58.8174 84.326C55.8033 85.7856 52.2674 86.5572 48.5913 86.5572V86.5572ZM40.3206 82.674C42.9486 83.7337 45.7587 84.2687 48.5923 84.2488C51.6058 84.275 54.591 83.6663 57.3537 82.4623L57.3329 74.1786C55.4682 73.437 54.1953 71.6811 54.1953 69.7005V65.088H43.9153V69.7005C43.9153 71.7265 42.6301 73.5047 40.6413 74.2305L40.5601 74.2567L40.1794 74.3646L40.3206 82.674Z" fill="#262626"/>
<path d="M49.5374 65.2798C46.1021 65.2798 42.8076 63.9151 40.3785 61.486C37.9494 59.0569 36.5847 55.7624 36.5847 52.3271V43.5688C36.5847 41.9712 36.8993 40.3892 37.5107 38.9132C38.1221 37.4372 39.0182 36.0961 40.1479 34.9664C41.2775 33.8367 42.6187 32.9406 44.0947 32.3293C45.5707 31.7179 47.1526 31.4033 48.7502 31.4033H50.3245C51.9221 31.4033 53.5041 31.7179 54.9801 32.3293C56.4561 32.9407 57.7972 33.8368 58.9268 34.9665C60.0565 36.0961 60.9526 37.4373 61.564 38.9132C62.1754 40.3892 62.49 41.9712 62.49 43.5688V52.3271C62.49 55.7624 61.1253 59.0569 58.6962 61.486C56.2671 63.9151 52.9726 65.2797 49.5374 65.2798V65.2798Z" fill="#FCE2CD"/>
<path d="M49.5371 66.4338C45.7971 66.4296 42.2115 64.942 39.5668 62.2974C36.9222 59.6528 35.4346 56.0672 35.4303 52.3271V43.5688C35.4343 40.0374 36.839 36.6518 39.3361 34.1547C41.8332 31.6577 45.2188 30.2531 48.7502 30.2491H50.3243C53.8557 30.2531 57.2413 31.6577 59.7384 34.1547C62.2354 36.6518 63.64 40.0374 63.644 43.5688V52.3271C63.6398 56.0672 62.1521 59.6528 59.5075 62.2974C56.8629 64.942 53.2772 66.4296 49.5371 66.4338ZM48.7502 32.5584C45.8308 32.5617 43.0319 33.7228 40.9675 35.7872C38.9032 37.8515 37.742 40.6503 37.7387 43.5697V52.3281C37.7387 55.4572 38.9817 58.4582 41.1944 60.6709C43.407 62.8835 46.408 64.1266 49.5371 64.1266C52.6663 64.1266 55.6673 62.8835 57.8799 60.6709C60.0926 58.4582 61.3356 55.4572 61.3356 52.3281V43.5697C61.3324 40.6504 60.1712 37.8515 58.1069 35.7872C56.0426 33.7228 53.2437 32.5617 50.3243 32.5584H48.7502Z" fill="#262626"/>
<path d="M69.2145 79.3643C67.9936 77.6355 66.3951 76.2074 64.5401 75.1884C62.6851 74.1694 60.6224 73.5863 58.5085 73.4832L58.5808 78.8776L58.4981 78.8672L58.4842 73.3987L58.5085 73.3229C56.7045 72.9801 55.3487 71.4897 55.3487 69.6997V63.934H55.2883C57.4511 62.8626 59.2715 61.2081 60.544 59.1571C61.8165 57.1062 62.4905 54.7404 62.49 52.3267V46.5929C58.7101 45.5542 51.9269 43.5813 48.3364 41.8721C45.6123 40.5557 43.1353 38.7798 41.0141 36.6225L38.347 39.758C37.7057 40.5027 37.1423 41.3109 36.6655 42.1701C35.6594 44.0083 35.6369 45.2041 35.6369 45.2041C35.6369 45.2041 33.4419 36.7895 36.4277 32.3012C43.011 22.4033 54.6406 25.4915 59.5853 29.293C67.6588 35.5024 66.0576 44.213 65.7794 46.026L65.6256 49.0533C65.8949 56.2514 67.6052 59.5506 68.9783 64.659C70.2723 69.482 71.1097 74.8037 69.2145 79.3643V79.3643Z" fill="#91693D"/>
<path d="M69.2143 80.5185C69.0299 80.5185 68.8482 80.4742 68.6844 80.3895C68.5206 80.3048 68.3795 80.1821 68.2729 80.0316C67.2759 78.6127 65.9994 77.4126 64.5216 76.5051C63.0439 75.5976 61.3962 75.0019 59.6798 74.7545L59.7348 78.8628C59.737 79.0278 59.7038 79.1912 59.6375 79.3423C59.5712 79.4933 59.4733 79.6284 59.3504 79.7384C59.2274 79.8483 59.0824 79.9307 58.9249 79.9799C58.7675 80.0291 58.6013 80.044 58.4377 80.0235L58.355 80.0134C58.0763 79.9785 57.8199 79.8433 57.6338 79.633C57.4476 79.4227 57.3446 79.1517 57.3439 78.8709L57.3321 74.1786C55.4672 73.437 54.1943 71.6811 54.1943 69.7005V64.3022C54.183 64.268 54.173 64.2331 54.1645 64.1974C54.105 63.9439 54.133 63.6778 54.2439 63.4422C54.3548 63.2067 54.542 63.0156 54.7752 62.8999C56.7499 61.9297 58.412 60.4239 59.5719 58.5543C60.7317 56.6848 61.3426 54.5268 61.3349 52.3267V47.4709C57.4424 46.384 51.2519 44.5387 47.8394 42.9144C45.3759 41.7204 43.1014 40.1706 41.0891 38.3145L39.2253 40.506C38.6356 41.1907 38.1171 41.9335 37.6777 42.7231C36.8454 44.2442 36.7901 45.232 36.7898 45.2418C36.7842 45.5196 36.678 45.786 36.4909 45.9914C36.3037 46.1968 36.0483 46.3272 35.7722 46.3584C35.4944 46.3895 35.2149 46.3193 34.9847 46.1609C34.7546 46.0024 34.5893 45.7662 34.5193 45.4957C34.4243 45.1315 32.2301 36.525 35.4659 31.6622C38.0163 27.8274 41.6069 25.4296 45.849 24.7263C51.3562 23.8143 57.0692 25.9032 60.2878 28.3784C64.1253 31.3298 68.3948 36.7922 66.9423 46.0541L66.9282 46.1445L66.7801 49.0608C66.9802 54.2492 67.9607 57.3755 68.9987 60.6848C69.362 61.8436 69.7379 63.0416 70.0921 64.3589C71.2989 68.857 72.411 74.677 70.2794 79.8058C70.192 80.0165 70.044 80.1966 69.8543 80.3233C69.6645 80.4499 69.4415 80.5176 69.2133 80.5175L69.2143 80.5185ZM59.1608 72.3715C62.8224 72.6848 66.241 74.3333 68.7661 77.0034C69.7223 72.973 68.8207 68.5256 67.8635 64.9585C67.5219 63.687 67.1533 62.5119 66.7969 61.3758C65.7079 57.904 64.6793 54.6238 64.4721 49.0968C64.471 49.0627 64.4721 49.0289 64.4721 48.995L64.626 45.9676C64.628 45.9291 64.632 45.8897 64.6378 45.851L64.6618 45.6971C65.6873 39.1588 63.7423 33.9477 58.8809 30.2087C56.0579 28.0377 51.0499 26.2054 46.2266 27.0041C42.5801 27.6081 39.6064 29.6056 37.388 32.9412C35.9705 35.0721 35.8739 38.2951 36.098 40.8605C36.5107 40.2131 36.968 39.5953 37.4665 39.0115L40.1342 35.8759C40.2401 35.7515 40.3712 35.6509 40.5188 35.5809C40.6664 35.5109 40.8273 35.473 40.9906 35.4698C41.154 35.4666 41.3162 35.4981 41.4665 35.5622C41.6168 35.6264 41.7517 35.7217 41.8624 35.8419C43.8866 37.887 46.243 39.574 48.8314 40.8311C52.3443 42.5033 59.0881 44.4623 62.7951 45.4811C63.0389 45.5481 63.2539 45.6933 63.4072 45.8943C63.5605 46.0954 63.6435 46.3413 63.6434 46.5941V52.3279C63.6525 54.8232 62.9955 57.2757 61.7402 59.4323C60.4849 61.5889 58.6769 63.3714 56.5027 64.5959V69.7009C56.5027 70.8988 57.437 71.9456 58.7239 72.1903C58.8805 72.2199 59.0292 72.2816 59.1608 72.3715Z" fill="#262626"/>
<path d="M43.7828 63.934H42.7611V69.7005C42.7611 71.27 41.7187 72.6087 40.2457 73.1463L39.081 73.4753V73.4668H38.9586C37.0257 73.4644 35.1136 73.8649 33.3441 74.6428C31.5746 75.4206 29.9867 76.5587 28.6816 77.9845C28.6156 77.8777 28.5558 77.7673 28.5023 77.6538C28.1164 76.8613 27.5512 75.1694 27.5634 72.0768C27.5738 69.0951 30.1183 65.28 32.2445 59.8232C33.7675 55.9157 34.8607 42.6891 34.8607 42.6891L36.5852 45.9195V52.3269C36.5848 54.74 37.2584 57.1052 38.5301 59.156C39.8018 61.2068 41.621 62.8617 43.7828 63.934Z" fill="#91693D"/>
<path d="M28.6816 79.1387C28.6473 79.1387 28.6127 79.1373 28.5781 79.1343C28.4015 79.1184 28.2309 79.062 28.0796 78.9695C27.9284 78.877 27.8004 78.7509 27.7057 78.601C27.616 78.4566 27.5347 78.3072 27.4622 78.1534C26.9763 77.1564 26.3969 75.2862 26.4092 72.0722C26.4167 69.8975 27.5139 67.5476 28.9032 64.5725C29.6173 63.0437 30.4263 61.3107 31.1691 59.4044C32.6145 55.6964 33.6986 42.7249 33.7096 42.5943C33.7301 42.3459 33.8304 42.1108 33.9956 41.9241C34.1608 41.7375 34.382 41.6094 34.6261 41.5589C34.8702 41.5084 35.124 41.5382 35.3497 41.644C35.5754 41.7498 35.7608 41.9258 35.8781 42.1457L37.6027 45.376C37.692 45.5433 37.7387 45.73 37.7387 45.9197V52.3271C37.7313 54.5269 38.3421 56.6846 39.5015 58.554C40.6609 60.4235 42.3223 61.9296 44.2962 62.9006C44.5191 63.0113 44.7003 63.1911 44.8126 63.4132C44.925 63.6353 44.9626 63.8878 44.9197 64.133C44.8769 64.3781 44.756 64.6029 44.575 64.7737C44.3939 64.9446 44.1626 65.0523 43.9153 65.0809V69.7009C43.9153 71.7269 42.6301 73.5051 40.6413 74.2309C40.6145 74.2407 40.5872 74.2501 40.5597 74.2572L39.3949 74.5864C39.2472 74.6282 39.0926 74.6401 38.9402 74.6214C37.171 74.6261 35.4219 74.9966 33.8028 75.7097C32.1836 76.4228 30.7295 77.4631 29.5316 78.7651C29.4235 78.8828 29.2922 78.9768 29.1458 79.0411C28.9995 79.1054 28.8414 79.1387 28.6816 79.1387V79.1387ZM35.4303 48.5768C34.9557 52.7163 34.2184 57.9386 33.3201 60.2425C32.5506 62.2191 31.7234 63.9883 30.9948 65.5491C29.7252 68.267 28.7233 70.4138 28.7176 72.0808C28.6871 73.3852 28.8225 74.6881 29.1204 75.9583C31.859 73.6116 35.345 72.319 38.9515 72.313L39.887 72.0487C40.9333 71.6513 41.6069 70.7339 41.6069 69.7019V63.9996C39.6978 62.7111 38.1356 60.9722 37.0583 58.9364C35.981 56.9007 35.4219 54.6309 35.4303 52.3277V48.5768Z" fill="#262626"/>
<path d="M36.5847 42.8234V50.1353C36.0225 50.2887 35.4326 50.3103 34.8607 50.1986C34.2888 50.0868 33.7503 49.8447 33.2872 49.491C32.8241 49.1373 32.4488 48.6816 32.1905 48.1593C31.9322 47.6369 31.7978 47.0621 31.7978 46.4794C31.7978 45.8966 31.9322 45.3218 32.1905 44.7994C32.4488 44.2771 32.8241 43.8214 33.2872 43.4677C33.7503 43.114 34.2888 42.8718 34.8607 42.7601C35.4326 42.6484 36.0225 42.67 36.5847 42.8234V42.8234Z" fill="#FCE2CD"/>
<path d="M35.5832 51.4238C34.8788 51.4229 34.1827 51.2715 33.5416 50.9797C32.9004 50.6878 32.329 50.2624 31.8657 49.7318C31.4024 49.2012 31.0578 48.5777 30.855 47.9031C30.6522 47.2285 30.596 46.5183 30.69 45.8202C30.784 45.1221 31.0261 44.4521 31.4001 43.8552C31.7741 43.2582 32.2714 42.7481 32.8586 42.359C33.4458 41.9699 34.1094 41.7107 34.8049 41.5989C35.5004 41.4871 36.2117 41.5252 36.8913 41.7107L37.7377 41.9445V51.015L36.8913 51.2487C36.4651 51.3657 36.0251 51.4246 35.5832 51.4238V51.4238ZM35.4293 43.8475C34.7553 43.8831 34.1207 44.1758 33.6561 44.6655C33.1916 45.1551 32.9327 45.8043 32.9327 46.4793C32.9327 47.1542 33.1916 47.8034 33.6561 48.293C34.1207 48.7827 34.7553 49.0755 35.4293 49.111V43.8475Z" fill="#262626"/>
<path d="M56.4619 50.7349C57.4052 50.7349 58.1699 49.9702 58.1699 49.0269C58.1699 48.0836 57.4052 47.3189 56.4619 47.3189C55.5186 47.3189 54.7539 48.0836 54.7539 49.0269C54.7539 49.9702 55.5186 50.7349 56.4619 50.7349Z" fill="#262626"/>
<path d="M43.6293 50.9227C44.5726 50.9227 45.3373 50.158 45.3373 49.2147C45.3373 48.2714 44.5726 47.5067 43.6293 47.5067C42.686 47.5067 41.9213 48.2714 41.9213 49.2147C41.9213 50.158 42.686 50.9227 43.6293 50.9227Z" fill="#262626"/>
<path d="M49.5183 59.3555C48.3612 59.3753 47.2365 58.9732 46.3543 58.2243L47.8855 56.4972C48.4613 57.0075 49.4244 57.1813 50.3382 56.9396C51.3054 56.684 52.0695 56.0199 52.2822 55.2468L54.5067 55.8624C54.0716 57.4344 52.7004 58.7017 50.9287 59.1699C50.4686 59.2923 49.9945 59.3547 49.5183 59.3555V59.3555Z" fill="#262626"/>
<path d="M38.9589 73.466C35.3077 73.4666 31.8021 74.8978 29.1939 77.4528C26.5857 80.0078 25.0825 83.4832 25.0067 87.1335H24.9855C24.068 86.0544 16.2964 76.9171 16.2964 76.9171L8.69073 83.317L21.0386 98.8458H39.0785L39.0804 87.1662L39.0824 73.466H38.9589Z" fill="#2FAF94"/>
<path d="M39.0781 100H21.0382C20.8644 100 20.6929 99.961 20.5363 99.8856C20.3798 99.8101 20.2423 99.7003 20.1341 99.5643L7.78661 84.0353C7.59956 83.8001 7.51164 83.5011 7.54157 83.2021C7.57149 82.903 7.71689 82.6274 7.94685 82.4339L15.5529 76.0339C15.7863 75.8374 16.0879 75.7412 16.3919 75.7665C16.6959 75.7917 16.9776 75.9363 17.1753 76.1686L24.1553 84.3756C24.8586 80.9688 26.715 77.9087 29.4115 75.711C32.1081 73.5134 35.4798 72.3127 38.9585 72.3113H39.0816C39.3877 72.3113 39.6813 72.4329 39.8977 72.6493C40.1142 72.8658 40.2358 73.1594 40.2358 73.4655L40.2319 98.8452C40.232 98.9968 40.2022 99.1469 40.1443 99.287C40.0863 99.4271 40.0014 99.5544 39.8942 99.6616C39.7871 99.7688 39.6599 99.8539 39.5198 99.912C39.3798 99.97 39.2297 100 39.0781 100V100ZM21.5951 97.6916H37.9241L37.9276 74.662C31.4805 75.1877 26.294 80.591 26.1607 87.157C26.1545 87.459 26.0302 87.7466 25.8144 87.958C25.5986 88.1694 25.3086 88.2878 25.0065 88.2877H24.9855C24.8182 88.2877 24.653 88.2513 24.5011 88.1811C24.3493 88.1109 24.2145 88.0086 24.106 87.8812L16.1614 78.5393L10.2927 83.4773L21.5951 97.6916Z" fill="#262626"/>
<path d="M88.987 83.317L76.6392 98.8458H58.5069V83.0719L58.5088 73.4826C62.0553 73.6562 65.4021 75.176 67.8667 77.7321C70.3313 80.2882 71.7281 83.6881 71.7723 87.2386L72.6014 87.2405C72.6034 87.2366 81.3809 76.9163 81.3809 76.9163L88.987 83.317Z" fill="#2FAF94"/>
<path d="M88.987 83.317L76.6392 98.8458H58.5069L58.5088 90.5403C62.5869 87.9511 66.4285 84.5962 69.9814 80.5739C71.13 82.6095 71.746 84.9022 71.7723 87.2393L72.6014 87.2412C72.6034 87.2374 81.3809 76.9171 81.3809 76.9171L88.987 83.317Z" fill="#2FAF94"/>
<path d="M76.6392 100H58.5069C58.2008 100 57.9072 99.8784 57.6908 99.662C57.4743 99.4455 57.3527 99.1519 57.3527 98.8458L57.3546 73.4832C57.3547 73.3269 57.3864 73.1723 57.448 73.0287C57.5095 72.8851 57.5996 72.7554 57.7127 72.6477C57.8259 72.5399 57.9597 72.4562 58.1061 72.4017C58.2526 72.3472 58.4086 72.323 58.5646 72.3305C62.0658 72.5015 65.3984 73.8853 67.9908 76.2447C70.5832 78.6041 72.2739 81.792 72.7728 85.2616C73.8968 83.9343 76.1111 81.3318 80.5018 76.1692C80.6996 75.9369 80.9812 75.7923 81.2853 75.7671C81.5893 75.7418 81.8909 75.838 82.1242 76.0345L89.7303 82.4345C89.9631 82.6304 90.1091 82.9103 90.1366 83.2134C90.164 83.5164 90.0707 83.818 89.8769 84.0526L77.5289 99.5816C77.4205 99.7126 77.2846 99.818 77.1308 99.8903C76.977 99.9626 76.8091 100 76.6392 100V100ZM59.6611 97.6916H76.0952L87.3677 83.4636L81.5156 78.5391C79.4338 80.9865 73.6914 87.7387 73.4884 87.9784C73.3801 88.1088 73.2444 88.2138 73.0909 88.2858C72.9375 88.3579 72.77 88.3952 72.6005 88.3952H72.5976L71.7687 88.3933C71.4656 88.3926 71.1749 88.2727 70.9594 88.0595C70.744 87.8463 70.621 87.5569 70.6172 87.2538C70.5791 84.2066 69.4548 81.2731 67.4464 78.9812C65.4381 76.6892 62.6776 75.1893 59.6619 74.7514L59.6611 97.6916Z" fill="#262626"/>
<path d="M22.7322 4.23952H25.0405V13.452H22.7322V4.23952Z" fill="#262626"/>
<path d="M19.2626 9.92947L19.2788 7.6211L28.4913 7.68558L28.4752 9.99396L19.2626 9.92947Z" fill="#262626"/>
<path d="M77.136 8.84587H79.4444V18.0584H77.136V8.84587Z" fill="#262626"/>
<path d="M73.645 14.5325L73.6611 12.2241L82.8736 12.2886L82.8575 14.597L73.645 14.5325Z" fill="#262626"/>
<path d="M85.7036 37.6601H88.0119V46.4937H85.7036V37.6601Z" fill="#262626"/>
<path d="M81.5109 47.671L81.5178 45.3626L91.8504 45.3936L91.8435 47.702L81.5109 47.671Z" fill="#262626"/>
<path d="M92.9213 34.8179C92.8251 34.8179 92.766 34.8141 92.7481 34.8131C92.5957 34.8052 92.4463 34.767 92.3087 34.701C92.171 34.6349 92.0479 34.5421 91.9463 34.4281C91.8448 34.3141 91.7669 34.181 91.7171 34.0367C91.6674 33.8924 91.6467 33.7396 91.6564 33.5872C91.6661 33.4348 91.706 33.2859 91.7736 33.149C91.8413 33.0122 91.9354 32.8901 92.0506 32.7899C92.1658 32.6896 92.2997 32.6133 92.4446 32.5651C92.5895 32.517 92.7425 32.4981 92.8947 32.5096H92.9213C93.1151 32.5065 93.3079 32.4823 93.4964 32.4372C93.6061 32.4124 93.7143 32.3817 93.8206 32.3451C94.5805 32.0753 95.2286 31.5594 95.6619 30.8793C96.4975 29.606 96.9832 28.1352 97.0704 26.6148H92.8693C92.5632 26.6148 92.2697 26.4932 92.0532 26.2767C91.8367 26.0603 91.7151 25.7667 91.7151 25.4606C91.7151 25.1545 91.8367 24.8609 92.0532 24.6444C92.2697 24.428 92.5632 24.3064 92.8693 24.3064H98.2001C98.4972 24.3064 98.7827 24.4209 98.9975 24.6261C99.2123 24.8313 99.3397 25.1113 99.3532 25.4081L99.3853 26.1129C99.4042 28.2676 98.7741 30.3781 97.5771 32.1699C96.8615 33.2655 95.8048 34.0948 94.5704 34.5294C94.3874 34.5923 94.2012 34.6453 94.0126 34.6881C93.6548 34.7718 93.2887 34.8154 92.9213 34.8179V34.8179Z" fill="#262626"/>
<path d="M80.3697 34.8179C80.002 34.8151 79.6359 34.7712 79.278 34.6871C79.0879 34.6438 78.9004 34.5903 78.7161 34.5267C77.484 34.0919 76.4294 33.2634 75.7152 32.1693C74.5164 30.3783 73.8862 28.2672 73.907 26.1121L73.9389 25.4081C73.9524 25.1113 74.0798 24.8313 74.2946 24.6261C74.5093 24.4209 74.7949 24.3064 75.092 24.3064H80.4233C80.7294 24.3064 81.023 24.428 81.2395 24.6444C81.4559 24.8609 81.5775 25.1545 81.5775 25.4606C81.5775 25.7667 81.4559 26.0603 81.2395 26.2767C81.023 26.4932 80.7294 26.6148 80.4233 26.6148H76.2206C76.3074 28.1352 76.7932 29.6059 77.6291 30.8789C78.0613 31.5579 78.7077 32.0734 79.4659 32.3436C79.5732 32.3806 79.6823 32.4118 79.793 32.437C79.9816 32.4822 80.1747 32.5065 80.3687 32.5096H80.3983C80.7023 32.493 81.0006 32.5972 81.2281 32.7995C81.4556 33.0019 81.5939 33.2859 81.613 33.5897C81.6321 33.8936 81.5303 34.1926 81.3299 34.4218C81.1295 34.651 80.8467 34.7917 80.543 34.8133C80.5263 34.8145 80.4666 34.8179 80.3697 34.8179V34.8179Z" fill="#262626"/>
<path d="M80.479 23.2236H92.8693V32.5982C92.8693 33.9407 92.336 35.2282 91.3868 36.1775C90.4375 37.1268 89.15 37.6601 87.8075 37.6601H85.5403C84.1978 37.6601 82.9103 37.1268 81.961 36.1775C81.0117 35.2282 80.4784 33.9407 80.4784 32.5982V23.2236H80.479Z" fill="#FFAA71"/>
<path d="M87.8067 38.8143H85.5403C83.8923 38.8124 82.3123 38.1569 81.1469 36.9916C79.9816 35.8263 79.3261 34.2463 79.3242 32.5982V23.2236C79.3242 22.9175 79.4458 22.6239 79.6623 22.4074C79.8787 22.191 80.1723 22.0694 80.4784 22.0694H92.8694C93.1755 22.0694 93.469 22.191 93.6855 22.4074C93.9019 22.6239 94.0235 22.9175 94.0235 23.2236V32.5982C94.0217 34.2464 93.366 35.8265 92.2006 36.9919C91.0351 38.1572 89.4549 38.8126 87.8067 38.8143V38.8143ZM81.6332 24.3777V32.5982C81.6343 33.6342 82.0463 34.6273 82.7788 35.3599C83.5112 36.0925 84.5044 36.5046 85.5403 36.5059H87.8061C88.8424 36.5051 89.836 36.0932 90.5689 35.3606C91.3017 34.628 91.714 33.6345 91.7152 32.5982V24.3777H81.6332Z" fill="#262626"/>
<path d="M4.28366 29.0684H23.1777V45.8539H4.28366V29.0684Z" fill="#72C5FC"/>
<path d="M23.1777 47.0083H4.28364C3.97753 47.0083 3.68396 46.8867 3.46751 46.6702C3.25106 46.4538 3.12946 46.1602 3.12946 45.8541V29.0684C3.12946 28.7623 3.25106 28.4687 3.46751 28.2522C3.68396 28.0358 3.97753 27.9142 4.28364 27.9142H23.1777C23.4838 27.9142 23.7773 28.0358 23.9938 28.2522C24.2102 28.4687 24.3318 28.7623 24.3318 29.0684V45.8541C24.3318 46.1602 24.2102 46.4538 23.9938 46.6702C23.7773 46.8867 23.4838 47.0083 23.1777 47.0083V47.0083ZM5.43783 44.6999H22.0235V30.2225H5.43783V44.6999Z" fill="#262626"/>
<path d="M23.1777 36.2314H4.28364C3.97753 36.2314 3.68396 36.1098 3.46751 35.8934C3.25106 35.6769 3.12946 35.3834 3.12946 35.0772V29.0684C3.12946 28.7623 3.25106 28.4687 3.46751 28.2522C3.68396 28.0358 3.97753 27.9142 4.28364 27.9142H23.1777C23.4838 27.9142 23.7773 28.0358 23.9938 28.2522C24.2102 28.4687 24.3318 28.7623 24.3318 29.0684V35.0772C24.3318 35.3834 24.2102 35.6769 23.9938 35.8934C23.7773 36.1098 23.4838 36.2314 23.1777 36.2314ZM5.43783 33.9231H22.0235V30.2225H5.43783V33.9231Z" fill="#262626"/>
<path d="M12.5765 29.4591H14.8848V45.4436H12.5765V29.4591Z" fill="#262626"/>
<path d="M14.8627 28.5815L12.5969 28.139C12.6192 28.0236 13.1713 25.2765 15.7576 23.8461C17.0237 23.1458 18.0831 23.1422 18.9343 23.1391C19.7921 23.1362 20.4117 23.1341 21.3271 22.5284L22.6012 24.4534C21.1099 25.44 19.9081 25.4442 18.9422 25.4475C18.2054 25.4502 17.6233 25.4521 16.8747 25.8661C15.2542 26.7631 14.8656 28.5634 14.8627 28.5815V28.5815Z" fill="#262626"/>
<path d="M14.4705 28.3657L12.1621 28.353C12.1621 27.8838 11.9771 26.4466 11.1653 26.0123C10.6586 25.7564 10.1268 25.554 9.57828 25.4081C8.64627 25.1285 7.68253 24.8394 6.90826 23.8582C6.36144 23.1797 6.04478 22.3448 6.00415 21.4744H8.31252V21.4509C8.35049 21.8096 8.49251 22.1493 8.7211 22.4283C9.03043 22.8204 9.43285 22.9544 10.2421 23.1978C10.9388 23.386 11.6136 23.6474 12.2552 23.9776C14.4697 25.1626 14.4714 28.2354 14.4705 28.3657V28.3657Z" fill="#262626"/>
<path d="M38 9.5L51.5 21L64.5 9.5L60 2.5H42.5L38 9.5Z" fill="#D3B6FF" stroke="#262626" stroke-width="2" stroke-linejoin="round"/>
<path d="M38 9H63.5" stroke="#262626" stroke-width="2" stroke-linejoin="round"/>
<path d="M43 3L47 9L51.5 21" stroke="#262626" stroke-width="2" stroke-linejoin="round"/>
<path d="M60 2.5L55 9L51.5 20.5" stroke="#262626" stroke-width="2" stroke-linejoin="round"/>
</g>
<defs>
<clipPath id="clip0_153_1332">
<rect width="100" height="100" fill="white"/>
</clipPath>
</defs>
</svg>
