<svg width="100" height="100" viewBox="0 0 100 100" fill="none" xmlns="http://www.w3.org/2000/svg">
<path d="M89.1591 48.5039C86.8992 41.2811 83.1035 34.5649 77.9572 28.8464L77.4573 28.2899C73.5574 23.958 72.0667 17.968 73.4805 12.3105L66.6942 23.6209C66.6942 23.6209 62.17 30.4072 59.908 39.4556C58.1729 46.3957 46.3354 23.6209 46.3354 23.6209C44.0733 16.8346 33.8939 14.5726 33.8939 14.5726C38.7936 27.1747 36.6107 41.4304 28.1663 51.9898L27.9559 52.2545C25.2097 55.6838 23.7145 59.9456 23.7145 64.3386C23.7145 83.0778 38.9067 98.27 57.6459 98.27C76.385 98.27 91.5773 83.0778 91.5773 64.3386C91.5773 62.0584 91.4302 59.7918 91.1407 57.5523" fill="#F98600"/>
<path d="M89.1591 48.5039C86.8992 41.2811 83.1035 34.5649 77.9572 28.8464L77.4573 28.2899C73.5574 23.958 72.0667 17.968 73.4805 12.3105L66.6942 23.6209C66.6942 23.6209 62.17 30.4072 59.908 39.4556C58.1729 46.3957 46.3354 23.6209 46.3354 23.6209C44.0733 16.8346 33.8939 14.5726 33.8939 14.5726C38.7936 27.1747 36.6107 41.4304 28.1663 51.9898L27.9559 52.2545C25.2097 55.6838 23.7145 59.9456 23.7145 64.3386C23.7145 83.0778 38.9067 98.27 57.6459 98.27C76.385 98.27 91.5773 83.0778 91.5773 64.3386C91.5773 62.0584 91.4302 59.7918 91.1407 57.5523" stroke="#262626" stroke-width="2" stroke-linecap="round" stroke-linejoin="round"/>
<path d="M55.5671 7.65055L52.2419 1L50.4593 9.91491C50.1426 11.5006 49.5545 13.0185 48.7243 14.4029L48.3465 15.0318C45.261 20.1735 45.7655 26.7042 49.6043 31.312L54.504 37.1935L53.3118 31.2283C52.6242 27.79 53.2417 24.2181 55.0469 21.2095C57.5261 17.0767 57.7229 11.9621 55.5671 7.65055V7.65055Z" fill="#F99A2A" stroke="#262626" stroke-width="2" stroke-linecap="round" stroke-linejoin="round"/>
<path d="M69.2932 81.8811C77.1495 79.524 82.5287 72.2944 82.5287 64.092V62.0765L79.3663 64.4472C76.3012 66.7455 71.9014 65.7072 70.189 62.2801C69.4041 60.7102 69.3294 58.8824 69.9809 57.2537L73.5663 48.2913C76.1248 41.8941 73.6636 34.5875 67.755 31.0428L66.6941 30.4072C69.395 35.8113 68.3364 42.3375 64.0655 46.6083L54.1485 56.5253C48.4797 62.1941 48.1766 71.2877 53.4563 77.323C57.3856 81.8155 63.5769 83.5958 69.2932 81.8811V81.8811Z" fill="#F35142" stroke="#262626" stroke-width="2" stroke-linecap="round" stroke-linejoin="round"/>
<path d="M16.8899 51.0194C19.869 47.2281 20.7038 42.1792 19.1045 37.6323L16.6388 30.6176L13.7523 39.2407C13.2388 40.7721 12.4675 42.2063 11.4676 43.4776L11.0129 44.0544C7.30764 48.7686 6.99095 55.3129 10.2235 60.3641L14.3473 66.8111L13.9107 60.7441C13.6619 57.2424 14.7228 53.7769 16.8899 51.0194V51.0194Z" fill="#F99A2A" stroke="#262626" stroke-width="2" stroke-linecap="round" stroke-linejoin="round"/>
</svg>
