<svg width="164" height="158" viewBox="0 0 164 158" fill="none" xmlns="http://www.w3.org/2000/svg">
<g clip-path="url(#clip0_199_1516)">
<path d="M73.0307 30.0214L69.9855 24.747L73.4255 22.761L76.4706 28.0353L73.0307 30.0214ZM86.5563 22.2154L83.5112 16.941L80.0712 18.9271L83.1163 24.2014L86.5563 22.2154ZM96.6429 16.3919L93.5978 11.1175L90.1578 13.1036L93.203 18.3779L96.6429 16.3919ZM120.012 48.1317L88.8373 66.1305C87.3826 66.9703 85.5174 66.4706 84.6775 65.0159L66.6788 33.8411C65.8389 32.3864 66.3387 30.5212 67.7934 29.6814L69.5133 28.6883L72.1597 33.2719L79.7258 28.9036L77.0795 24.32L79.6 22.8648L82.2463 27.4484L89.8124 23.0801L87.1661 18.4965L89.6866 17.0413L92.3329 21.6249L99.8991 17.2566L97.2527 12.673L98.9727 11.68C100.427 10.8401 102.293 11.3399 103.132 12.7946L121.131 43.9693C121.971 45.424 121.471 47.2892 120.017 48.1291L120.012 48.1317ZM101.357 45.2521C101.784 43.6575 101.716 42.2511 101.161 41.035C100.6 39.8215 99.5106 38.6788 97.8879 37.606C97.4802 37.3382 97.0705 37.0776 96.6507 36.8259C96.2309 36.5743 95.8639 36.3135 95.5469 36.0391C95.2334 35.7656 94.9973 35.4781 94.8384 35.1764C94.6795 34.8748 94.6498 34.5381 94.7494 34.1666C94.8934 33.629 95.2341 33.2524 95.7677 33.0358C96.305 32.8201 96.9231 32.8079 97.6302 32.9973C98.1858 33.1462 98.7321 33.4163 99.2655 33.8067C99.7989 34.1971 100.295 34.7128 100.761 35.3558L104.074 31.677C103.184 30.843 102.211 30.1299 101.156 29.5377C100.1 28.9456 99.0529 28.5103 98.0139 28.2319C96.8991 27.9332 95.848 27.8294 94.8598 27.9242C93.868 28.0181 92.9847 28.2841 92.1991 28.7194C91.4171 29.1556 90.7394 29.7512 90.1704 30.5036C89.6015 31.2559 89.176 32.1512 88.8976 33.1902C88.6192 34.2292 88.5515 35.1314 88.6944 35.8966C88.8374 36.6619 89.1133 37.3352 89.5237 37.9246C89.9352 38.5105 90.441 39.0327 91.0477 39.4814C91.6535 39.9337 92.2768 40.3637 92.924 40.7768C93.4642 41.142 93.92 41.4613 94.294 41.7394C94.668 42.0175 94.9588 42.2888 95.1664 42.5532C95.3739 42.8176 95.5045 43.0807 95.5499 43.3442C95.5999 43.6051 95.5805 43.8938 95.4954 44.2113C95.3562 44.7308 95.0115 45.1372 94.4693 45.4289C93.9235 45.7196 93.2046 45.7473 92.3135 45.5086C91.5342 45.2998 90.7915 44.9113 90.0889 44.3441C89.3863 43.7769 88.7222 43.0228 88.1012 42.0792L84.585 45.8506C86.4282 48.0343 88.6734 49.4827 91.3287 50.1942C92.6094 50.5373 93.8031 50.6716 94.9051 50.5995C96.0071 50.5274 96.9917 50.2731 97.8542 49.8392C98.7168 49.4052 99.4472 48.8005 100.042 48.0241C100.637 47.2477 101.078 46.3219 101.366 45.2468L101.357 45.2521Z" fill="#30B396"/>
</g>
<path d="M93.2144 121.502C95.4224 118.623 96.6219 115.098 96.6278 111.47L96.6278 115.501C96.6212 119.098 95.4417 122.594 93.2682 125.459L93.2682 121.549L93.2144 121.502Z" fill="#E2B338" stroke="#262626" stroke-width="1.2" stroke-linejoin="round"/>
<path d="M93.2686 121.549L93.2686 125.459C92.3083 126.746 91.178 127.896 89.909 128.879L89.909 124.908L89.8755 124.868C91.1337 123.9 92.2567 122.767 93.2148 121.502L93.2686 121.549Z" fill="#FFC52F" stroke="#262626" stroke-width="1.2" stroke-linejoin="round"/>
<path d="M77.8138 94C88.2017 94 96.6277 101.821 96.6277 111.47C96.6218 115.098 95.4223 118.623 93.2143 121.502C92.2562 122.768 91.1332 123.9 89.875 124.868C88.8441 125.678 87.729 126.374 86.5488 126.944C85.2618 127.572 83.91 128.056 82.5173 128.389C79.4247 129.124 76.2029 129.124 73.1104 128.389C71.7176 128.056 70.3659 127.572 69.0788 126.944C67.8987 126.374 66.7835 125.678 65.7527 124.868C64.4945 123.9 63.3714 122.768 62.4134 121.502C60.2054 118.623 59.0059 115.098 59 111.47C59 101.821 67.4259 94 77.8138 94V94Z" fill="#FFD15A" stroke="#262626" stroke-width="1.2" stroke-linejoin="round"/>
<path d="M89.9089 124.908L89.9089 128.879C88.8702 129.695 87.7462 130.396 86.5559 130.969L86.5493 130.956L86.5493 126.944C87.7294 126.374 88.8446 125.678 89.8755 124.868L89.9089 124.908Z" fill="#E2B338" stroke="#262626" stroke-width="1.2" stroke-linejoin="round"/>
<path d="M86.5486 130.956L86.5552 130.969C85.2753 131.597 83.9302 132.081 82.544 132.414L82.5171 132.299L82.5171 128.389C83.9098 128.056 85.2615 127.572 86.5486 126.944L86.5486 130.956Z" fill="#FFC52F" stroke="#262626" stroke-width="1.2" stroke-linejoin="round"/>
<path d="M82.5443 132.414C80.9948 132.785 79.4072 132.972 77.814 132.972L77.814 128.94C79.398 128.943 80.9771 128.758 82.5174 128.389L82.5174 132.3L82.5443 132.414Z" fill="#E2B338" stroke="#262626" stroke-width="1.2" stroke-linejoin="round"/>
<path d="M77.8134 128.94L77.8134 132.972C76.2202 132.972 74.6326 132.785 73.083 132.414L73.1099 132.3L73.1099 128.389C74.6503 128.758 76.2294 128.943 77.8134 128.94V128.94Z" fill="#FFC52F" stroke="#262626" stroke-width="1.2" stroke-linejoin="round"/>
<path d="M73.1104 128.389L73.1104 132.299L73.0835 132.414C71.6973 132.081 70.3521 131.597 69.0723 130.969L69.0788 130.956L69.0788 126.944C70.3659 127.572 71.7176 128.056 73.1104 128.389V128.389Z" fill="#E2B338" stroke="#262626" stroke-width="1.2" stroke-linejoin="round"/>
<path d="M65.7527 124.868C66.7836 125.678 67.8987 126.374 69.0789 126.944L69.0789 130.956L69.0723 130.969C67.8836 130.394 66.7596 129.693 65.7192 128.879L65.7192 124.908L65.7527 124.868Z" fill="#FFC52F" stroke="#262626" stroke-width="1.2" stroke-linejoin="round"/>
<path d="M62.4132 121.502C63.3712 122.767 64.4942 123.9 65.7525 124.868L65.719 124.908L65.719 128.879C64.4499 127.896 63.3197 126.746 62.3594 125.459L62.3594 121.549L62.4132 121.502Z" fill="#E2B338" stroke="#262626" stroke-width="1.2" stroke-linejoin="round"/>
<path d="M59 111.47C59.0059 115.098 60.2054 118.623 62.4134 121.502L62.3596 121.549L62.3596 125.459C60.186 122.594 59.0066 119.098 59 115.501L59 111.47Z" fill="#FFC52F" stroke="#262626" stroke-width="1.2" stroke-linejoin="round"/>
<path d="M92.5963 111.47C92.5963 104.048 85.9782 98.0313 77.814 98.0313C69.6499 98.0313 63.0317 104.048 63.0317 111.47C63.0317 118.892 69.6499 124.908 77.814 124.908C85.9782 124.908 92.5963 118.892 92.5963 111.47Z" fill="#E2B338" stroke="#262626" stroke-width="1.2" stroke-linejoin="round"/>
<path d="M78.6155 119.459C80.6513 119.459 82.3395 118.599 83.6802 117.083L81.6195 115.364C80.8499 116.314 79.981 116.857 78.8141 116.857C77.0514 116.857 75.8597 115.635 75.3631 113.485L80.5023 113.485L80.5023 111.743L75.1149 111.743C75.09 111.494 75.09 111.223 75.09 110.951C75.09 110.747 75.09 110.544 75.09 110.363L81.6444 110.363L81.6444 108.62L75.3135 108.62C75.7852 106.403 76.9769 105.113 78.8141 105.113C79.8568 105.113 80.6513 105.588 81.3713 106.335L83.4071 104.524C82.265 103.28 80.6265 102.51 78.9382 102.51C75.2142 102.51 72.4336 104.751 71.6391 108.643L69.8516 108.756L69.8516 110.363L71.4405 110.363C71.4157 110.589 71.4157 110.815 71.4157 111.064C71.4157 111.313 71.4157 111.539 71.4405 111.788L69.8516 111.901L69.8516 113.485L71.6391 113.485C72.4336 117.355 75.1397 119.459 78.6155 119.459Z" fill="#262626"/>
<path d="M131.017 97.4201C133.895 95.2107 135.966 92.1163 136.91 88.6134L135.867 92.5076C134.93 95.9799 132.886 99.0516 130.045 101.257L131.057 97.4793L131.017 97.4201Z" fill="#E2B338" stroke="#262626" stroke-width="1.2" stroke-linejoin="round"/>
<path d="M131.057 97.4794L130.045 101.257C128.785 102.251 127.395 103.07 125.915 103.691L126.943 99.855L126.921 99.8074C128.387 99.1978 129.765 98.3949 131.017 97.4202L131.057 97.4794Z" fill="#FFC52F" stroke="#262626" stroke-width="1.2" stroke-linejoin="round"/>
<path d="M123.259 66.8694C133.293 69.558 139.408 79.2935 136.91 88.6135C135.966 92.1163 133.895 95.2107 131.017 97.4201C129.764 98.3948 128.386 99.1978 126.92 99.8073C125.715 100.323 124.457 100.707 123.17 100.952C121.764 101.225 120.333 101.343 118.902 101.304C115.725 101.213 112.612 100.379 109.815 98.8694C108.556 98.1876 107.376 97.3696 106.295 96.4303C105.303 95.5744 104.406 94.6133 103.62 93.564C102.655 92.3032 101.863 90.9189 101.266 89.4483C99.8779 86.0959 99.6316 82.3806 100.565 78.8747C103.062 69.5548 113.225 64.1808 123.259 66.8694V66.8694Z" fill="#FFD15A" stroke="#262626" stroke-width="1.2" stroke-linejoin="round"/>
<path d="M126.942 99.8553L125.914 103.691C124.7 104.21 123.433 104.596 122.135 104.842L122.132 104.827L123.17 100.952C124.458 100.707 125.715 100.323 126.92 99.8076L126.942 99.8553Z" fill="#E2B338" stroke="#262626" stroke-width="1.2" stroke-linejoin="round"/>
<path d="M122.132 104.827L122.135 104.842C120.736 105.117 119.311 105.236 117.886 105.199L117.89 105.082L118.902 101.304C120.333 101.343 121.764 101.225 123.17 100.952L122.132 104.827Z" fill="#FFC52F" stroke="#262626" stroke-width="1.2" stroke-linejoin="round"/>
<path d="M117.886 105.198C116.294 105.156 114.712 104.926 113.173 104.513L114.216 100.619C115.746 101.032 117.319 101.262 118.902 101.304L117.89 105.081L117.886 105.198Z" fill="#E2B338" stroke="#262626" stroke-width="1.2" stroke-linejoin="round"/>
<path d="M114.216 100.618L113.172 104.513C111.633 104.101 110.148 103.509 108.747 102.75L108.803 102.646L109.815 98.869C111.207 99.6239 112.685 100.211 114.216 100.618V100.618Z" fill="#FFC52F" stroke="#262626" stroke-width="1.2" stroke-linejoin="round"/>
<path d="M109.816 98.8695L108.803 102.647L108.748 102.75C107.495 102.07 106.321 101.254 105.247 100.317L105.257 100.305L106.295 96.4304C107.376 97.3698 108.556 98.1877 109.816 98.8695V98.8695Z" fill="#E2B338" stroke="#262626" stroke-width="1.2" stroke-linejoin="round"/>
<path d="M103.62 93.5641C104.406 94.6133 105.303 95.5744 106.295 96.4303L105.257 100.305L105.247 100.316C104.248 99.453 103.343 98.4855 102.549 97.4303L103.577 93.5944L103.62 93.5641Z" fill="#FFC52F" stroke="#262626" stroke-width="1.2" stroke-linejoin="round"/>
<path d="M101.265 89.448C101.863 90.9186 102.655 92.3029 103.62 93.5638L103.577 93.5941L102.549 97.4299C101.578 96.1517 100.784 94.7478 100.189 93.2566L101.201 89.4794L101.265 89.448Z" fill="#E2B338" stroke="#262626" stroke-width="1.2" stroke-linejoin="round"/>
<path d="M100.565 78.8748C99.6317 82.3807 99.8779 86.096 101.266 89.4483L101.201 89.4797L100.189 93.2569C98.8314 89.9268 98.597 86.2446 99.5215 82.7689L100.565 78.8748Z" fill="#FFC52F" stroke="#262626" stroke-width="1.2" stroke-linejoin="round"/>
<path d="M133.017 87.5702C134.938 80.4011 130.102 72.8767 122.216 70.7637C114.33 68.6507 106.38 72.7492 104.459 79.9183C102.538 87.0874 107.374 94.6118 115.26 96.7248C123.146 98.8378 131.096 94.7393 133.017 87.5702Z" fill="#E2B338" stroke="#262626" stroke-width="1.2" stroke-linejoin="round"/>
<path d="M114.873 91.9537L118.064 92.8087L118.966 89.4427L123.206 90.5789L123.64 88.9614L119.399 87.8252L119.78 86.4045L124.02 87.5407L124.454 85.9232L120.913 84.9744L128.244 78.2475L124.528 77.2518L121.507 80.6591C120.314 82.0497 119.86 82.6074 118.91 83.6179L118.801 83.5886C118.527 82.2502 118.395 81.6057 118.032 79.7279L117.097 75.2605L113.315 74.2473L116.279 83.7328L112.76 82.7899L112.327 84.4073L116.589 85.5494L116.208 86.9701L111.946 85.8281L111.513 87.4455L115.775 88.5876L114.873 91.9537Z" fill="#262626"/>
<path d="M66.3812 69.5241C66.8539 65.9268 66.1302 62.2744 64.3213 59.1295L66.3371 62.6209C68.1297 65.7388 68.8563 69.3563 68.4065 72.9244L66.4513 69.5378L66.3812 69.5241Z" fill="#E2B338" stroke="#262626" stroke-width="1.2" stroke-linejoin="round"/>
<path d="M66.4517 69.5377L68.4069 72.9243C68.2185 74.5185 67.815 76.0801 67.2076 77.5661L65.222 74.127L65.1728 74.1088C65.7784 72.6412 66.1849 71.0992 66.3816 69.524L66.4517 69.5377Z" fill="#FFC52F" stroke="#262626" stroke-width="1.2" stroke-linejoin="round"/>
<path d="M39.2933 53.407C48.2894 48.2131 59.4972 50.7735 64.3215 59.1296C66.1304 62.2745 66.8541 65.9269 66.3814 69.5242C66.1846 71.0994 65.7781 72.6414 65.1726 74.109C64.6849 75.326 64.0672 76.4865 63.3301 77.5701C62.5293 78.7572 61.6009 79.8527 60.5611 80.8372C58.2502 83.0196 55.46 84.6305 52.4145 85.5406C51.042 85.9489 49.6291 86.2051 48.2007 86.3051C46.8937 86.4016 45.5798 86.3563 44.2821 86.1702C42.7083 85.9608 41.1696 85.5418 39.7071 84.9246C36.3554 83.5354 33.5541 81.0824 31.735 77.9434C26.9106 69.5874 30.2971 58.601 39.2933 53.407V53.407Z" fill="#FFD15A" stroke="#262626" stroke-width="1.2" stroke-linejoin="round"/>
<path d="M65.2222 74.1271L67.2078 77.5662C66.7162 78.7922 66.093 79.9609 65.3487 81.0524L65.3363 81.044L63.3305 77.57C64.0676 76.4864 64.6853 75.3258 65.173 74.1089L65.2222 74.1271Z" fill="#E2B338" stroke="#262626" stroke-width="1.2" stroke-linejoin="round"/>
<path d="M65.336 81.044L65.3485 81.0524C64.5539 82.2359 63.6311 83.3278 62.5969 84.309L62.5166 84.2236L60.5613 80.837C61.6011 79.8525 62.5294 78.757 63.3303 77.5699L65.336 81.044Z" fill="#FFC52F" stroke="#262626" stroke-width="1.2" stroke-linejoin="round"/>
<path d="M62.5972 84.3092C61.441 85.4056 60.1596 86.3614 58.7795 87.1574L56.7637 83.666C58.137 82.8766 59.412 81.9268 60.5616 80.8372L62.5168 84.2238L62.5972 84.3092Z" fill="#E2B338" stroke="#262626" stroke-width="1.2" stroke-linejoin="round"/>
<path d="M56.7632 83.6663L58.7789 87.1577C57.3995 87.9549 55.9311 88.5867 54.4034 89.0399L54.3696 88.9276L52.4144 85.541C53.9328 85.0902 55.3928 84.4609 56.7632 83.6663V83.6663Z" fill="#FFC52F" stroke="#262626" stroke-width="1.2" stroke-linejoin="round"/>
<path d="M52.4149 85.5404L54.3701 88.9269L54.4039 89.0393C53.0371 89.4442 51.63 89.6974 50.2078 89.7938L50.2068 89.7789L48.201 86.3048C49.6295 86.2048 51.0424 85.9486 52.4149 85.5404V85.5404Z" fill="#E2B338" stroke="#262626" stroke-width="1.2" stroke-linejoin="round"/>
<path d="M44.2824 86.1703C45.5802 86.3564 46.894 86.4017 48.201 86.3052L50.2068 89.7793L50.2078 89.7942C48.8907 89.8902 47.567 89.8456 46.2592 89.6611L44.2736 86.222L44.2824 86.1703Z" fill="#FFC52F" stroke="#262626" stroke-width="1.2" stroke-linejoin="round"/>
<path d="M39.7072 84.9245C41.1698 85.5417 42.7085 85.9607 44.2822 86.1701L44.2734 86.2218L46.259 89.6609C44.6683 89.4439 43.1142 89.0125 41.6393 88.3786L39.6841 84.992L39.7072 84.9245Z" fill="#E2B338" stroke="#262626" stroke-width="1.2" stroke-linejoin="round"/>
<path d="M31.7349 77.9434C33.554 81.0823 36.3552 83.5353 39.7069 84.9246L39.6838 84.9921L41.639 88.3787C38.3241 86.9841 35.5546 84.5461 33.7506 81.4348L31.7349 77.9434Z" fill="#FFC52F" stroke="#262626" stroke-width="1.2" stroke-linejoin="round"/>
<path d="M60.8303 61.1451C57.1193 54.7174 48.3795 52.8161 41.3092 56.8982C34.2388 60.9802 31.5156 69.4997 35.2266 75.9274C38.9376 82.355 47.6773 84.2563 54.7476 80.1743C61.818 76.0922 64.5413 67.5727 60.8303 61.1451Z" fill="#E2B338" stroke="#262626" stroke-width="1.2" stroke-linejoin="round"/>
<path d="M52.2733 77.8486L54.552 76.533L53.3493 74.4498C55.7682 72.5265 56.3324 70.2612 55.2023 68.3038C52.8798 64.2811 46.0795 68.6622 44.7939 66.4354C44.2236 65.4477 44.6929 64.5063 46.0509 63.7223C47.2248 63.0445 48.2711 62.9432 49.6088 63.0808L50.4412 60.5889C48.9745 60.3343 47.4377 60.3835 45.6768 61.1607L44.4948 59.1134L42.2161 60.4291L43.4188 62.5122C41.2094 64.2667 40.4909 66.4774 41.621 68.4349C43.788 72.1881 50.6608 67.9328 52.0605 70.3571C52.6515 71.3807 52.2364 72.3627 50.6252 73.2929C49.3132 74.0504 47.834 74.3058 46.1223 74.2645L45.6526 76.9061C47.3702 77.0638 49.4639 76.5973 51.1121 75.8373L52.2733 77.8486Z" fill="#262626"/>
<path d="M40.3008 144.851L60.3233 152.304C62.0239 152.937 63.8238 153.261 65.6382 153.261H86.273C89.1608 153.261 91.989 152.44 94.4282 150.895L120.265 134.523C121.97 133.009 122.286 130.465 121.003 128.581C119.6 126.519 117.279 126.16 114.725 127.368L89.57 138.444L89.5997 134.363C89.2667 131.013 86.6874 128.324 83.3543 127.853L68.0359 126.089C64.5023 125.589 62.7364 124.405 59.6559 122.603C55.4502 120.142 50.6654 118.846 45.793 118.846H40.3008V144.851V144.851Z" fill="#FFDDCE"/>
<path d="M40.3008 144.851L60.3233 152.304C62.0239 152.937 63.8238 153.261 65.6382 153.261H86.273C89.1608 153.261 91.989 152.44 94.4282 150.895L120.265 134.523C121.97 133.009 122.286 130.465 121.003 128.581C119.6 126.519 117.279 126.16 114.725 127.368L89.57 138.444L89.5997 134.363C89.2667 131.013 86.6874 128.324 83.3543 127.853L68.0359 126.089C64.5023 125.589 62.7364 124.405 59.6559 122.603C55.4502 120.142 50.6654 118.846 45.793 118.846H40.3008V144.851V144.851Z" fill="#FFDDCE"/>
<path d="M121.003 128.581C119.6 126.519 117.279 126.161 114.725 127.368L107.806 130.415C108.141 130.945 108.407 131.369 108.407 131.369C109.69 133.253 109.374 135.797 107.669 137.311L92.6146 146.85C90.6318 147.758 88.4699 148.234 86.273 148.234H65.6382C63.8238 148.234 62.0238 147.91 60.3233 147.277L40.3008 139.824V144.852L60.3233 152.304C62.0239 152.937 63.8238 153.261 65.6382 153.261H82.4971H86.273C89.1608 153.261 91.989 152.441 94.4282 150.895L120.265 134.523C121.97 133.01 122.286 130.466 121.003 128.581V128.581Z" fill="#FFCBBE"/>
<path d="M87.7219 130.158L87.7212 130.257L87.7861 130.228C87.7653 130.205 87.7433 130.182 87.7219 130.158V130.158Z" fill="#F5DBCC"/>
<path d="M40.3008 144.851L60.3233 152.304C62.0239 152.937 63.8238 153.261 65.6382 153.261H86.273C89.1608 153.261 91.989 152.44 94.4282 150.895L120.265 134.523C121.97 133.009 122.286 130.465 121.003 128.581C119.6 126.519 117.279 126.16 114.725 127.368L89.57 138.444L89.5997 134.363C89.2667 131.013 86.6874 128.324 83.3543 127.853L68.0359 126.089C64.5023 125.589 62.7364 124.405 59.6559 122.603C55.4502 120.142 50.6654 118.846 45.793 118.846H40.3008V144.851V144.851Z" stroke="#262626" stroke-width="1.2" stroke-linejoin="round"/>
<path d="M44.6095 148.84C44.6095 150.292 43.4318 151.47 41.979 151.47H35.6305C34.1778 151.47 33 150.292 33 148.84V116.63C33 115.178 34.1778 114 35.6305 114H41.979C43.4318 114 44.6095 115.178 44.6095 116.63V148.84Z" fill="#407093" stroke="#262626" stroke-width="1.2" stroke-linejoin="round"/>
<path d="M89.859 138.444C88.5267 139.015 84.6058 140.042 79.5811 139.586" stroke="black" stroke-width="1.2" stroke-linecap="round" stroke-linejoin="round"/>
<defs>
<clipPath id="clip0_199_1516">
<rect width="57" height="57" fill="white" transform="translate(73.7524 4) rotate(15)"/>
</clipPath>
</defs>
</svg>
