<svg width="500" height="360" viewBox="0 0 500 360" fill="none" xmlns="http://www.w3.org/2000/svg">
<g clip-path="url(#clip0_177_1813)">
<path d="M391.346 322.558C380.951 327.942 371.379 328.969 364.23 329.671C342.552 331.796 329.081 326.516 317.331 324.586C273.639 317.405 260.273 357.607 209.91 355.185C183.909 353.933 164.884 342.132 158.081 337.798C139.301 325.839 130.189 311.621 114.35 287.155C101.935 267.978 89.6826 248.639 84.5867 220.614C82.379 208.471 82.2221 198.591 82.0397 187.056C81.6542 162.733 81.4618 150.572 87.1999 136.067C94.2354 118.286 106.1 107.248 114.498 99.4361C126.394 88.3687 137.567 82.2617 143.474 79.0835C145.213 78.1478 146.902 77.2392 148.566 76.3641C153.159 73.9473 157.562 71.7853 162.265 70.0284L162.267 70.0271C163.766 69.467 165.296 68.9476 166.872 68.4748C167.229 68.3686 167.588 68.2636 167.95 68.1609C169.354 67.7645 170.796 67.4039 172.288 67.085C173.427 66.8394 174.596 66.6187 175.798 66.4218C177.911 66.0754 179.803 65.8614 181.522 65.7425C194.09 64.8719 197.479 69.1405 211.334 65.3288C225.215 61.5094 235.665 53.4159 236.879 52.4605C239.47 50.4173 243.627 46.8279 247.921 42.5482C253.617 36.8696 255.924 33.5939 261.717 29.2266C261.717 29.2266 265.224 26.583 269.398 24.2505C277.932 19.4809 293.974 15.5855 311.856 17.314C333.904 19.4468 351.221 29.3983 362.435 37.7384L362.436 37.7394C367.888 41.7924 371.897 45.4644 374.307 47.6724C378.682 51.6788 382.434 55.7067 385.646 59.6317C385.895 59.9324 386.137 60.2328 386.377 60.5318C386.45 60.6226 386.523 60.7135 386.595 60.8049C387.163 61.5205 387.715 62.2296 388.249 62.9358C388.259 62.9497 388.268 62.9616 388.279 62.9755C388.615 63.4195 388.944 63.8634 389.266 64.3043C389.47 64.5828 389.67 64.8613 389.869 65.1393C390.93 66.619 391.915 68.0741 392.83 69.4978C392.996 69.7571 393.161 70.0161 393.323 70.2727C394.817 72.6441 396.113 74.9232 397.237 77.0712C397.56 77.6871 397.868 78.2941 398.162 78.8887C402.175 86.9804 403.659 92.9575 404.04 94.7492C404.677 97.734 404.888 100.164 404.888 100.164C405.12 103.189 404.22 109.254 402.421 121.385C400.832 132.108 400.265 132.435 399.941 136.771C399.672 140.373 399.361 149.505 405.231 165.7C409.947 178.71 415.771 188.336 418.361 192.367C418.637 192.797 418.877 193.164 419.065 193.453C419.306 193.819 419.485 194.087 419.487 194.091C419.752 194.49 438.827 229.649 429.283 269.059C428.843 270.881 428.341 272.709 427.772 274.546C427.083 276.781 426.292 279.024 425.399 281.272C424.651 283.155 423.827 285.04 422.923 286.924C422.522 287.759 422.108 288.594 421.675 289.429C421.539 289.692 421.401 289.955 421.262 290.22C421.022 290.672 420.779 291.124 420.529 291.576C416.032 299.737 407.953 313.955 391.344 322.559L391.346 322.558Z" fill="#EBFFFB"/>
<path d="M224.569 54.5039C238.998 47.8514 255.073 30.786 249.99 17.2264C245.378 4.92821 225.011 -0.0857256 210.492 4.96588C189.357 12.3195 178.308 41.8097 187.116 53.3081C194.055 62.3666 212.999 59.839 224.569 54.5039V54.5039Z" fill="#EBFFFB"/>
<path d="M416.46 112.993C404.083 118.652 404.749 140.455 404.821 142.798C405.206 155.379 410.831 164.103 415.974 172.082C420.224 178.674 423.414 181.296 426.51 182.969C428.147 183.854 434.879 187.49 441.635 185.333C449.884 182.698 453.082 173.047 454.283 169.422C461.18 148.604 449.597 119.687 430.714 113.174C428.633 112.456 422.364 110.293 416.46 112.993Z" fill="#EBFFFB"/>
<path d="M98.5056 139.322L101.492 141.091C101.7 141.216 101.693 141.521 101.471 141.632L98.3739 143.193C96.5445 144.116 95.02 145.538 93.9806 147.3L92.2135 150.29C92.0888 150.498 91.7839 150.491 91.673 150.269L90.1139 147.168C89.1923 145.336 87.7717 143.81 86.0116 142.77L83.018 141.001C82.8101 140.876 82.8171 140.571 83.0388 140.46L86.1363 138.899C87.9657 137.976 89.4902 136.554 90.5297 134.792L92.2967 131.802C92.4214 131.594 92.7263 131.601 92.8372 131.823L94.3964 134.924C95.318 136.755 96.7386 138.281 98.4987 139.322H98.5056Z" fill="white"/>
<path d="M402.506 246.322L405.492 248.091C405.7 248.216 405.693 248.521 405.472 248.632L402.374 250.193C400.545 251.116 399.02 252.538 397.981 254.3L396.214 257.29C396.089 257.498 395.784 257.491 395.673 257.269L394.114 254.168C393.192 252.336 391.772 250.81 390.012 249.77L387.018 248.001C386.81 247.876 386.817 247.571 387.039 247.46L390.136 245.899C391.966 244.976 393.49 243.554 394.53 241.792L396.297 238.802C396.421 238.594 396.726 238.601 396.837 238.823L398.396 241.924C399.318 243.755 400.739 245.281 402.499 246.322H402.506Z" fill="white"/>
<path d="M391.506 120.322L394.492 122.091C394.7 122.216 394.693 122.521 394.472 122.632L391.374 124.193C389.545 125.116 388.02 126.538 386.981 128.3L385.214 131.29C385.089 131.498 384.784 131.491 384.673 131.269L383.114 128.168C382.192 126.336 380.772 124.81 379.012 123.77L376.018 122.001C375.81 121.876 375.817 121.571 376.039 121.46L379.136 119.899C380.966 118.976 382.49 117.554 383.53 115.792L385.297 112.802C385.421 112.594 385.726 112.601 385.837 112.823L387.396 115.924C388.318 117.755 389.739 119.281 391.499 120.322H391.506Z" fill="white"/>
<path d="M292.506 39.3219L295.492 41.0909C295.7 41.2157 295.693 41.521 295.471 41.632L292.374 43.1929C290.545 44.1155 289.02 45.5377 287.981 47.2997L286.214 50.2897C286.089 50.4978 285.784 50.4909 285.673 50.2689L284.114 47.1679C283.192 45.3365 281.772 43.8103 280.012 42.7697L277.018 41.0007C276.81 40.8758 276.817 40.5706 277.039 40.4596L280.136 38.8987C281.966 37.976 283.49 36.5539 284.53 34.7918L286.297 31.8018C286.421 31.5937 286.726 31.6007 286.837 31.8227L288.396 34.9236C289.318 36.7551 290.739 38.2813 292.499 39.3219H292.506Z" fill="white"/>
<path d="M119.506 239.322L122.492 241.091C122.7 241.216 122.693 241.521 122.471 241.632L119.374 243.193C117.545 244.116 116.02 245.538 114.981 247.3L113.214 250.29C113.089 250.498 112.784 250.491 112.673 250.269L111.114 247.168C110.192 245.336 108.772 243.81 107.012 242.77L104.018 241.001C103.81 240.876 103.817 240.571 104.039 240.46L107.136 238.899C108.966 237.976 110.49 236.554 111.53 234.792L113.297 231.802C113.421 231.594 113.726 231.601 113.837 231.823L115.396 234.924C116.318 236.755 117.739 238.281 119.499 239.322H119.506Z" fill="white"/>
<path d="M381.287 173.651H321.972C319.705 173.651 317.867 175.489 317.867 177.756V219.546C317.867 221.813 319.705 223.651 321.972 223.651H381.287C383.554 223.651 385.392 221.813 385.392 219.546V177.756C385.392 175.489 383.554 173.651 381.287 173.651Z" fill="#D1FDF4"/>
<path d="M371.716 196.641C377.121 196.641 381.503 192.259 381.503 186.855C381.503 181.45 377.121 177.068 371.716 177.068C366.312 177.068 361.93 181.45 361.93 186.855C361.93 192.259 366.312 196.641 371.716 196.641Z" fill="#EDFFFB"/>
<path d="M357.559 223.651H321.972C319.709 223.651 317.867 221.814 317.867 219.546V212.966L333.44 185.991C334.253 184.581 336.29 184.581 337.103 185.991L348.862 206.357L357.594 221.483C358.016 222.205 357.95 223.028 357.559 223.651Z" fill="white"/>
<path d="M372.906 223.651H338.875L348.862 206.357L354.242 197.037C354.974 195.768 356.806 195.768 357.539 197.037L372.906 223.651V223.651Z" fill="#EDFFFB"/>
<path d="M321.972 174.151H381.287C383.278 174.151 384.892 175.765 384.892 177.756V219.546C384.892 221.537 383.278 223.151 381.287 223.151H321.972C319.981 223.151 318.367 221.537 318.367 219.546V177.756C318.367 175.765 319.981 174.151 321.972 174.151Z" stroke="#B5FBEC"/>
<path d="M161.796 92.1622V83.0686C161.796 82.1814 161.078 81.4539 160.182 81.4539H157.84C157.156 81.4539 156.544 80.9926 156.393 80.3183C155.586 76.7873 154.202 73.4692 152.339 70.4883C151.966 69.8939 152.037 69.122 152.534 68.6252L154.184 66.975C154.814 66.3451 154.814 65.3248 154.184 64.6949L147.752 58.2628C147.122 57.6329 146.102 57.6329 145.472 58.2628L143.831 59.9041C143.334 60.401 142.562 60.4719 141.968 60.0993C138.978 58.2362 135.669 56.8522 132.138 56.0449C131.472 55.8941 131.002 55.2819 131.002 54.5988V52.2655C131.002 51.3783 130.283 50.6508 129.387 50.6508H120.294C119.407 50.6508 118.679 51.3694 118.679 52.2655V54.5988C118.679 55.2819 118.218 55.8941 117.544 56.0449C114.013 56.8522 110.694 58.2362 107.705 60.0993C107.11 60.4719 106.338 60.401 105.842 59.9041L104.2 58.2628C103.57 57.6329 102.55 57.6329 101.92 58.2628L95.4881 64.6949C94.8582 65.3248 94.8582 66.3451 95.4881 66.975L97.1293 68.6163C97.6262 69.1131 97.6971 69.885 97.3245 70.4794C95.4614 73.4692 94.0863 76.7784 93.2701 80.3094C93.1193 80.9748 92.5071 81.445 91.824 81.445H89.4818C88.5946 81.445 87.8671 82.1636 87.8671 83.0597V92.1534C87.8671 93.0405 88.5857 93.768 89.4818 93.768H91.824C92.5071 93.768 93.1193 94.2294 93.2701 94.9036C94.0774 98.4346 95.4614 101.753 97.3245 104.734C97.6971 105.328 97.6262 106.1 97.1293 106.597L95.4792 108.247C94.8493 108.877 94.8493 109.897 95.4792 110.527L101.911 116.959C102.541 117.589 103.561 117.589 104.191 116.959L105.842 115.309C106.338 114.812 107.11 114.741 107.705 115.114C110.686 116.977 114.004 118.352 117.535 119.159C118.2 119.31 118.67 119.922 118.67 120.605V122.948C118.67 123.835 119.389 124.562 120.285 124.562H129.379C130.266 124.562 130.993 123.844 130.993 122.948V120.605C130.993 119.922 131.463 119.31 132.129 119.159C135.66 118.352 138.969 116.968 141.959 115.114C142.553 114.741 143.325 114.812 143.822 115.309L145.472 116.959C146.102 117.589 147.122 117.589 147.752 116.959L154.184 110.527C154.814 109.897 154.814 108.877 154.184 108.247L152.534 106.597C152.037 106.1 151.966 105.328 152.339 104.734C154.202 101.753 155.577 98.4346 156.393 94.9036C156.544 94.2382 157.156 93.768 157.84 93.768H160.182C161.069 93.768 161.796 93.0494 161.796 92.1534V92.1622ZM124.854 113.251C110.694 113.251 99.232 101.762 99.232 87.6021C99.232 73.4426 110.694 61.9802 124.854 61.9802C139.013 61.9802 150.476 73.4692 150.476 87.6021C150.476 101.735 139.013 113.251 124.854 113.251Z" stroke="#8AEBD6" stroke-width="0.79" stroke-miterlimit="10"/>
<path d="M203.618 122.948V116.755C203.618 116.152 203.13 115.655 202.518 115.655H200.921C200.451 115.655 200.043 115.336 199.936 114.883C199.386 112.479 198.446 110.216 197.177 108.185C196.92 107.777 196.973 107.253 197.31 106.916L198.428 105.798C198.854 105.372 198.854 104.672 198.428 104.246L194.046 99.863C193.62 99.4372 192.919 99.4372 192.493 99.863L191.375 100.981C191.038 101.318 190.515 101.371 190.106 101.114C188.075 99.8453 185.812 98.9049 183.408 98.3548C182.956 98.2483 182.636 97.8402 182.636 97.37V95.782C182.636 95.1787 182.148 94.6819 181.536 94.6819H175.335C174.732 94.6819 174.235 95.1698 174.235 95.782V97.37C174.235 97.8402 173.915 98.2483 173.463 98.3548C171.059 98.9049 168.796 99.8453 166.765 101.114C166.356 101.371 165.833 101.318 165.496 100.981L164.378 99.863C163.952 99.4372 163.251 99.4372 162.825 99.863L158.443 104.246C158.017 104.672 158.017 105.372 158.443 105.798L159.561 106.916C159.898 107.253 159.951 107.777 159.694 108.185C158.425 110.216 157.485 112.479 156.935 114.883C156.828 115.336 156.42 115.655 155.95 115.655H154.353C153.75 115.655 153.253 116.143 153.253 116.755V122.948C153.253 123.551 153.741 124.048 154.353 124.048H155.95C156.42 124.048 156.828 124.367 156.935 124.82C157.485 127.224 158.425 129.486 159.694 131.518C159.951 131.926 159.898 132.449 159.561 132.787L158.443 133.904C158.017 134.33 158.017 135.031 158.443 135.457L162.825 139.84C163.251 140.265 163.952 140.265 164.378 139.84L165.505 138.713C165.842 138.376 166.365 138.323 166.773 138.58C168.805 139.849 171.067 140.789 173.472 141.339C173.924 141.445 174.244 141.854 174.244 142.324V143.921C174.244 144.524 174.732 145.021 175.344 145.021H181.545C182.148 145.021 182.645 144.533 182.645 143.921V142.324C182.645 141.854 182.965 141.445 183.417 141.339C185.821 140.789 188.084 139.849 190.115 138.58C190.523 138.323 191.047 138.376 191.384 138.713L192.511 139.84C192.937 140.265 193.637 140.265 194.063 139.84L198.446 135.457C198.872 135.031 198.872 134.33 198.446 133.904L197.319 132.778C196.982 132.441 196.929 131.917 197.186 131.509C198.455 129.477 199.395 127.215 199.945 124.811C200.052 124.358 200.46 124.039 200.93 124.039H202.527C203.13 124.039 203.627 123.551 203.627 122.939L203.618 122.948ZM178.44 136.335C169.337 136.335 161.965 128.945 161.965 119.842C161.965 110.74 169.337 103.367 178.44 103.367C187.542 103.367 194.915 110.758 194.915 119.842C194.915 128.927 187.542 136.335 178.44 136.335Z" fill="#B5F9EA"/>
<path d="M379.087 83.6508H326.027C322.627 83.6508 319.867 86.4108 319.867 89.8108V102.351C319.867 105.491 322.217 108.081 325.247 108.461C325.687 108.521 326.027 108.891 326.027 109.341V116.201C326.027 116.601 326.537 116.761 326.767 116.441L332.177 108.881C332.347 108.641 332.617 108.511 332.907 108.511H379.097C382.497 108.511 385.257 105.751 385.257 102.351V89.8108C385.257 86.4108 382.497 83.6508 379.097 83.6508H379.087Z" stroke="#8AEBD6" stroke-width="0.9" stroke-miterlimit="10"/>
<path d="M334.157 96.0508C334.157 97.1708 333.247 98.0808 332.127 98.0808C331.007 98.0808 330.097 97.1708 330.097 96.0508C330.097 94.9308 331.007 94.0208 332.127 94.0208C333.247 94.0208 334.157 94.9308 334.157 96.0508Z" stroke="#8AEBD6" stroke-width="0.9" stroke-miterlimit="10"/>
<path d="M344.367 96.0508C344.367 97.1708 343.457 98.0808 342.337 98.0808C341.217 98.0808 340.307 97.1708 340.307 96.0508C340.307 94.9308 341.217 94.0208 342.337 94.0208C343.457 94.0208 344.367 94.9308 344.367 96.0508Z" stroke="#8AEBD6" stroke-width="0.9" stroke-miterlimit="10"/>
<path d="M354.577 96.0508C354.577 97.1708 353.667 98.0808 352.547 98.0808C351.427 98.0808 350.517 97.1708 350.517 96.0508C350.517 94.9308 351.427 94.0208 352.547 94.0208C353.667 94.0208 354.577 94.9308 354.577 96.0508Z" stroke="#8AEBD6" stroke-width="0.9" stroke-miterlimit="10"/>
<path d="M364.787 96.0508C364.787 97.1708 363.877 98.0808 362.757 98.0808C361.637 98.0808 360.727 97.1708 360.727 96.0508C360.727 94.9308 361.637 94.0208 362.757 94.0208C363.877 94.0208 364.787 94.9308 364.787 96.0508Z" stroke="#8AEBD6" stroke-width="0.9" stroke-miterlimit="10"/>
<path d="M374.997 96.0508C374.997 97.1708 374.087 98.0808 372.967 98.0808C371.847 98.0808 370.937 97.1708 370.937 96.0508C370.937 94.9308 371.847 94.0208 372.967 94.0208C374.087 94.0208 374.997 94.9308 374.997 96.0508Z" stroke="#8AEBD6" stroke-width="0.9" stroke-miterlimit="10"/>
<path d="M94.0271 163.651H147.087C150.487 163.651 153.247 166.411 153.247 169.811V182.351C153.247 185.491 150.897 188.081 147.867 188.461C147.427 188.521 147.087 188.891 147.087 189.341V196.201C147.087 196.601 146.577 196.761 146.347 196.441L140.937 188.881C140.767 188.641 140.497 188.511 140.207 188.511H94.0271C90.6271 188.511 87.8671 185.751 87.8671 182.351V169.811C87.8671 166.411 90.6271 163.651 94.0271 163.651V163.651Z" stroke="#8AEBD6" stroke-width="0.9" stroke-miterlimit="10"/>
<path d="M138.947 176.061C138.947 177.181 139.857 178.091 140.977 178.091C142.097 178.091 143.007 177.181 143.007 176.061C143.007 174.941 142.097 174.031 140.977 174.031C139.857 174.031 138.947 174.941 138.947 176.061Z" stroke="#8AEBD6" stroke-width="0.9" stroke-miterlimit="10"/>
<path d="M128.737 176.061C128.737 177.181 129.647 178.091 130.767 178.091C131.887 178.091 132.797 177.181 132.797 176.061C132.797 174.941 131.887 174.031 130.767 174.031C129.647 174.031 128.737 174.941 128.737 176.061Z" stroke="#8AEBD6" stroke-width="0.9" stroke-miterlimit="10"/>
<path d="M118.527 176.061C118.527 177.181 119.437 178.091 120.557 178.091C121.677 178.091 122.587 177.181 122.587 176.061C122.587 174.941 121.677 174.031 120.557 174.031C119.437 174.031 118.527 174.941 118.527 176.061Z" stroke="#8AEBD6" stroke-width="0.9" stroke-miterlimit="10"/>
<path d="M108.317 176.061C108.317 177.181 109.227 178.091 110.347 178.091C111.467 178.091 112.377 177.181 112.377 176.061C112.377 174.941 111.467 174.031 110.347 174.031C109.227 174.031 108.317 174.941 108.317 176.061Z" stroke="#8AEBD6" stroke-width="0.9" stroke-miterlimit="10"/>
<path d="M98.1071 176.061C98.1071 177.181 99.0171 178.091 100.137 178.091C101.257 178.091 102.167 177.181 102.167 176.061C102.167 174.941 101.257 174.031 100.137 174.031C99.0171 174.031 98.1071 174.941 98.1071 176.061Z" stroke="#8AEBD6" stroke-width="0.9" stroke-miterlimit="10"/>
<path d="M396.687 155.411H299.977C294.637 155.411 290.317 151.091 290.317 145.761C290.317 140.421 294.637 136.101 299.977 136.101H396.687C402.017 136.101 406.347 140.421 406.347 145.761C406.347 151.091 402.027 155.421 396.687 155.421V155.411Z" fill="white" fill-opacity="0.5" stroke="#8AEBD6" stroke-width="0.9" stroke-miterlimit="10"/>
<path d="M395.267 145.091C395.267 147.931 392.967 150.231 390.127 150.231C387.287 150.231 384.987 147.931 384.987 145.091C384.987 142.251 387.287 139.951 390.127 139.951C392.967 139.951 395.267 142.251 395.267 145.091V145.091Z" stroke="#8AEBD6" stroke-width="1.67" stroke-miterlimit="10"/>
<path d="M393.767 148.721L396.607 151.561" stroke="#8AEBD6" stroke-width="1.67" stroke-miterlimit="10" stroke-linecap="round"/>
<path d="M211.12 268.438C211.12 268.438 210.6 294.09 209.113 328.639H112.867C134.867 281.724 153.992 242.238 153.992 242.238C153.992 242.238 208.794 243.912 211.118 268.436L211.12 268.438Z" fill="#49ABEC" stroke="#262626" stroke-linejoin="round"/>
<path d="M272.207 173.984C272.207 173.984 257.517 203.371 242.596 223.657C236.659 231.73 230.685 238.361 225.586 241.127C220.595 243.833 216.37 248.037 212.874 252.697C203.818 264.76 199.641 279.863 199.641 279.863L161.484 222.138C161.484 222.138 162.787 165.711 167.368 156.271C174.045 142.517 177.27 114.725 179.835 109.191C181.738 105.087 187.172 83.8856 187.694 82.3269C187.921 81.6549 189.728 80.6254 192.077 80.6285C193.961 80.6285 197.161 82.4496 197.967 86.1931C202.048 105.112 197.135 117.59 197.192 118.145C198.631 132.685 194.305 143.477 197.339 146.335C197.453 146.441 197.662 146.391 197.959 146.202C203.219 142.825 235.867 95.2283 239.887 94.2004C244.134 93.1172 272.207 173.984 272.207 173.984V173.984Z" fill="#FFD0CF"/>
<path d="M197.967 184.742C197.967 184.742 195.354 161.929 192.942 157.482C190.53 153.032 188.491 144.125 192.2 137.504C195.909 130.883 197.191 118.147 197.191 118.147C198.63 132.687 194.303 143.479 197.338 146.337C197.451 146.443 197.66 146.392 197.958 146.203L197.967 184.744V184.742Z" fill="#EDA9A9"/>
<path d="M242.596 223.657C236.659 231.73 230.685 238.361 225.586 241.127C220.595 243.833 216.37 248.037 212.874 252.697C208.852 250.822 204.268 248.623 199.788 246.445C194.332 243.793 194.122 236.046 199.467 233.175C199.52 233.147 199.57 233.118 199.621 233.091C204.629 230.225 209.761 220.108 209.761 220.108L242.598 223.658L242.596 223.657Z" fill="#EDA9A9"/>
<path d="M187.428 83.206L184.337 95.687C184.337 95.687 187.04 96.7932 188.775 95.9341C190.51 95.0749 191.927 83.878 187.428 83.206V83.206Z" fill="#FFF1F1"/>
<path d="M272.207 173.984C272.207 173.984 257.517 203.371 242.596 223.657C236.659 231.73 230.685 238.361 225.586 241.127C220.595 243.833 216.37 248.037 212.874 252.697C203.818 264.76 199.641 279.863 199.641 279.863L161.484 222.138C161.484 222.138 162.787 165.711 167.368 156.271C174.045 142.517 177.27 114.725 179.835 109.191C181.738 105.087 187.172 83.8856 187.694 82.3269C187.921 81.6549 189.728 80.6254 192.077 80.6285C193.961 80.6285 197.161 82.4496 197.967 86.1931C202.048 105.112 197.135 117.59 197.192 118.145C198.631 132.685 194.305 143.477 197.339 146.335C197.453 146.441 197.662 146.391 197.959 146.202C203.219 142.825 235.867 95.2283 239.887 94.2004C244.134 93.1172 272.207 173.984 272.207 173.984V173.984Z" stroke="#262626" stroke-linejoin="round"/>
<path d="M144.623 261.703C144.623 261.703 163.431 279.716 176.109 286.671L185.708 279.862V289.907C185.708 289.907 204.587 293.245 210.541 289.907V262.516L157.515 235.934L144.621 261.703H144.623Z" fill="#3095D8"/>
<path d="M214.549 287.726C207.244 289.224 191.502 283.486 191.502 283.486L194.041 258.959L176.251 279.334C167.198 275.965 153.038 267.174 144.624 261.703C140.436 258.978 137.671 257.077 137.671 257.077C149.543 237.973 161.486 220.105 161.486 220.105C164.991 227.116 173.287 233.206 182.279 238.075C197.224 246.17 214.093 250.899 214.093 250.899C214.089 265.475 214.549 287.725 214.549 287.725V287.726Z" fill="white"/>
<path d="M214.549 287.726C207.244 289.224 191.502 283.486 191.502 283.486L194.041 258.959L176.251 279.334C167.198 275.965 153.038 267.174 144.624 261.703C166.184 259.352 182.279 238.077 182.279 238.077C197.224 246.172 214.093 250.9 214.093 250.9C214.089 265.477 214.549 287.726 214.549 287.726V287.726Z" fill="#F2F7FF"/>
<path d="M164.424 265.449C164.439 263.814 165.777 262.5 167.412 262.516C169.048 262.531 170.361 263.869 170.346 265.504C170.331 267.14 168.993 268.453 167.357 268.438C165.722 268.423 164.408 267.085 164.424 265.449Z" fill="#3095D8"/>
<path d="M214.549 287.726C207.244 289.224 191.502 283.486 191.502 283.486L194.041 258.959L176.251 279.334C167.198 275.965 153.038 267.174 144.624 261.703C140.436 258.978 137.671 257.077 137.671 257.077C149.543 237.973 161.486 220.105 161.486 220.105C164.991 227.116 173.287 233.206 182.279 238.075C197.224 246.17 214.093 250.899 214.093 250.899C214.089 265.475 214.549 287.725 214.549 287.725V287.726Z" stroke="#262626" stroke-linejoin="round"/>
<path d="M305.568 74.5299L293.751 91.8514L282.157 108.851C281.45 109.704 280.632 110 279.747 109.916C276.965 109.652 273.522 105.638 270.839 103.417L270.567 103.193C267.029 100.265 266.529 94.9767 269.456 91.4418L287.178 70.0192L292.435 63.6644C295.362 60.1264 300.649 59.6262 304.185 62.5536L304.457 62.7776C307.995 65.7049 308.495 70.9934 305.568 74.5299Z" fill="#FFD0CF"/>
<path d="M293.751 91.8514L282.157 108.851C281.45 109.704 280.632 110 279.747 109.916L287.178 70.0192C287.195 70.2432 288.458 88.1432 293.753 91.8514H293.751Z" fill="#EDA9A9"/>
<path d="M305.568 74.5299L293.751 91.8514L282.157 108.851C281.45 109.704 280.632 110 279.747 109.916C276.965 109.652 273.522 105.638 270.839 103.417L270.567 103.193C267.029 100.265 266.529 94.9767 269.456 91.4418L287.178 70.0192L292.435 63.6644C295.362 60.1264 300.649 59.6262 304.185 62.5536L304.457 62.7776C307.995 65.7049 308.495 70.9934 305.568 74.5299Z" stroke="#262626" stroke-linejoin="round"/>
<path d="M276.337 59.6508H209.857C203.291 59.6508 197.968 64.9736 197.968 71.5396V217.665C197.968 224.231 203.291 229.554 209.857 229.554H276.337C282.903 229.554 288.226 224.231 288.226 217.665V71.5396C288.226 64.9736 282.903 59.6508 276.337 59.6508Z" fill="#262626"/>
<path d="M284.177 72.6657V215.404C284.177 220.246 280.243 224.207 275.438 224.207H211.605C206.799 224.207 202.867 220.246 202.867 215.404V72.6657C202.867 67.8237 206.799 63.8623 211.605 63.8623H275.438C280.243 63.8623 284.177 67.8237 284.177 72.6657Z" fill="#2FAF94"/>
<path d="M243.776 129.833C250.601 129.833 256.134 124.3 256.134 117.475C256.134 110.65 250.601 105.117 243.776 105.117C236.951 105.117 231.418 110.65 231.418 117.475C231.418 124.3 236.951 129.833 243.776 129.833Z" fill="url(#paint0_linear_177_1813)"/>
<path d="M242.934 113.303L237.814 128.302C237.248 127.991 236.713 127.634 236.206 127.24L236.996 124.965L235.236 124.36L235.834 122.572L237.594 123.177L238.797 119.657L237.037 119.052L237.642 117.286L239.402 117.89L240.605 114.371L238.845 113.766L239.449 112L241.209 112.604L242.384 109.128L240.646 108.495L240.953 107.612L244.472 108.815L244.209 109.581L242.978 113.19L242.937 113.301L242.934 113.303ZM233.887 124.886C234.348 125.502 234.866 126.072 235.432 126.59L235.793 125.535L233.887 124.886ZM236.18 115.824L238.825 116.727L239.428 114.962L236.783 114.06L236.18 115.824ZM234.377 121.108L237.022 122.011L237.624 120.246L234.979 119.344L234.377 121.108ZM256.136 117.475C256.136 115.711 255.764 114.036 255.099 112.52L245.823 109.346L239.138 128.93C240.572 129.511 242.136 129.835 243.778 129.835C250.605 129.835 256.136 124.303 256.136 117.477V117.475ZM237.988 110.533L240.633 111.436L241.235 109.672L238.59 108.769L237.988 110.533Z" fill="white"/>
<path d="M243.776 105.119C250.602 105.119 256.134 110.651 256.134 117.477C256.134 124.303 250.602 129.835 243.776 129.835C236.95 129.835 231.418 124.303 231.418 117.477C231.418 110.651 236.95 105.119 243.776 105.119V105.119ZM243.776 103.568C236.095 103.568 229.867 109.796 229.867 117.477C229.867 125.158 236.095 131.386 243.776 131.386C251.457 131.386 257.685 125.158 257.685 117.477C257.685 109.796 251.457 103.568 243.776 103.568V103.568Z" fill="#1E5E71"/>
<path d="M253.769 136.297H256.249V141.328C256.776 140.747 257.527 140.429 258.311 140.429C260.383 140.429 261.867 142.008 261.867 144.103C261.867 146.198 260.34 147.818 258.442 147.818C257.427 147.818 256.741 147.472 256.248 146.831V147.592H253.767V136.298L253.769 136.297ZM257.75 145.726C258.595 145.726 259.323 144.992 259.323 144.163C259.323 143.262 258.628 142.531 257.728 142.531C256.828 142.531 256.155 143.295 256.155 144.102C256.155 144.992 256.902 145.726 257.75 145.726ZM251.924 144.195V144.582H246.737C246.737 145.513 247.276 146.1 248.193 146.086C248.729 146.078 249.227 145.871 249.428 145.433H251.797C251.307 147.066 250.008 147.819 248.066 147.819C246.008 147.819 244.251 146.524 244.251 144.145C244.251 141.942 245.72 140.459 248.124 140.459C250.392 140.459 251.922 141.982 251.922 144.196L251.924 144.195ZM246.841 143.155H249.646C249.413 142.35 248.909 142.04 248.167 142.04C247.497 142.04 246.955 142.47 246.841 143.155ZM235.336 136.297H237.817V143.155L240.155 140.644H243.517L240.254 143.856L243.785 147.589H240.327L237.803 144.755V147.589H235.335V136.295L235.336 136.297ZM225.867 146.661L226.978 144.491C227.677 145.188 228.626 145.551 229.471 145.551C230.085 145.551 230.648 145.151 230.648 144.534C230.648 143.918 230.102 143.712 229.399 143.493L228.323 143.16C227.073 142.772 226.27 142.058 226.27 140.492C226.27 138.349 227.733 137.023 229.866 137.023C230.882 137.023 232.07 137.34 233.056 137.861L231.988 139.952C231.501 139.515 230.874 139.266 230.22 139.256C229.69 139.248 229.092 139.587 229.092 140.138C229.092 140.69 229.537 140.88 230.129 141.059L231.224 141.387C232.358 141.728 233.492 142.53 233.492 144.175C233.492 145.486 232.91 147.823 229.464 147.823C228.06 147.823 226.921 147.391 225.868 146.661H225.867Z" fill="white"/>
<path d="M235.335 136.297H237.815L235.335 138.777V136.297ZM253.767 136.297V138.777L256.248 136.297H253.767Z" fill="white"/>
<rect x="216.867" y="163.651" width="54" height="13" rx="6.5" fill="white"/>
<path d="M232.575 172.7C232.215 172.7 231.893 172.641 231.609 172.525C231.324 172.408 231.095 172.235 230.923 172.007C230.755 171.778 230.666 171.503 230.657 171.181H231.931C231.949 171.363 232.012 171.503 232.12 171.601C232.227 171.694 232.367 171.741 232.54 171.741C232.717 171.741 232.857 171.701 232.96 171.622C233.062 171.538 233.114 171.423 233.114 171.279C233.114 171.157 233.072 171.057 232.988 170.978C232.908 170.898 232.808 170.833 232.687 170.782C232.57 170.73 232.402 170.672 232.183 170.607C231.865 170.509 231.606 170.411 231.406 170.313C231.205 170.215 231.032 170.07 230.888 169.879C230.743 169.687 230.671 169.438 230.671 169.13C230.671 168.672 230.836 168.315 231.168 168.059C231.499 167.797 231.931 167.667 232.463 167.667C233.004 167.667 233.44 167.797 233.772 168.059C234.103 168.315 234.28 168.675 234.304 169.137H233.009C232.999 168.978 232.941 168.854 232.834 168.766C232.726 168.672 232.589 168.626 232.421 168.626C232.276 168.626 232.159 168.665 232.071 168.745C231.982 168.819 231.938 168.929 231.938 169.074C231.938 169.232 232.012 169.356 232.162 169.445C232.311 169.533 232.544 169.629 232.862 169.732C233.179 169.839 233.436 169.942 233.632 170.04C233.832 170.138 234.005 170.28 234.15 170.467C234.294 170.653 234.367 170.894 234.367 171.188C234.367 171.468 234.294 171.722 234.15 171.951C234.01 172.179 233.804 172.361 233.534 172.497C233.263 172.632 232.943 172.7 232.575 172.7ZM235.705 168.339C235.495 168.339 235.323 168.278 235.187 168.157C235.057 168.031 234.991 167.877 234.991 167.695C234.991 167.508 235.057 167.354 235.187 167.233C235.323 167.107 235.495 167.044 235.705 167.044C235.911 167.044 236.079 167.107 236.209 167.233C236.345 167.354 236.412 167.508 236.412 167.695C236.412 167.877 236.345 168.031 236.209 168.157C236.079 168.278 235.911 168.339 235.705 168.339ZM236.3 168.745V172.651H235.103V168.745H236.3ZM238.652 168.689C238.927 168.689 239.167 168.745 239.373 168.857C239.583 168.969 239.744 169.116 239.856 169.298V168.745H241.053V172.644C241.053 173.003 240.98 173.327 240.836 173.617C240.696 173.911 240.479 174.144 240.185 174.317C239.895 174.489 239.534 174.576 239.1 174.576C238.521 174.576 238.052 174.438 237.693 174.163C237.333 173.892 237.128 173.523 237.077 173.057H238.26C238.297 173.206 238.386 173.323 238.526 173.407C238.666 173.495 238.838 173.54 239.044 173.54C239.291 173.54 239.487 173.467 239.632 173.323C239.781 173.183 239.856 172.956 239.856 172.644V172.091C239.739 172.273 239.578 172.422 239.373 172.539C239.167 172.651 238.927 172.707 238.652 172.707C238.33 172.707 238.038 172.625 237.777 172.462C237.515 172.294 237.308 172.058 237.154 171.755C237.004 171.447 236.93 171.092 236.93 170.691C236.93 170.289 237.004 169.937 237.154 169.634C237.308 169.33 237.515 169.097 237.777 168.934C238.038 168.77 238.33 168.689 238.652 168.689ZM239.856 170.698C239.856 170.399 239.772 170.163 239.604 169.991C239.44 169.818 239.24 169.732 239.002 169.732C238.764 169.732 238.561 169.818 238.393 169.991C238.229 170.159 238.148 170.392 238.148 170.691C238.148 170.989 238.229 171.227 238.393 171.405C238.561 171.577 238.764 171.664 239.002 171.664C239.24 171.664 239.44 171.577 239.604 171.405C239.772 171.232 239.856 170.996 239.856 170.698ZM244.299 168.703C244.756 168.703 245.12 168.852 245.391 169.151C245.666 169.445 245.804 169.851 245.804 170.369V172.651H244.614V170.53C244.614 170.268 244.546 170.065 244.411 169.921C244.275 169.776 244.093 169.704 243.865 169.704C243.636 169.704 243.454 169.776 243.319 169.921C243.183 170.065 243.116 170.268 243.116 170.53V172.651H241.919V168.745H243.116V169.263C243.237 169.09 243.4 168.955 243.606 168.857C243.811 168.754 244.042 168.703 244.299 168.703ZM249.295 167.737V170.677C249.295 170.971 249.367 171.197 249.512 171.356C249.657 171.514 249.869 171.594 250.149 171.594C250.429 171.594 250.644 171.514 250.793 171.356C250.942 171.197 251.017 170.971 251.017 170.677V167.737H252.214V170.67C252.214 171.108 252.121 171.479 251.934 171.783C251.747 172.086 251.495 172.315 251.178 172.469C250.865 172.623 250.515 172.7 250.128 172.7C249.741 172.7 249.393 172.625 249.085 172.476C248.782 172.322 248.541 172.093 248.364 171.79C248.187 171.482 248.098 171.108 248.098 170.67V167.737H249.295ZM254.252 169.298C254.368 169.116 254.529 168.969 254.735 168.857C254.94 168.745 255.18 168.689 255.456 168.689C255.778 168.689 256.069 168.77 256.331 168.934C256.592 169.097 256.797 169.33 256.947 169.634C257.101 169.937 257.178 170.289 257.178 170.691C257.178 171.092 257.101 171.447 256.947 171.755C256.797 172.058 256.592 172.294 256.331 172.462C256.069 172.625 255.778 172.707 255.456 172.707C255.185 172.707 254.945 172.651 254.735 172.539C254.529 172.427 254.368 172.282 254.252 172.105V174.513H253.055V168.745H254.252V169.298ZM255.96 170.691C255.96 170.392 255.876 170.159 255.708 169.991C255.544 169.818 255.341 169.732 255.099 169.732C254.861 169.732 254.658 169.818 254.49 169.991C254.326 170.163 254.245 170.399 254.245 170.698C254.245 170.996 254.326 171.232 254.49 171.405C254.658 171.577 254.861 171.664 255.099 171.664C255.337 171.664 255.54 171.577 255.708 171.405C255.876 171.227 255.96 170.989 255.96 170.691Z" fill="#2FAF94"/>
<path d="M235.836 188.727H237.404V189.651H234.639V184.737H235.836V188.727ZM239.752 189.707C239.37 189.707 239.024 189.625 238.716 189.462C238.413 189.298 238.173 189.065 237.995 188.762C237.823 188.458 237.736 188.104 237.736 187.698C237.736 187.296 237.825 186.944 238.002 186.641C238.18 186.333 238.422 186.097 238.73 185.934C239.038 185.77 239.384 185.689 239.766 185.689C240.149 185.689 240.494 185.77 240.802 185.934C241.11 186.097 241.353 186.333 241.53 186.641C241.708 186.944 241.796 187.296 241.796 187.698C241.796 188.099 241.705 188.454 241.523 188.762C241.346 189.065 241.101 189.298 240.788 189.462C240.48 189.625 240.135 189.707 239.752 189.707ZM239.752 188.671C239.981 188.671 240.175 188.587 240.333 188.419C240.497 188.251 240.578 188.01 240.578 187.698C240.578 187.385 240.499 187.145 240.34 186.977C240.186 186.809 239.995 186.725 239.766 186.725C239.533 186.725 239.339 186.809 239.185 186.977C239.031 187.14 238.954 187.38 238.954 187.698C238.954 188.01 239.029 188.251 239.178 188.419C239.332 188.587 239.524 188.671 239.752 188.671ZM243.915 185.689C244.191 185.689 244.431 185.745 244.636 185.857C244.846 185.969 245.007 186.116 245.119 186.298V185.745H246.316V189.644C246.316 190.003 246.244 190.327 246.099 190.617C245.959 190.911 245.742 191.144 245.448 191.317C245.159 191.489 244.797 191.576 244.363 191.576C243.785 191.576 243.316 191.438 242.956 191.163C242.597 190.892 242.392 190.523 242.34 190.057H243.523C243.561 190.206 243.649 190.323 243.789 190.407C243.929 190.495 244.102 190.54 244.307 190.54C244.555 190.54 244.751 190.467 244.895 190.323C245.045 190.183 245.119 189.956 245.119 189.644V189.091C245.003 189.273 244.842 189.422 244.636 189.539C244.431 189.651 244.191 189.707 243.915 189.707C243.593 189.707 243.302 189.625 243.04 189.462C242.779 189.294 242.571 189.058 242.417 188.755C242.268 188.447 242.193 188.092 242.193 187.691C242.193 187.289 242.268 186.937 242.417 186.634C242.571 186.33 242.779 186.097 243.04 185.934C243.302 185.77 243.593 185.689 243.915 185.689ZM245.119 187.698C245.119 187.399 245.035 187.163 244.867 186.991C244.704 186.818 244.503 186.732 244.265 186.732C244.027 186.732 243.824 186.818 243.656 186.991C243.493 187.159 243.411 187.392 243.411 187.691C243.411 187.989 243.493 188.227 243.656 188.405C243.824 188.577 244.027 188.664 244.265 188.664C244.503 188.664 244.704 188.577 244.867 188.405C245.035 188.232 245.119 187.996 245.119 187.698ZM247.784 185.339C247.574 185.339 247.402 185.278 247.266 185.157C247.136 185.031 247.07 184.877 247.07 184.695C247.07 184.508 247.136 184.354 247.266 184.233C247.402 184.107 247.574 184.044 247.784 184.044C247.99 184.044 248.158 184.107 248.288 184.233C248.424 184.354 248.491 184.508 248.491 184.695C248.491 184.877 248.424 185.031 248.288 185.157C248.158 185.278 247.99 185.339 247.784 185.339ZM248.379 185.745V189.651H247.182V185.745H248.379ZM251.627 185.703C252.084 185.703 252.448 185.852 252.719 186.151C252.994 186.445 253.132 186.851 253.132 187.369V189.651H251.942V187.53C251.942 187.268 251.874 187.065 251.739 186.921C251.604 186.776 251.422 186.704 251.193 186.704C250.964 186.704 250.782 186.776 250.647 186.921C250.512 187.065 250.444 187.268 250.444 187.53V189.651H249.247V185.745H250.444V186.263C250.565 186.09 250.729 185.955 250.934 185.857C251.139 185.754 251.37 185.703 251.627 185.703Z" fill="white"/>
<rect x="216.867" y="180.651" width="54" height="13" rx="6.5" stroke="white"/>
<path d="M219.5 199.51V200.018H218.191V200.824H219.194V201.323H218.191V202.651H217.561V199.51H219.5ZM221.054 202.691C220.814 202.691 220.598 202.639 220.406 202.534C220.214 202.426 220.063 202.274 219.952 202.079C219.844 201.884 219.79 201.659 219.79 201.404C219.79 201.149 219.845 200.924 219.956 200.729C220.07 200.534 220.225 200.384 220.42 200.279C220.615 200.171 220.832 200.117 221.072 200.117C221.312 200.117 221.53 200.171 221.725 200.279C221.92 200.384 222.073 200.534 222.184 200.729C222.298 200.924 222.355 201.149 222.355 201.404C222.355 201.659 222.296 201.884 222.179 202.079C222.065 202.274 221.909 202.426 221.711 202.534C221.516 202.639 221.297 202.691 221.054 202.691ZM221.054 202.142C221.168 202.142 221.275 202.115 221.374 202.061C221.476 202.004 221.557 201.92 221.617 201.809C221.677 201.698 221.707 201.563 221.707 201.404C221.707 201.167 221.644 200.986 221.518 200.86C221.395 200.731 221.243 200.666 221.063 200.666C220.883 200.666 220.732 200.731 220.609 200.86C220.489 200.986 220.429 201.167 220.429 201.404C220.429 201.641 220.487 201.824 220.604 201.953C220.724 202.079 220.874 202.142 221.054 202.142ZM223.447 200.545C223.528 200.413 223.633 200.309 223.762 200.234C223.894 200.159 224.044 200.122 224.212 200.122V200.783H224.045C223.847 200.783 223.697 200.83 223.595 200.923C223.496 201.016 223.447 201.178 223.447 201.409V202.651H222.817V200.158H223.447V200.545ZM225.613 200.117C225.799 200.117 225.962 200.155 226.103 200.23C226.244 200.302 226.355 200.396 226.436 200.513V200.158H227.071V202.669C227.071 202.9 227.024 203.105 226.931 203.285C226.838 203.468 226.699 203.612 226.513 203.717C226.327 203.825 226.102 203.879 225.838 203.879C225.484 203.879 225.193 203.797 224.965 203.632C224.74 203.467 224.612 203.242 224.582 202.957H225.208C225.241 203.071 225.311 203.161 225.419 203.227C225.53 203.296 225.664 203.33 225.82 203.33C226.003 203.33 226.151 203.275 226.265 203.164C226.379 203.056 226.436 202.891 226.436 202.669V202.282C226.355 202.399 226.243 202.496 226.099 202.574C225.958 202.652 225.796 202.691 225.613 202.691C225.403 202.691 225.211 202.637 225.037 202.529C224.863 202.421 224.725 202.27 224.623 202.075C224.524 201.877 224.474 201.65 224.474 201.395C224.474 201.143 224.524 200.92 224.623 200.725C224.725 200.53 224.861 200.38 225.032 200.275C225.206 200.17 225.4 200.117 225.613 200.117ZM226.436 201.404C226.436 201.251 226.406 201.121 226.346 201.013C226.286 200.902 226.205 200.818 226.103 200.761C226.001 200.701 225.892 200.671 225.775 200.671C225.658 200.671 225.55 200.699 225.451 200.756C225.352 200.813 225.271 200.897 225.208 201.008C225.148 201.116 225.118 201.245 225.118 201.395C225.118 201.545 225.148 201.677 225.208 201.791C225.271 201.902 225.352 201.988 225.451 202.048C225.553 202.108 225.661 202.138 225.775 202.138C225.892 202.138 226.001 202.109 226.103 202.052C226.205 201.992 226.286 201.908 226.346 201.8C226.406 201.689 226.436 201.557 226.436 201.404ZM228.793 202.691C228.553 202.691 228.337 202.639 228.145 202.534C227.953 202.426 227.801 202.274 227.69 202.079C227.582 201.884 227.528 201.659 227.528 201.404C227.528 201.149 227.584 200.924 227.695 200.729C227.809 200.534 227.963 200.384 228.158 200.279C228.353 200.171 228.571 200.117 228.811 200.117C229.051 200.117 229.268 200.171 229.463 200.279C229.658 200.384 229.811 200.534 229.922 200.729C230.036 200.924 230.093 201.149 230.093 201.404C230.093 201.659 230.035 201.884 229.918 202.079C229.804 202.274 229.648 202.426 229.45 202.534C229.255 202.639 229.036 202.691 228.793 202.691ZM228.793 202.142C228.907 202.142 229.013 202.115 229.112 202.061C229.214 202.004 229.295 201.92 229.355 201.809C229.415 201.698 229.445 201.563 229.445 201.404C229.445 201.167 229.382 200.986 229.256 200.86C229.133 200.731 228.982 200.666 228.802 200.666C228.622 200.666 228.47 200.731 228.347 200.86C228.227 200.986 228.167 201.167 228.167 201.404C228.167 201.641 228.226 201.824 228.343 201.953C228.463 202.079 228.613 202.142 228.793 202.142ZM231.289 200.675V201.881C231.289 201.965 231.309 202.027 231.348 202.066C231.39 202.102 231.459 202.12 231.555 202.12H231.847V202.651H231.451C230.92 202.651 230.655 202.393 230.655 201.877V200.675H230.358V200.158H230.655V199.541H231.289V200.158H231.847V200.675H231.289ZM235.757 200.158L234.214 203.83H233.543L234.083 202.588L233.084 200.158H233.791L234.434 201.899L235.087 200.158H235.757ZM237.204 202.691C236.964 202.691 236.748 202.639 236.556 202.534C236.364 202.426 236.213 202.274 236.102 202.079C235.994 201.884 235.94 201.659 235.94 201.404C235.94 201.149 235.995 200.924 236.106 200.729C236.22 200.534 236.375 200.384 236.57 200.279C236.765 200.171 236.982 200.117 237.222 200.117C237.462 200.117 237.68 200.171 237.875 200.279C238.07 200.384 238.223 200.534 238.334 200.729C238.448 200.924 238.505 201.149 238.505 201.404C238.505 201.659 238.446 201.884 238.329 202.079C238.215 202.274 238.059 202.426 237.861 202.534C237.666 202.639 237.447 202.691 237.204 202.691ZM237.204 202.142C237.318 202.142 237.425 202.115 237.524 202.061C237.626 202.004 237.707 201.92 237.767 201.809C237.827 201.698 237.857 201.563 237.857 201.404C237.857 201.167 237.794 200.986 237.668 200.86C237.545 200.731 237.393 200.666 237.213 200.666C237.033 200.666 236.882 200.731 236.759 200.86C236.639 200.986 236.579 201.167 236.579 201.404C236.579 201.641 236.637 201.824 236.754 201.953C236.874 202.079 237.024 202.142 237.204 202.142ZM241.32 200.158V202.651H240.686V202.336C240.605 202.444 240.498 202.529 240.366 202.592C240.237 202.652 240.096 202.682 239.943 202.682C239.748 202.682 239.576 202.642 239.426 202.561C239.276 202.477 239.157 202.355 239.07 202.196C238.986 202.034 238.944 201.842 238.944 201.62V200.158H239.574V201.53C239.574 201.728 239.624 201.881 239.723 201.989C239.822 202.094 239.957 202.147 240.128 202.147C240.302 202.147 240.438 202.094 240.537 201.989C240.636 201.881 240.686 201.728 240.686 201.53V200.158H241.32ZM242.572 200.545C242.653 200.413 242.758 200.309 242.887 200.234C243.019 200.159 243.169 200.122 243.337 200.122V200.783H243.17C242.972 200.783 242.822 200.83 242.72 200.923C242.621 201.016 242.572 201.178 242.572 201.409V202.651H241.942V200.158H242.572V200.545ZM245.463 200.518C245.544 200.404 245.655 200.309 245.796 200.234C245.94 200.156 246.104 200.117 246.287 200.117C246.5 200.117 246.692 200.17 246.863 200.275C247.037 200.38 247.173 200.53 247.272 200.725C247.374 200.917 247.425 201.14 247.425 201.395C247.425 201.65 247.374 201.877 247.272 202.075C247.173 202.27 247.037 202.421 246.863 202.529C246.692 202.637 246.5 202.691 246.287 202.691C246.104 202.691 245.942 202.654 245.801 202.579C245.663 202.504 245.55 202.409 245.463 202.295V203.839H244.833V200.158H245.463V200.518ZM246.782 201.395C246.782 201.245 246.75 201.116 246.687 201.008C246.627 200.897 246.546 200.813 246.444 200.756C246.345 200.699 246.237 200.671 246.12 200.671C246.006 200.671 245.898 200.701 245.796 200.761C245.697 200.818 245.616 200.902 245.553 201.013C245.493 201.124 245.463 201.254 245.463 201.404C245.463 201.554 245.493 201.685 245.553 201.796C245.616 201.907 245.697 201.992 245.796 202.052C245.898 202.109 246.006 202.138 246.12 202.138C246.237 202.138 246.345 202.108 246.444 202.048C246.546 201.988 246.627 201.902 246.687 201.791C246.75 201.68 246.782 201.548 246.782 201.395ZM247.721 201.395C247.721 201.143 247.771 200.92 247.87 200.725C247.972 200.53 248.108 200.38 248.279 200.275C248.453 200.17 248.647 200.117 248.86 200.117C249.046 200.117 249.208 200.155 249.346 200.23C249.487 200.305 249.599 200.399 249.683 200.513V200.158H250.318V202.651H249.683V202.286C249.602 202.403 249.49 202.501 249.346 202.579C249.205 202.654 249.041 202.691 248.855 202.691C248.645 202.691 248.453 202.637 248.279 202.529C248.108 202.421 247.972 202.27 247.87 202.075C247.771 201.877 247.721 201.65 247.721 201.395ZM249.683 201.404C249.683 201.251 249.653 201.121 249.593 201.013C249.533 200.902 249.452 200.818 249.35 200.761C249.248 200.701 249.139 200.671 249.022 200.671C248.905 200.671 248.797 200.699 248.698 200.756C248.599 200.813 248.518 200.897 248.455 201.008C248.395 201.116 248.365 201.245 248.365 201.395C248.365 201.545 248.395 201.677 248.455 201.791C248.518 201.902 248.599 201.988 248.698 202.048C248.8 202.108 248.908 202.138 249.022 202.138C249.139 202.138 249.248 202.109 249.35 202.052C249.452 201.992 249.533 201.908 249.593 201.8C249.653 201.689 249.683 201.557 249.683 201.404ZM251.887 202.691C251.683 202.691 251.5 202.655 251.338 202.583C251.176 202.508 251.047 202.408 250.951 202.282C250.858 202.156 250.807 202.016 250.798 201.863H251.432C251.444 201.959 251.491 202.039 251.572 202.102C251.656 202.165 251.759 202.196 251.882 202.196C252.002 202.196 252.095 202.172 252.161 202.124C252.23 202.076 252.265 202.015 252.265 201.94C252.265 201.859 252.223 201.799 252.139 201.76C252.058 201.718 251.927 201.673 251.747 201.625C251.561 201.58 251.408 201.533 251.288 201.485C251.171 201.437 251.069 201.364 250.982 201.265C250.898 201.166 250.856 201.032 250.856 200.864C250.856 200.726 250.895 200.6 250.973 200.486C251.054 200.372 251.168 200.282 251.315 200.216C251.465 200.15 251.641 200.117 251.842 200.117C252.139 200.117 252.376 200.192 252.553 200.342C252.73 200.489 252.827 200.689 252.845 200.941H252.242C252.233 200.842 252.191 200.764 252.116 200.707C252.044 200.647 251.947 200.617 251.824 200.617C251.71 200.617 251.621 200.638 251.558 200.68C251.498 200.722 251.468 200.78 251.468 200.855C251.468 200.939 251.51 201.004 251.594 201.049C251.678 201.091 251.809 201.134 251.986 201.179C252.166 201.224 252.314 201.271 252.431 201.319C252.548 201.367 252.649 201.442 252.733 201.544C252.82 201.643 252.865 201.775 252.868 201.94C252.868 202.084 252.827 202.213 252.746 202.327C252.668 202.441 252.554 202.531 252.404 202.597C252.257 202.66 252.085 202.691 251.887 202.691ZM254.339 202.691C254.135 202.691 253.952 202.655 253.79 202.583C253.628 202.508 253.499 202.408 253.403 202.282C253.31 202.156 253.259 202.016 253.25 201.863H253.885C253.897 201.959 253.943 202.039 254.024 202.102C254.108 202.165 254.212 202.196 254.335 202.196C254.455 202.196 254.548 202.172 254.614 202.124C254.683 202.076 254.717 202.015 254.717 201.94C254.717 201.859 254.675 201.799 254.591 201.76C254.51 201.718 254.38 201.673 254.2 201.625C254.014 201.58 253.861 201.533 253.741 201.485C253.624 201.437 253.522 201.364 253.435 201.265C253.351 201.166 253.309 201.032 253.309 200.864C253.309 200.726 253.348 200.6 253.426 200.486C253.507 200.372 253.621 200.282 253.768 200.216C253.918 200.15 254.093 200.117 254.294 200.117C254.591 200.117 254.828 200.192 255.005 200.342C255.182 200.489 255.28 200.689 255.298 200.941H254.695C254.686 200.842 254.644 200.764 254.569 200.707C254.497 200.647 254.399 200.617 254.276 200.617C254.162 200.617 254.074 200.638 254.011 200.68C253.951 200.722 253.921 200.78 253.921 200.855C253.921 200.939 253.963 201.004 254.047 201.049C254.131 201.091 254.261 201.134 254.438 201.179C254.618 201.224 254.767 201.271 254.884 201.319C255.001 201.367 255.101 201.442 255.185 201.544C255.272 201.643 255.317 201.775 255.32 201.94C255.32 202.084 255.28 202.213 255.199 202.327C255.121 202.441 255.007 202.531 254.857 202.597C254.71 202.66 254.537 202.691 254.339 202.691ZM259.293 200.158L258.564 202.651H257.885L257.43 200.909L256.976 202.651H256.292L255.558 200.158H256.197L256.638 202.057L257.115 200.158H257.781L258.249 202.052L258.69 200.158H259.293ZM260.741 202.691C260.501 202.691 260.285 202.639 260.093 202.534C259.901 202.426 259.75 202.274 259.639 202.079C259.531 201.884 259.477 201.659 259.477 201.404C259.477 201.149 259.532 200.924 259.643 200.729C259.757 200.534 259.912 200.384 260.107 200.279C260.302 200.171 260.519 200.117 260.759 200.117C260.999 200.117 261.217 200.171 261.412 200.279C261.607 200.384 261.76 200.534 261.871 200.729C261.985 200.924 262.042 201.149 262.042 201.404C262.042 201.659 261.983 201.884 261.866 202.079C261.752 202.274 261.596 202.426 261.398 202.534C261.203 202.639 260.984 202.691 260.741 202.691ZM260.741 202.142C260.855 202.142 260.962 202.115 261.061 202.061C261.163 202.004 261.244 201.92 261.304 201.809C261.364 201.698 261.394 201.563 261.394 201.404C261.394 201.167 261.331 200.986 261.205 200.86C261.082 200.731 260.93 200.666 260.75 200.666C260.57 200.666 260.419 200.731 260.296 200.86C260.176 200.986 260.116 201.167 260.116 201.404C260.116 201.641 260.174 201.824 260.291 201.953C260.411 202.079 260.561 202.142 260.741 202.142ZM263.134 200.545C263.215 200.413 263.32 200.309 263.449 200.234C263.581 200.159 263.731 200.122 263.899 200.122V200.783H263.732C263.534 200.783 263.384 200.83 263.282 200.923C263.183 201.016 263.134 201.178 263.134 201.409V202.651H262.504V200.158H263.134V200.545ZM264.161 201.395C264.161 201.143 264.211 200.92 264.31 200.725C264.412 200.53 264.55 200.38 264.724 200.275C264.898 200.17 265.091 200.117 265.304 200.117C265.466 200.117 265.621 200.153 265.768 200.225C265.915 200.294 266.032 200.387 266.119 200.504V199.321H266.758V202.651H266.119V202.282C266.041 202.405 265.931 202.504 265.79 202.579C265.649 202.654 265.486 202.691 265.3 202.691C265.09 202.691 264.898 202.637 264.724 202.529C264.55 202.421 264.412 202.27 264.31 202.075C264.211 201.877 264.161 201.65 264.161 201.395ZM266.123 201.404C266.123 201.251 266.093 201.121 266.033 201.013C265.973 200.902 265.892 200.818 265.79 200.761C265.688 200.701 265.579 200.671 265.462 200.671C265.345 200.671 265.237 200.699 265.138 200.756C265.039 200.813 264.958 200.897 264.895 201.008C264.835 201.116 264.805 201.245 264.805 201.395C264.805 201.545 264.835 201.677 264.895 201.791C264.958 201.902 265.039 201.988 265.138 202.048C265.24 202.108 265.348 202.138 265.462 202.138C265.579 202.138 265.688 202.109 265.79 202.052C265.892 201.992 265.973 201.908 266.033 201.8C266.093 201.689 266.123 201.557 266.123 201.404ZM268.25 199.402C268.562 199.402 268.813 199.487 269.002 199.658C269.194 199.826 269.29 200.059 269.29 200.356C269.29 200.65 269.195 200.875 269.006 201.031C268.817 201.184 268.567 201.26 268.255 201.26L268.237 201.607H267.683L267.661 200.842H267.863C268.124 200.842 268.325 200.807 268.466 200.738C268.607 200.669 268.678 200.543 268.678 200.36C268.678 200.228 268.639 200.123 268.561 200.045C268.486 199.967 268.382 199.928 268.25 199.928C268.112 199.928 268.004 199.966 267.926 200.041C267.851 200.116 267.814 200.219 267.814 200.351H267.22C267.217 200.168 267.256 200.005 267.337 199.861C267.418 199.717 267.536 199.604 267.692 199.523C267.851 199.442 268.037 199.402 268.25 199.402ZM267.958 202.682C267.844 202.682 267.749 202.648 267.674 202.579C267.602 202.507 267.566 202.418 267.566 202.313C267.566 202.208 267.602 202.121 267.674 202.052C267.749 201.98 267.844 201.944 267.958 201.944C268.069 201.944 268.16 201.98 268.232 202.052C268.304 202.121 268.34 202.208 268.34 202.313C268.34 202.418 268.304 202.507 268.232 202.579C268.16 202.648 268.069 202.682 267.958 202.682Z" fill="white"/>
<path d="M229.758 60.6465H256.437C258.617 60.6465 260.388 62.417 260.388 64.5972V65.2186C260.388 67.3987 258.617 69.1692 256.437 69.1692H229.758C227.578 69.1692 225.807 67.3987 225.807 65.2186V64.5972C225.807 62.417 227.578 60.6465 229.758 60.6465V60.6465Z" fill="#262626"/>
<path d="M214.751 72.7915L213.842 73.4436L212.927 72.7977C213.13 72.5123 213.464 72.3236 213.842 72.3236C214.219 72.3236 214.549 72.5077 214.751 72.79V72.7915Z" fill="white"/>
<path d="M213.842 70.7326C212.927 70.7326 212.119 71.1882 211.629 71.8833L212.206 72.2883C212.57 71.7743 213.168 71.4399 213.842 71.4399C214.515 71.4399 215.106 71.7697 215.468 72.276L216.043 71.8633C215.551 71.1775 214.747 70.7326 213.842 70.7326Z" fill="white"/>
<path d="M213.842 67.7086C211.907 67.7086 210.196 68.6706 209.159 70.1419L209.738 70.547C210.646 69.2597 212.148 68.4159 213.842 68.4159C215.535 68.4159 217.014 69.2459 217.926 70.5163L218.498 70.1036C217.459 68.6537 215.761 67.7086 213.842 67.7086V67.7086Z" fill="white"/>
<path d="M213.842 69.364C212.465 69.364 211.246 70.0452 210.503 71.0885L211.08 71.4935C211.695 70.6344 212.703 70.0713 213.842 70.0713C214.98 70.0713 215.973 70.6252 216.59 71.4721L217.162 71.0624C216.418 70.0329 215.207 69.364 213.842 69.364V69.364Z" fill="white"/>
<path d="M294.31 156.601L285.172 159.088C282.395 159.844 279.506 158.19 278.749 155.413L278.468 154.379C277.712 151.602 279.366 148.713 282.143 147.957L291.281 145.47C294.058 144.714 296.947 146.368 297.703 149.145L297.986 150.179C298.742 152.956 297.088 155.845 294.311 156.601H294.31Z" fill="#FFD0CF"/>
<path d="M289.368 156.153C287.689 156.601 284.655 157.393 283.065 157.479C282.487 157.511 281.328 157.021 280.572 155.501C280.386 155.133 280.228 154.706 280.104 154.212C279.994 153.764 279.909 153.319 279.9 152.87C279.889 152.339 279.957 151.817 280.104 151.306C280.236 150.845 280.619 150.447 281.137 150.263C281.141 150.262 281.143 150.262 281.146 150.258C282.887 149.643 285.225 148.908 287.249 148.555C288.647 148.31 289.972 148.982 290.299 150.134L290.535 150.957L291.239 153.428C291.565 154.571 290.739 155.789 289.368 156.153Z" fill="#F5BEBE"/>
<path d="M289.368 156.153C287.689 156.601 284.655 157.393 283.065 157.479C282.487 157.511 281.328 157.021 280.572 155.501C280.471 155.084 280.397 154.665 280.388 154.24C280.377 153.712 280.445 153.187 280.592 152.676C280.724 152.218 281.107 151.817 281.624 151.633C281.629 151.632 281.631 151.632 281.634 151.629C283.375 151.013 285.715 150.28 287.737 149.929C288.894 149.725 290.003 150.151 290.535 150.958L291.24 153.43C291.565 154.573 290.739 155.791 289.368 156.155V156.153Z" fill="#FFF1F1"/>
<path d="M294.31 156.601L285.172 159.088C282.395 159.844 279.506 158.19 278.749 155.413L278.468 154.379C277.712 151.602 279.366 148.713 282.143 147.957L291.281 145.47C294.058 144.714 296.947 146.368 297.703 149.145L297.986 150.179C298.742 152.956 297.088 155.845 294.311 156.601H294.31Z" stroke="#262626" stroke-linejoin="round"/>
<path d="M299.686 139.942L297.923 140.611L286.074 145.114C285.796 145.22 285.515 145.309 285.234 145.38C281.311 146.4 277.137 144.307 275.665 140.436L275.492 139.981C273.915 135.832 276.02 131.146 280.168 129.569L291.215 125.372L292.017 125.066L293.78 124.397C297.929 122.82 302.613 124.925 304.189 129.075L304.362 129.531C305.939 133.679 303.834 138.365 299.686 139.942Z" fill="#FFD0CF"/>
<path d="M290.063 140.215C288.085 140.964 284.506 142.294 282.591 142.569C282.049 142.647 281.051 142.352 280.119 141.332C279.561 140.722 279.025 139.85 278.63 138.644C278.444 138.077 278.289 137.512 278.225 136.929C278.151 136.246 278.171 135.565 278.289 134.888C278.398 134.279 278.814 133.725 279.42 133.432C279.421 133.431 279.426 133.431 279.429 133.428C281.465 132.455 284.208 131.271 286.615 130.609C288.278 130.151 289.962 130.884 290.488 132.34L290.736 133.02L292.008 136.502C292.534 137.949 291.678 139.605 290.063 140.212V140.215Z" fill="#F5BEBE"/>
<path d="M290.063 140.215C288.085 140.964 284.506 142.294 282.591 142.569C282.049 142.647 281.051 142.352 280.119 141.332C280.02 141.101 279.929 140.855 279.842 140.594C279.656 140.027 279.501 139.462 279.437 138.879C279.363 138.196 279.383 137.515 279.501 136.838C279.61 136.229 280.026 135.675 280.632 135.382C280.633 135.381 280.638 135.381 280.641 135.378C282.677 134.405 285.422 133.221 287.827 132.559C288.894 132.265 289.965 132.46 290.736 133.021L292.008 136.504C292.534 137.951 291.678 139.606 290.063 140.214V140.215Z" fill="#FFF1F1"/>
<path d="M299.686 139.942L297.923 140.611L286.074 145.114C285.796 145.22 285.515 145.309 285.234 145.38C281.311 146.4 277.137 144.307 275.665 140.436L275.492 139.981C273.915 135.832 276.02 131.146 280.168 129.569L291.215 125.372L292.017 125.066L293.78 124.397C297.929 122.82 302.613 124.925 304.189 129.075L304.362 129.531C305.939 133.679 303.834 138.365 299.686 139.942Z" stroke="#262626" stroke-linejoin="round"/>
<path d="M299.397 122.43C299.333 122.453 299.267 122.476 299.199 122.498L287.22 125.574C281.953 126.927 276.506 124.078 275.115 119.241L274.403 116.763C273.066 112.119 275.939 107.263 280.833 105.689L284.788 104.673L292.812 102.613C298.079 101.259 303.526 104.108 304.917 108.946L305.629 111.424C306.946 116.005 304.17 120.789 299.396 122.43H299.397Z" fill="#FFD0CF"/>
<path d="M293.908 119.087L288.088 121.711C288.079 121.712 288.068 121.715 288.051 121.72C287.818 121.783 287.582 121.83 287.347 121.866C287.249 121.881 287.149 121.892 287.053 121.903C287.011 121.907 286.97 121.907 286.93 121.904C286.289 121.883 285.85 121.203 286.126 120.595C286.675 119.397 286.826 118.012 286.456 116.649L286.318 116.143C286.318 116.143 286.316 116.132 286.313 116.128L285.862 114.475C285.505 113.159 284.745 112.056 283.752 111.26C283.633 111.161 283.51 111.071 283.384 110.985C282.234 110.189 282.527 108.384 283.874 108.009C283.887 108.004 283.898 108.002 283.91 107.998L290.298 107.031C291.876 106.603 293.397 107.817 293.828 109.397L294.34 111.28L295.433 115.293C295.862 116.875 295.486 118.661 293.908 119.09V119.087Z" fill="#F5BEBE"/>
<path d="M293.908 119.087L288.088 121.711C288.079 121.712 288.068 121.715 288.051 121.72C287.915 121.746 287.488 121.818 286.93 121.904C286.289 121.883 285.85 121.203 286.126 120.595C286.675 119.397 286.826 118.012 286.456 116.649L286.318 116.143C286.318 116.143 286.316 116.132 286.313 116.128L285.862 114.475C285.505 113.159 284.745 112.056 283.752 111.26C283.958 110.959 284.266 110.72 284.668 110.608C284.679 110.603 284.693 110.601 284.705 110.597L291.092 109.63C292.422 109.268 293.708 110.074 294.34 111.278L295.433 115.292C295.862 116.873 295.486 118.659 293.908 119.089V119.087Z" fill="#FFF1F1"/>
<path d="M299.397 122.43C299.333 122.453 299.267 122.476 299.199 122.498L287.22 125.574C281.953 126.927 276.506 124.078 275.115 119.241L274.403 116.763C273.066 112.119 275.939 107.263 280.833 105.689L284.788 104.673L292.812 102.613C298.079 101.259 303.526 104.108 304.917 108.946L305.629 111.424C306.946 116.005 304.17 120.789 299.396 122.43H299.397Z" stroke="#262626" stroke-linejoin="round"/>
<path d="M382.616 328.649H312.032C308.647 326.38 291.069 314.39 283.795 305.452C282.255 303.557 276.617 287.232 272.284 273.978C269.579 265.699 267.382 258.614 267.011 256.989C266.882 256.423 266.796 255.302 266.744 253.783V253.768C266.56 248.347 266.811 237.894 267.071 229.591V229.553L267.077 229.444C267.089 229.079 267.1 228.72 267.112 228.364V228.351C267.112 228.316 267.112 228.279 267.115 228.244C267.163 226.802 267.209 225.442 267.252 224.206C267.361 221.116 267.453 218.791 267.491 217.882L267.506 217.458C267.506 217.458 267.508 217.458 267.509 217.458C267.621 217.395 271.017 215.583 275.555 218.853C276.65 219.643 277.663 221.552 278.587 224.042C279.177 225.631 279.731 227.457 280.247 229.381C282.229 236.78 283.651 245.627 284.411 247.996C285.635 251.824 300.066 268.657 300.968 269.704C300.982 269.722 300.997 269.739 301.011 269.756V243.172L290.116 214.021L285.644 202.054L283.396 196.04C283.396 196.04 279.949 190.38 277.057 183.571C275.791 180.592 274.631 177.393 273.913 174.352C273.742 173.628 273.596 172.912 273.479 172.21V172.207C273.054 169.637 273.025 167.253 273.616 165.312C274.67 161.856 277.045 161.205 278.869 161.276C279.058 161.282 279.24 161.299 279.417 161.319C279.595 161.34 279.771 161.374 279.941 161.42C280.262 161.504 280.566 161.633 280.848 161.797C280.851 161.797 280.851 161.799 280.853 161.801C281.321 162.074 281.724 162.45 282.037 162.908C282.037 162.908 283.578 164.92 285.644 167.623C287.003 169.403 288.591 171.482 290.116 173.485C292.832 177.056 295.354 180.386 296.048 181.362C299.796 186.638 309.888 203.833 309.888 203.833L321.702 204.328C323.574 204.406 325.355 205.152 326.723 206.43C330.924 210.353 339.981 218.842 341.092 220.105C341.092 220.519 348.131 223.904 353.567 226.917C357.456 228.56 364.843 234.384 364.843 234.384C366.374 235.736 367.54 237.081 368.131 238.367C370.664 243.879 377.534 291.823 380.819 315.524C381.876 323.143 382.562 328.256 382.616 328.651V328.649Z" fill="#FFD0CF"/>
<path d="M309.888 203.831C309.888 203.831 320.832 221.696 322.28 222.501C323.729 223.307 329.362 224.433 330.005 222.501C330.65 220.57 309.887 203.831 309.887 203.831H309.888Z" fill="#EDA9A9"/>
<path d="M364.898 234.433C364.88 234.416 364.862 234.401 364.843 234.384C364.843 234.384 357.456 228.56 353.566 226.917C348.576 224.149 342.235 221.071 341.23 220.264C342.388 221.588 350.539 230.812 353.675 231.504C356.429 232.112 362.686 233.822 364.898 234.433Z" fill="#EDA9A9"/>
<path d="M301.011 269.756V243.171C301.011 243.171 307.326 253.735 307.809 259.529C308.293 265.32 305.186 274.701 301.011 269.754V269.756Z" fill="#EDA9A9"/>
<path d="M278.097 172.203C277.174 170.619 275.52 167.749 274.952 166.142C274.791 165.688 274.811 164.78 275.369 163.812C275.704 163.232 276.23 162.629 277.026 162.092C277.401 161.839 277.78 161.615 278.189 161.465C278.668 161.291 279.167 161.196 279.678 161.19C280.139 161.185 280.62 161.454 280.949 161.929C280.951 161.929 280.952 161.934 280.954 161.936C282.051 163.533 283.438 165.707 284.38 167.675C285.034 169.034 284.826 170.604 283.875 171.294L283.432 171.62L281.158 173.28C280.213 173.967 278.851 173.498 278.099 172.204L278.097 172.203Z" fill="#F5BEBE"/>
<path d="M278.097 172.203C277.174 170.619 275.52 167.749 274.952 166.142C274.791 165.688 274.811 164.78 275.369 163.812C275.518 163.689 275.678 163.571 275.85 163.453C276.224 163.2 276.603 162.976 277.013 162.825C277.491 162.652 277.99 162.558 278.501 162.551C278.963 162.546 279.443 162.815 279.773 163.29C279.774 163.292 279.776 163.295 279.777 163.296C280.874 164.894 282.261 167.068 283.203 169.036C283.622 169.907 283.688 170.863 283.43 171.618L281.157 173.278C280.211 173.966 278.849 173.496 278.097 172.203Z" fill="#FFF1F1"/>
<path d="M347.153 317.733L326.068 328.649H312.032C308.647 326.38 291.069 314.39 283.795 305.452C282.255 303.557 276.617 287.232 272.284 273.978V273.972C272.859 275.732 284.951 301.484 288.394 304.411C291.836 307.337 309.913 324.381 314.905 324.208C319.741 324.042 345.486 318.117 347.081 317.75C347.106 317.745 347.129 317.739 347.153 317.733V317.733Z" fill="#EDA9A9"/>
<path d="M267.114 228.244C267.114 228.244 267.117 228.244 267.118 228.242C268.399 227.773 270.197 227.463 271.072 228.924C272.434 231.197 267.374 251.259 266.742 253.783L267.112 228.244H267.114Z" fill="#EDA9A9"/>
<path d="M267.506 217.458L267.072 229.593C267.072 229.593 269.624 230.008 271.075 228.925C272.526 227.842 271.758 217.316 267.508 217.458H267.506Z" fill="#FFF1F1"/>
<path d="M382.616 328.649H312.032C308.647 326.38 291.069 314.39 283.795 305.452C282.255 303.557 276.617 287.232 272.284 273.978C269.579 265.699 267.382 258.614 267.011 256.989C266.882 256.423 266.796 255.302 266.744 253.783V253.768C266.56 248.347 266.811 237.894 267.071 229.591V229.553L267.077 229.444C267.089 229.079 267.1 228.72 267.112 228.364V228.351C267.112 228.316 267.112 228.279 267.115 228.244C267.163 226.802 267.209 225.442 267.252 224.206C267.361 221.116 267.453 218.791 267.491 217.882L267.506 217.458C267.506 217.458 267.508 217.458 267.509 217.458C267.621 217.395 271.017 215.583 275.555 218.853C276.65 219.643 277.663 221.552 278.587 224.042C279.177 225.631 279.731 227.457 280.247 229.381C282.229 236.78 283.651 245.627 284.411 247.996C285.635 251.824 300.066 268.657 300.968 269.704C300.982 269.722 300.997 269.739 301.011 269.756V243.172L290.116 214.021L285.644 202.054L283.396 196.04C283.396 196.04 279.949 190.38 277.057 183.571C275.791 180.592 274.631 177.393 273.913 174.352C273.742 173.628 273.596 172.912 273.479 172.21V172.207C273.054 169.637 273.025 167.253 273.616 165.312C274.67 161.856 277.045 161.205 278.869 161.276C279.058 161.282 279.24 161.299 279.417 161.319C279.595 161.34 279.771 161.374 279.941 161.42C280.262 161.504 280.566 161.633 280.848 161.797C280.851 161.797 280.851 161.799 280.853 161.801C281.321 162.074 281.724 162.45 282.037 162.908C282.037 162.908 283.578 164.92 285.644 167.623C287.003 169.403 288.591 171.482 290.116 173.485C292.832 177.056 295.354 180.386 296.048 181.362C299.796 186.638 309.888 203.833 309.888 203.833L321.702 204.328C323.574 204.406 325.355 205.152 326.723 206.43C330.924 210.353 339.981 218.842 341.092 220.105C341.092 220.519 348.131 223.904 353.567 226.917C357.456 228.56 364.843 234.384 364.843 234.384C366.374 235.736 367.54 237.081 368.131 238.367C370.664 243.879 377.534 291.823 380.819 315.524C381.876 323.143 382.562 328.256 382.616 328.651V328.649Z" stroke="#262626" stroke-linejoin="round"/>
<path d="M389.578 328.649H313.563C317.375 327.153 331.961 321.581 347.081 317.75C347.106 317.745 347.129 317.739 347.153 317.733C360.139 314.448 373.507 312.457 380.767 315.444L380.819 315.522L389.578 328.649V328.649Z" fill="white" stroke="#262626" stroke-linejoin="round"/>
</g>
<defs>
<linearGradient id="paint0_linear_177_1813" x1="235.038" y1="108.737" x2="252.515" y2="126.215" gradientUnits="userSpaceOnUse">
<stop offset="0.2" stop-color="#30B396"/>
<stop offset="1" stop-color="#1E5E71"/>
</linearGradient>
<clipPath id="clip0_177_1813">
<rect width="500" height="360" fill="white"/>
</clipPath>
</defs>
</svg>
