<svg width="100" height="100" viewBox="0 0 100 100" fill="none" xmlns="http://www.w3.org/2000/svg">
<path d="M77.9999 45.1388V29.4861C77.9999 14.0215 65.4634 1.48495 50.0007 1.48495C34.5361 1.48495 21.9996 14.0215 21.9996 29.4861V45.1388M32.0968 45.1388V29.4861C32.0968 19.6125 40.129 11.5822 50.0007 11.5822C59.8724 11.5822 67.9026 19.6125 67.9026 29.4861V45.1388" fill="#D3DAE0"/>
<path d="M51.6339 1.53359C51.0935 1.50253 50.5491 1.48495 50.0007 1.48495C34.5361 1.48495 21.9996 14.0215 21.9996 29.4861V45.1388H25.2662V29.4861C25.2662 14.5699 36.9296 2.37948 51.6339 1.53359Z" fill="#899EA8"/>
<path d="M53.2673 11.582C52.7167 11.582 52.172 11.6084 51.6339 11.6572C60.7427 12.4849 67.9024 20.1629 67.9024 29.4859V45.1386H71.169V29.4859C71.169 19.6125 63.1387 11.582 53.2673 11.582Z" fill="#899EA8"/>
<path d="M87.2684 45.1388H12.7307V98.5158H87.2684V45.1388Z" fill="#FC9855"/>
<path d="M19.2638 45.1388H12.7307V98.5158H19.2638V45.1388Z" fill="#E1884D"/>
<path d="M58.0181 66.8169C58.0181 62.3886 54.4282 58.7989 50.0001 58.7989C45.572 58.7989 41.9821 62.3886 41.9821 66.8169C41.9821 69.8669 43.6855 72.5188 46.1923 73.8743L44.9021 83.7436H55.0983L53.8081 73.8743C56.3147 72.519 58.0181 69.8669 58.0181 66.8169Z" fill="#262626"/>
<path d="M87.2684 45.1388H12.7307V98.5158H87.2684V45.1388Z" stroke="#262626" stroke-width="2"/>
<path d="M77.9999 45.1388V29.4861C77.9999 14.0215 65.4634 1.48495 50.0007 1.48495C34.5361 1.48495 21.9996 14.0215 21.9996 29.4861V45.1388M32.0968 45.1388V29.4861C32.0968 19.6125 40.129 11.5822 50.0007 11.5822C59.8724 11.5822 67.9026 19.6125 67.9026 29.4861V45.1388" stroke="#262626" stroke-width="2"/>
</svg>
