<svg width="100" height="100" viewBox="0 0 100 100" fill="none" xmlns="http://www.w3.org/2000/svg">
<path d="M88.4287 16.5451H71.3086V20.7996C71.3086 21.5654 71.2832 22.3301 71.2387 23.0932H87.7156C88.0074 23.0932 88.2463 23.3334 88.2361 23.6252C88.0817 28.0961 86.4754 32.4459 83.6746 35.9443C80.7248 39.6283 76.5645 42.2258 71.9594 43.2582L62.8607 45.2978C60.241 48.6445 57.093 51.5648 53.5438 53.9236C53.6524 53.9348 53.7615 53.942 53.8721 53.942C54.1094 53.942 54.3502 53.9162 54.5912 53.8621L73.3918 49.6475C79.4432 48.291 84.9102 44.8777 88.7861 40.0367C92.6531 35.2066 94.7869 29.1422 94.7967 22.9555C94.8022 19.4297 91.9545 16.5451 88.4287 16.5451V16.5451Z" fill="#FBD307"/>
<path d="M37.1393 45.2975L28.0406 43.2578C23.4355 42.2256 19.275 39.6281 16.3254 35.9439C13.5246 32.4455 11.9184 28.0957 11.7639 23.6248C11.7537 23.3332 11.9926 23.0928 12.2844 23.0928H28.7613C28.717 22.3297 28.6914 21.565 28.6914 20.7992V16.5451H11.5713C8.0457 16.5451 5.19785 19.4297 5.20351 22.9553C5.21328 29.142 7.34707 35.2064 11.2141 40.0365C15.09 44.8775 20.557 48.2908 26.6084 49.6473L45.409 53.8619C45.65 53.916 45.8908 53.9418 46.1281 53.9418C46.2385 53.9418 46.3479 53.9346 46.4563 53.9234C42.907 51.5645 39.759 48.6441 37.1393 45.2975V45.2975Z" fill="#FBD307"/>
<path d="M57.0535 60.1873V46.7094H42.9465V60.1873C42.9465 70.4543 37.3732 79.9121 28.3918 84.8863V90.7469H71.6082V84.8863C62.6268 79.9121 57.0535 70.4543 57.0535 60.1873V60.1873Z" fill="#FCE25C"/>
<path d="M71.6082 84.8863C62.6268 79.9119 57.0535 70.4543 57.0535 60.1873V46.7094H51.0894V61.2369C51.0894 72.3033 56.6627 82.4975 65.6441 87.8592V90.7469H71.6082V84.8863Z" fill="#FCDD2E"/>
<path d="M54.9051 58.8519C51.8959 60.6996 48.1039 60.6996 45.0949 58.8519C31.8674 50.7299 23.8066 36.3215 23.8066 20.7996V2.79082H76.1934V20.7994C76.1934 36.3215 68.1326 50.7299 54.9051 58.8519V58.8519Z" fill="#FCE25C"/>
<path d="M68.2627 2.79082V20.7994C68.2627 36.3215 60.2019 50.7299 46.9746 58.8518C46.6695 59.0391 46.3545 59.2023 46.0348 59.3518C48.867 60.6752 52.2012 60.5119 54.9051 58.8518C68.1326 50.7299 76.1932 36.3213 76.1932 20.7994V2.79082H68.2627Z" fill="#FCDD2E"/>
<path d="M80.8818 10.0908H19.1182C17.6902 10.0908 16.5326 8.9332 16.5326 7.50527V4.05019C16.5326 2.62226 17.6902 1.46465 19.1182 1.46465H80.8818C82.3098 1.46465 83.4674 2.62226 83.4674 4.05019V7.50527C83.4674 8.9332 82.3098 10.0908 80.8818 10.0908Z" fill="#FBD307"/>
<path d="M80.8818 1.46484H75.5367V7.50547C75.5367 8.9334 74.3791 10.091 72.9512 10.091H80.8818C82.3098 10.091 83.4674 8.9334 83.4674 7.50547V4.05039C83.4674 2.62246 82.3098 1.46484 80.8818 1.46484V1.46484Z" fill="#F9C301"/>
<path d="M74.4018 98.5352H25.5982C23.8473 98.5352 22.4277 97.1156 22.4277 95.3646V82.2555C22.4277 80.5045 23.8473 79.085 25.5982 79.085H74.4019C76.1529 79.085 77.5725 80.5045 77.5725 82.2555V95.3646C77.5723 97.1156 76.1527 98.5352 74.4018 98.5352V98.5352Z" fill="#FBD307"/>
<path d="M74.4018 79.0852H66.9691C68.4451 79.0852 69.6416 80.2816 69.6416 81.7576V95.8627C69.6416 97.3387 68.4451 98.5352 66.9691 98.5352H74.4018C76.1527 98.5352 77.5723 97.1156 77.5723 95.3646V82.2555C77.5723 80.5045 76.1527 79.0852 74.4018 79.0852V79.0852Z" fill="#F9C301"/>
<path d="M77.2412 73.11L72.3275 70.2148C72.1445 70.107 71.9176 70.107 71.7346 70.2148L66.8209 73.11C66.4315 73.3395 65.9402 73.0586 65.9402 72.6066V59.3736H78.1217V72.6066C78.1217 73.0586 77.6305 73.3393 77.2412 73.11V73.11Z" fill="#FB76A7"/>
<path d="M70.1912 59.3736V71.1242L71.7346 70.2148C71.9176 70.107 72.1445 70.107 72.3275 70.2148L77.2412 73.11C77.6307 73.3395 78.1219 73.0586 78.1219 72.6068V59.3738H70.1912V59.3736Z" fill="#FC5692"/>
<path d="M74.0688 35.4754C74.7438 36.5258 76.1066 36.891 77.2164 36.3187C78.7838 35.5105 80.6619 36.5949 80.7457 38.3564C80.8051 39.6037 81.8027 40.6014 83.05 40.6607C84.8115 40.7445 85.8959 42.6227 85.0877 44.19C84.5154 45.2998 84.8807 46.6627 85.9311 47.3377C87.4147 48.291 87.4147 50.4598 85.9311 51.4131C84.8807 52.0881 84.5154 53.451 85.0877 54.5607C85.8959 56.1281 84.8115 58.0062 83.05 58.09C81.8027 58.1494 80.8051 59.1471 80.7457 60.3943C80.6619 62.1559 78.7838 63.2402 77.2164 62.432C76.1066 61.8598 74.7438 62.225 74.0688 63.2754C73.1154 64.759 70.9467 64.759 69.9934 63.2754C69.3184 62.225 67.9555 61.8598 66.8457 62.432C65.2783 63.2402 63.4002 62.1559 63.3164 60.3943C63.257 59.1471 62.2594 58.1494 61.0121 58.09C59.2506 58.0062 58.1662 56.1281 58.9744 54.5607C59.5467 53.451 59.1815 52.0881 58.1311 51.4131C56.6475 50.4598 56.6475 48.291 58.1311 47.3377C59.1815 46.6627 59.5467 45.2998 58.9744 44.19C58.1662 42.6227 59.2506 40.7445 61.0121 40.6607C62.2594 40.6014 63.257 39.6037 63.3164 38.3564C63.4002 36.5949 65.2783 35.5105 66.8457 36.3187C67.9555 36.891 69.3184 36.5258 69.9934 35.4754C70.9467 33.9918 73.1154 33.9918 74.0688 35.4754Z" fill="#80B4FB"/>
<path d="M68.249 85.4148H31.6814C30.9123 85.4148 30.2887 86.0385 30.2887 86.8076V90.8129C30.2887 91.582 30.9123 92.2057 31.6814 92.2057H68.249C69.0182 92.2057 69.6418 91.582 69.6418 90.8129V86.8076C69.6418 86.0383 69.0182 85.4148 68.249 85.4148V85.4148Z" fill="#F4F8F8"/>
<path d="M68.249 85.4148H61.7111V92.2055H68.249C69.0182 92.2055 69.6418 91.5818 69.6418 90.8127V86.8074C69.6418 86.0383 69.0182 85.4148 68.249 85.4148V85.4148Z" fill="#E5ECF1"/>
<path d="M85.9312 47.3377C84.8809 46.6627 84.5156 45.2998 85.0879 44.19C85.8961 42.6225 84.8117 40.7445 83.0502 40.6607C81.8031 40.6014 80.8053 39.6037 80.7459 38.3564C80.6621 36.5949 78.784 35.5105 77.2166 36.3187C76.1068 36.891 74.7439 36.5258 74.0689 35.4754C73.1156 33.9918 70.9469 33.9918 69.9936 35.4754C69.9797 35.4971 69.9639 35.5166 69.9492 35.5375C75.3439 37.8137 79.1307 43.1521 79.1307 49.3754C79.1307 55.5986 75.3439 60.9371 69.9492 63.2133C69.9637 63.2344 69.9797 63.2539 69.9936 63.2754C70.9469 64.759 73.1156 64.759 74.0689 63.2754C74.7439 62.225 76.1068 61.8598 77.2166 62.432C78.784 63.2402 80.6621 62.1559 80.7459 60.3943C80.8053 59.1471 81.8029 58.1494 83.0502 58.09C84.8117 58.0062 85.8961 56.1281 85.0879 54.5607C84.5156 53.451 84.8809 52.0881 85.9312 51.4131C87.4148 50.4598 87.4148 48.2912 85.9312 47.3377V47.3377Z" fill="#61A2F9"/>
<path d="M72.0311 56.457C75.942 56.457 79.1125 53.2866 79.1125 49.3756C79.1125 45.4646 75.942 42.2941 72.0311 42.2941C68.1201 42.2941 64.9496 45.4646 64.9496 49.3756C64.9496 53.2866 68.1201 56.457 72.0311 56.457Z" fill="#F4F8F8"/>
<path d="M88.4287 16.5451H71.3086V20.7996C71.3086 21.5654 71.2832 22.3301 71.2387 23.0932H87.7156C88.0074 23.0932 88.2463 23.3334 88.2361 23.6252C88.0817 28.0961 86.4754 32.4459 83.6746 35.9443C80.7248 39.6283 76.5645 42.2258 71.9594 43.2582L62.8607 45.2978C60.241 48.6445 57.093 51.5648 53.5438 53.9236C53.6524 53.9348 53.7615 53.942 53.8721 53.942C54.1094 53.942 54.3502 53.9162 54.5912 53.8621L73.3918 49.6475C79.4432 48.291 84.9102 44.8777 88.7861 40.0367C92.6531 35.2066 94.7869 29.1422 94.7967 22.9555C94.8022 19.4297 91.9545 16.5451 88.4287 16.5451V16.5451Z" fill="#FBD307" stroke="#262626" stroke-width="2" stroke-linejoin="round"/>
<path d="M37.1393 45.2975L28.0406 43.2578C23.4355 42.2256 19.275 39.6281 16.3254 35.9439C13.5246 32.4455 11.9184 28.0957 11.7639 23.6248C11.7537 23.3332 11.9926 23.0928 12.2844 23.0928H28.7613C28.717 22.3297 28.6914 21.565 28.6914 20.7992V16.5451H11.5713C8.0457 16.5451 5.19785 19.4297 5.20351 22.9553C5.21328 29.142 7.34707 35.2064 11.2141 40.0365C15.09 44.8775 20.557 48.2908 26.6084 49.6473L45.409 53.8619C45.65 53.916 45.8908 53.9418 46.1281 53.9418C46.2385 53.9418 46.3479 53.9346 46.4563 53.9234C42.907 51.5645 39.759 48.6441 37.1393 45.2975V45.2975Z" fill="#FBD307" stroke="#262626" stroke-width="2" stroke-linejoin="round"/>
<path d="M57.0535 60.1873V46.7094H42.9465V60.1873C42.9465 70.4543 37.3732 79.9121 28.3918 84.8863V90.7469H71.6082V84.8863C62.6268 79.9121 57.0535 70.4543 57.0535 60.1873V60.1873Z" fill="#FCE25C"/>
<path d="M71.6082 84.8863C62.6268 79.9119 57.0535 70.4543 57.0535 60.1873V46.7094H51.0894V61.2369C51.0894 72.3033 56.6627 82.4975 65.6441 87.8592V90.7469H71.6082V84.8863Z" fill="#FCDD2E"/>
<path d="M57.0535 60.1873V46.7094H42.9465V60.1873C42.9465 70.4543 37.3732 79.9121 28.3918 84.8863V90.7469H71.6082V84.8863C62.6268 79.9121 57.0535 70.4543 57.0535 60.1873V60.1873Z" stroke="#262626" stroke-width="2" stroke-linejoin="round"/>
<path d="M54.9051 58.8519C51.8959 60.6996 48.1039 60.6996 45.0949 58.8519C31.8674 50.7299 23.8066 36.3215 23.8066 20.7996V2.79082H76.1934V20.7994C76.1934 36.3215 68.1326 50.7299 54.9051 58.8519V58.8519Z" fill="#FCE25C"/>
<path d="M68.2627 2.79082V20.7994C68.2627 36.3215 60.2019 50.7299 46.9746 58.8518C46.6695 59.0391 46.3545 59.2023 46.0348 59.3518C48.867 60.6752 52.2012 60.5119 54.9051 58.8518C68.1326 50.7299 76.1932 36.3213 76.1932 20.7994V2.79082H68.2627Z" fill="#FCDD2E"/>
<path d="M54.9051 58.8519C51.8959 60.6996 48.1039 60.6996 45.0949 58.8519C31.8674 50.7299 23.8066 36.3215 23.8066 20.7996V2.79082H76.1934V20.7994C76.1934 36.3215 68.1326 50.7299 54.9051 58.8519V58.8519Z" stroke="#262626" stroke-width="2" stroke-linejoin="round"/>
<path d="M80.8818 10.0908H19.1182C17.6902 10.0908 16.5326 8.9332 16.5326 7.50527V4.05019C16.5326 2.62226 17.6902 1.46465 19.1182 1.46465H80.8818C82.3098 1.46465 83.4674 2.62226 83.4674 4.05019V7.50527C83.4674 8.9332 82.3098 10.0908 80.8818 10.0908Z" fill="#FBD307"/>
<path d="M80.8818 1.46484H75.5367V7.50547C75.5367 8.9334 74.3791 10.091 72.9512 10.091H80.8818C82.3098 10.091 83.4674 8.9334 83.4674 7.50547V4.05039C83.4674 2.62246 82.3098 1.46484 80.8818 1.46484V1.46484Z" fill="#F9C301"/>
<path d="M80.8818 10.0908H19.1182C17.6902 10.0908 16.5326 8.9332 16.5326 7.50527V4.05019C16.5326 2.62226 17.6902 1.46465 19.1182 1.46465H80.8818C82.3098 1.46465 83.4674 2.62226 83.4674 4.05019V7.50527C83.4674 8.9332 82.3098 10.0908 80.8818 10.0908Z" stroke="#262626" stroke-width="2" stroke-linejoin="round"/>
<path d="M74.4018 98.5352H25.5982C23.8473 98.5352 22.4277 97.1156 22.4277 95.3646V82.2555C22.4277 80.5045 23.8473 79.085 25.5982 79.085H74.4019C76.1529 79.085 77.5725 80.5045 77.5725 82.2555V95.3646C77.5723 97.1156 76.1527 98.5352 74.4018 98.5352V98.5352Z" fill="#FBD307"/>
<path d="M74.4018 79.0852H66.9691C68.4451 79.0852 69.6416 80.2816 69.6416 81.7576V95.8627C69.6416 97.3387 68.4451 98.5352 66.9691 98.5352H74.4018C76.1527 98.5352 77.5723 97.1156 77.5723 95.3646V82.2555C77.5723 80.5045 76.1527 79.0852 74.4018 79.0852V79.0852Z" fill="#F9C301"/>
<path d="M74.4018 98.5352H25.5982C23.8473 98.5352 22.4277 97.1156 22.4277 95.3646V82.2555C22.4277 80.5045 23.8473 79.085 25.5982 79.085H74.4019C76.1529 79.085 77.5725 80.5045 77.5725 82.2555V95.3646C77.5723 97.1156 76.1527 98.5352 74.4018 98.5352V98.5352Z" stroke="#262626" stroke-width="2" stroke-linejoin="round"/>
<path d="M68.249 85.4148H31.6814C30.9123 85.4148 30.2887 86.0385 30.2887 86.8076V90.8129C30.2887 91.582 30.9123 92.2057 31.6814 92.2057H68.249C69.0182 92.2057 69.6418 91.582 69.6418 90.8129V86.8076C69.6418 86.0383 69.0182 85.4148 68.249 85.4148V85.4148Z" fill="#F4F8F8"/>
<path d="M68.249 85.4148H61.7111V92.2055H68.249C69.0182 92.2055 69.6418 91.5818 69.6418 90.8127V86.8074C69.6418 86.0383 69.0182 85.4148 68.249 85.4148V85.4148Z" fill="#E5ECF1"/>
<path d="M68.249 85.4148H31.6814C30.9123 85.4148 30.2887 86.0385 30.2887 86.8076V90.8129C30.2887 91.582 30.9123 92.2057 31.6814 92.2057H68.249C69.0182 92.2057 69.6418 91.582 69.6418 90.8129V86.8076C69.6418 86.0383 69.0182 85.4148 68.249 85.4148V85.4148Z" stroke="#262626" stroke-width="2" stroke-linejoin="round"/>
<path d="M77.2412 73.11L72.3275 70.2148C72.1445 70.107 71.9176 70.107 71.7346 70.2148L66.8209 73.11C66.4315 73.3395 65.9402 73.0586 65.9402 72.6066V59.3736H78.1217V72.6066C78.1217 73.0586 77.6305 73.3393 77.2412 73.11V73.11Z" fill="#FB76A7"/>
<path d="M70.1912 59.3736V71.1242L71.7346 70.2148C71.9176 70.107 72.1445 70.107 72.3275 70.2148L77.2412 73.11C77.6307 73.3395 78.1219 73.0586 78.1219 72.6068V59.3738H70.1912V59.3736Z" fill="#FC5692"/>
<path d="M77.2412 73.11L72.3275 70.2148C72.1445 70.107 71.9176 70.107 71.7346 70.2148L66.8209 73.11C66.4315 73.3395 65.9402 73.0586 65.9402 72.6066V59.3736H78.1217V72.6066C78.1217 73.0586 77.6305 73.3393 77.2412 73.11V73.11Z" stroke="#262626" stroke-width="2" stroke-linejoin="round"/>
<path d="M74.0688 35.4754C74.7438 36.5258 76.1066 36.891 77.2164 36.3187C78.7838 35.5105 80.6619 36.5949 80.7457 38.3564C80.8051 39.6037 81.8027 40.6014 83.05 40.6607C84.8115 40.7445 85.8959 42.6227 85.0877 44.19C84.5154 45.2998 84.8807 46.6627 85.9311 47.3377C87.4147 48.291 87.4147 50.4598 85.9311 51.4131C84.8807 52.0881 84.5154 53.451 85.0877 54.5607C85.8959 56.1281 84.8115 58.0062 83.05 58.09C81.8027 58.1494 80.8051 59.1471 80.7457 60.3943C80.6619 62.1559 78.7838 63.2402 77.2164 62.432C76.1066 61.8598 74.7438 62.225 74.0688 63.2754C73.1154 64.759 70.9467 64.759 69.9934 63.2754C69.3184 62.225 67.9555 61.8598 66.8457 62.432C65.2783 63.2402 63.4002 62.1559 63.3164 60.3943C63.257 59.1471 62.2594 58.1494 61.0121 58.09C59.2506 58.0062 58.1662 56.1281 58.9744 54.5607C59.5467 53.451 59.1815 52.0881 58.1311 51.4131C56.6475 50.4598 56.6475 48.291 58.1311 47.3377C59.1815 46.6627 59.5467 45.2998 58.9744 44.19C58.1662 42.6227 59.2506 40.7445 61.0121 40.6607C62.2594 40.6014 63.257 39.6037 63.3164 38.3564C63.4002 36.5949 65.2783 35.5105 66.8457 36.3187C67.9555 36.891 69.3184 36.5258 69.9934 35.4754C70.9467 33.9918 73.1154 33.9918 74.0688 35.4754Z" fill="#80B4FB" stroke="#262626" stroke-width="2" stroke-linejoin="round"/>
<path d="M85.9312 47.3377C84.8809 46.6627 84.5156 45.2998 85.0879 44.19C85.8961 42.6225 84.8117 40.7445 83.0502 40.6607C81.8031 40.6014 80.8053 39.6037 80.7459 38.3564C80.6621 36.5949 78.784 35.5105 77.2166 36.3187C76.1068 36.891 74.7439 36.5258 74.0689 35.4754C73.1156 33.9918 70.9469 33.9918 69.9936 35.4754C69.9797 35.4971 69.9639 35.5166 69.9492 35.5375C75.3439 37.8137 79.1307 43.1521 79.1307 49.3754C79.1307 55.5986 75.3439 60.9371 69.9492 63.2133C69.9637 63.2344 69.9797 63.2539 69.9936 63.2754C70.9469 64.759 73.1156 64.759 74.0689 63.2754C74.7439 62.225 76.1068 61.8598 77.2166 62.432C78.784 63.2402 80.6621 62.1559 80.7459 60.3943C80.8053 59.1471 81.8029 58.1494 83.0502 58.09C84.8117 58.0062 85.8961 56.1281 85.0879 54.5607C84.5156 53.451 84.8809 52.0881 85.9312 51.4131C87.4148 50.4598 87.4148 48.2912 85.9312 47.3377V47.3377Z" fill="#61A2F9"/>
<path d="M74.0688 35.4754C74.7438 36.5258 76.1066 36.891 77.2164 36.3187C78.7838 35.5105 80.6619 36.5949 80.7457 38.3564C80.8051 39.6037 81.8027 40.6014 83.05 40.6607C84.8115 40.7445 85.8959 42.6227 85.0877 44.19C84.5154 45.2998 84.8807 46.6627 85.9311 47.3377C87.4147 48.291 87.4147 50.4598 85.9311 51.4131C84.8807 52.0881 84.5154 53.451 85.0877 54.5607C85.8959 56.1281 84.8115 58.0062 83.05 58.09C81.8027 58.1494 80.8051 59.1471 80.7457 60.3943C80.6619 62.1559 78.7838 63.2402 77.2164 62.432C76.1066 61.8598 74.7438 62.225 74.0688 63.2754C73.1154 64.759 70.9467 64.759 69.9934 63.2754C69.3184 62.225 67.9555 61.8598 66.8457 62.432C65.2783 63.2402 63.4002 62.1559 63.3164 60.3943C63.257 59.1471 62.2594 58.1494 61.0121 58.09C59.2506 58.0062 58.1662 56.1281 58.9744 54.5607C59.5467 53.451 59.1815 52.0881 58.1311 51.4131C56.6475 50.4598 56.6475 48.291 58.1311 47.3377C59.1815 46.6627 59.5467 45.2998 58.9744 44.19C58.1662 42.6227 59.2506 40.7445 61.0121 40.6607C62.2594 40.6014 63.257 39.6037 63.3164 38.3564C63.4002 36.5949 65.2783 35.5105 66.8457 36.3187C67.9555 36.891 69.3184 36.5258 69.9934 35.4754C70.9467 33.9918 73.1154 33.9918 74.0688 35.4754Z" stroke="#262626" stroke-width="2" stroke-linejoin="round"/>
<path d="M72.031 56.457C75.942 56.457 79.1125 53.2866 79.1125 49.3756C79.1125 45.4646 75.942 42.2941 72.031 42.2941C68.1201 42.2941 64.9496 45.4646 64.9496 49.3756C64.9496 53.2866 68.1201 56.457 72.031 56.457Z" fill="#F4F8F8" stroke="#262626" stroke-width="2" stroke-linejoin="round"/>
</svg>
