<svg width="260" height="260" viewBox="0 0 260 260" fill="none" xmlns="http://www.w3.org/2000/svg">
<g clip-path="url(#clip0_22_222)">
<path d="M27.5401 115.502L7.8966 95.8581L20.7083 83.0463L40.3519 102.69L27.5401 115.502ZM77.9182 65.1406L58.2747 45.497L45.4629 58.3088L65.1065 77.9523L77.9182 65.1406ZM115.485 27.5742L95.841 7.93067L83.0293 20.7424L102.673 40.3859L115.485 27.5742ZM255.92 139.83L139.813 255.937C134.396 261.354 125.587 261.354 120.17 255.937L4.0633 139.83C-1.35443 134.413 -1.35443 125.604 4.0633 120.187L10.4692 113.781L27.5401 130.852L55.7192 102.673L38.6482 85.6019L48.0355 76.2145L65.1065 93.2855L93.2855 65.1065L76.2145 48.0355L85.6019 38.6482L102.673 55.7191L130.852 27.5401L113.781 10.4692L120.187 4.0633C125.604 -1.35443 134.413 -1.35443 139.83 4.0633L255.937 120.17C261.354 125.587 261.354 134.396 255.937 139.813L255.92 139.83ZM170.326 149.167C170.326 141.636 168.367 135.52 164.483 130.818C160.581 126.133 154.431 122.384 146.015 119.573C143.902 118.875 141.79 118.21 139.643 117.597C137.496 116.984 135.571 116.268 133.85 115.433C132.147 114.599 130.767 113.611 129.71 112.469C128.654 111.328 128.126 109.879 128.126 108.125C128.126 105.586 129.182 103.525 131.278 101.94C133.39 100.356 136.099 99.5721 139.438 99.5721C142.062 99.5721 144.788 100.117 147.599 101.208C150.41 102.298 153.204 103.985 156.015 106.268L166.272 86.147C161.365 83.5234 156.237 81.53 150.887 80.1671C145.538 78.8041 140.41 78.1227 135.503 78.1227C130.239 78.1227 125.485 78.9064 121.243 80.4908C116.984 82.0752 113.406 84.29 110.459 87.1352C107.528 89.9803 105.245 93.4048 103.627 97.3914C102.008 101.378 101.191 105.825 101.191 110.731C101.191 115.638 101.957 119.693 103.491 122.896C105.024 126.099 107.034 128.739 109.539 130.852C112.043 132.947 114.888 134.651 118.091 135.912C121.294 137.19 124.548 138.348 127.887 139.404C130.699 140.375 133.084 141.244 135.06 142.028C137.036 142.812 138.638 143.664 139.864 144.584C141.091 145.504 141.977 146.509 142.488 147.616C143.016 148.706 143.272 150.001 143.272 151.501C143.272 153.954 142.232 156.152 140.188 158.077C138.127 160.002 134.992 160.973 130.784 160.973C127.104 160.973 123.373 160.138 119.607 158.469C115.842 156.799 112.026 154.261 108.176 150.836L97.1358 171.604C107.835 179.049 119.437 182.78 131.976 182.78C138.024 182.78 143.442 181.963 148.212 180.344C152.983 178.725 157.02 176.443 160.309 173.512C163.597 170.582 166.101 167.055 167.805 162.932C169.509 158.809 170.36 154.209 170.36 149.132L170.326 149.167Z" fill="#30B396"/>
</g>
<defs>
<clipPath id="clip0_22_222">
<rect width="260" height="260" fill="white"/>
</clipPath>
</defs>
</svg>
