<svg width="164" height="158" viewBox="0 0 164 158" fill="none" xmlns="http://www.w3.org/2000/svg">
<path d="M136.88 100.678C134.856 94.2087 131.456 88.1928 126.846 83.0705L126.398 82.5721C122.905 78.6918 121.57 73.3264 122.836 68.2588L116.758 78.3899C116.758 78.3899 112.705 84.4686 110.679 92.5735C109.125 98.79 98.5216 78.3899 98.5216 78.3899C96.4953 72.3112 87.3773 70.285 87.3773 70.285C91.7661 81.5731 89.8108 94.3424 82.2469 103.801L82.0585 104.038C79.5986 107.11 78.2593 110.927 78.2593 114.862C78.2593 131.647 91.8674 145.255 108.653 145.255C125.438 145.255 139.046 131.647 139.046 114.862C139.046 112.82 138.914 110.789 138.655 108.783" fill="#F98600"/>
<path d="M136.88 100.678C134.856 94.2087 131.456 88.1928 126.846 83.0705L126.398 82.5721C122.905 78.6918 121.57 73.3264 122.836 68.2588L116.758 78.3899C116.758 78.3899 112.705 84.4686 110.679 92.5735C109.125 98.79 98.5216 78.3899 98.5216 78.3899C96.4953 72.3112 87.3773 70.285 87.3773 70.285C91.7661 81.5731 89.8108 94.3424 82.2469 103.801L82.0585 104.038C79.5986 107.11 78.2593 110.927 78.2593 114.862C78.2593 131.647 91.8674 145.255 108.653 145.255C125.438 145.255 139.046 131.647 139.046 114.862C139.046 112.82 138.914 110.789 138.655 108.783" stroke="#262626" stroke-width="1.2" stroke-linecap="round" stroke-linejoin="round"/>
<path d="M106.791 64.0848L103.812 58.1277L102.216 66.1131C101.932 67.5334 101.405 68.893 100.661 70.1331L100.323 70.6964C97.5593 75.302 98.0112 81.1517 101.45 85.2791L105.839 90.5473L104.771 85.2042C104.155 82.1243 104.708 78.9249 106.325 76.23C108.546 72.5281 108.722 67.9468 106.791 64.0848V64.0848Z" fill="#F99A2A" stroke="#262626" stroke-width="1.2" stroke-linecap="round" stroke-linejoin="round"/>
<path d="M119.086 130.576C126.123 128.464 130.941 121.988 130.941 114.641V112.836L128.109 114.959C125.363 117.018 121.422 116.088 119.888 113.018C119.185 111.612 119.118 109.975 119.702 108.516L122.913 100.488C125.205 94.7579 123 88.2132 117.708 85.0381L116.758 84.4688C119.177 89.3094 118.229 95.1551 114.403 98.9806L105.52 107.864C100.442 112.941 100.171 121.087 104.9 126.493C108.42 130.517 113.965 132.111 119.086 130.576V130.576Z" fill="#F35142" stroke="#262626" stroke-width="1.2" stroke-linecap="round" stroke-linejoin="round"/>
<path d="M72.146 102.932C74.8146 99.5358 75.5623 95.0133 74.1297 90.9406L71.9211 84.6572L69.3357 92.3812C68.8757 93.753 68.1848 95.0376 67.2892 96.1763L66.8819 96.693C63.5629 100.916 63.2793 106.778 66.1747 111.302L69.8686 117.077L69.4775 111.643C69.2546 108.506 70.2049 105.402 72.146 102.932V102.932Z" fill="#F99A2A" stroke="#262626" stroke-width="1.2" stroke-linecap="round" stroke-linejoin="round"/>
<path d="M87.8957 112.693C85.8715 106.224 82.4715 100.208 77.8618 95.0854L77.414 94.587C73.9208 90.7067 72.5855 85.3413 73.8519 80.2737L67.7732 90.4048C67.7732 90.4048 63.7208 96.4835 61.6946 104.588C60.1404 110.805 49.5372 90.4048 49.5372 90.4048C47.511 84.3261 38.3929 82.2999 38.3929 82.2999C42.7817 93.588 40.8264 106.357 33.2625 115.816L33.0741 116.053C30.6142 119.125 29.2749 122.942 29.2749 126.877C29.2749 143.662 42.8831 157.27 59.6683 157.27C76.4536 157.27 90.0618 143.662 90.0618 126.877C90.0618 124.834 89.93 122.804 89.6707 120.798" fill="#F98600"/>
<path d="M87.8957 112.693C85.8715 106.224 82.4715 100.208 77.8618 95.0854L77.414 94.587C73.9208 90.7067 72.5855 85.3413 73.8519 80.2737L67.7732 90.4048C67.7732 90.4048 63.7208 96.4835 61.6946 104.588C60.1404 110.805 49.5372 90.4048 49.5372 90.4048C47.511 84.3261 38.3929 82.2999 38.3929 82.2999C42.7817 93.588 40.8264 106.357 33.2625 115.816L33.0741 116.053C30.6142 119.125 29.2749 122.942 29.2749 126.877C29.2749 143.662 42.8831 157.27 59.6683 157.27C76.4536 157.27 90.0618 143.662 90.0618 126.877C90.0618 124.834 89.93 122.804 89.6707 120.798" stroke="#262626" stroke-width="1.2" stroke-linecap="round" stroke-linejoin="round"/>
<path d="M57.8065 76.0997L54.8279 70.1426L53.2312 78.1279C52.9476 79.5483 52.4207 80.9079 51.6771 82.148L51.3387 82.7113C48.575 87.3169 49.0268 93.1666 52.4653 97.294L56.8541 102.562L55.7863 97.2191C55.1703 94.1392 55.7235 90.9398 57.3404 88.2449C59.5612 84.543 59.7375 79.9617 57.8065 76.0997V76.0997Z" fill="#F99A2A" stroke="#262626" stroke-width="1.2" stroke-linecap="round" stroke-linejoin="round"/>
<path d="M70.1013 142.59C77.1384 140.479 81.9568 134.003 81.9568 126.656V124.851L79.1241 126.974C76.3786 129.033 72.4376 128.103 70.9037 125.033C70.2006 123.627 70.1338 121.99 70.7173 120.531L73.9289 112.503C76.2205 106.773 74.016 100.228 68.7235 97.053L67.7732 96.4836C70.1925 101.324 69.2443 107.17 65.4187 110.995L56.5357 119.878C51.458 124.956 51.1865 133.102 55.9157 138.508C59.4353 142.532 64.9811 144.126 70.1013 142.59V142.59Z" fill="#F35142" stroke="#262626" stroke-width="1.2" stroke-linecap="round" stroke-linejoin="round"/>
<path d="M23.1617 114.947C25.8302 111.551 26.5779 107.028 25.1453 102.955L22.9368 96.6721L20.3513 104.396C19.8913 105.768 19.2004 107.052 18.3048 108.191L17.8975 108.708C14.5786 112.931 14.2949 118.792 17.1904 123.317L20.8842 129.092L20.4931 123.657C20.2702 120.521 21.2205 117.417 23.1617 114.947V114.947Z" fill="#F99A2A" stroke="#262626" stroke-width="1.2" stroke-linecap="round" stroke-linejoin="round"/>
<g clip-path="url(#clip0_199_1517)">
<path d="M106.919 34.4368L104.124 31.6413L105.947 29.8181L108.742 32.6136L106.919 34.4368ZM114.088 27.27L111.293 24.4746L109.47 26.2978L112.265 29.0932L114.088 27.27ZM119.434 21.924L116.639 19.1286L114.816 20.9518L117.611 23.7472L119.434 21.924ZM139.419 37.8989L122.897 54.4218C122.126 55.1927 120.872 55.1927 120.101 54.4218L103.578 37.8989C102.807 37.1279 102.807 35.8745 103.578 35.1035L104.49 34.1919L106.919 36.6212L110.929 32.6111L108.5 30.1818L109.836 28.8459L112.265 31.2752L116.275 27.2652L113.846 24.8358L115.182 23.4999L117.611 25.9293L121.621 21.9192L119.192 19.4898L120.103 18.5782C120.874 17.8073 122.128 17.8073 122.899 18.5782L139.422 35.1011C140.193 35.8721 140.193 37.1255 139.422 37.8965L139.419 37.8989ZM127.239 39.2275C127.239 38.1559 126.96 37.2855 126.407 36.6164C125.852 35.9496 124.977 35.4163 123.779 35.0162C123.478 34.9168 123.178 34.8223 122.872 34.735C122.567 34.6477 122.293 34.5459 122.048 34.4271C121.805 34.3083 121.609 34.1676 121.459 34.0052C121.308 33.8428 121.233 33.6367 121.233 33.387C121.233 33.0257 121.384 32.7324 121.682 32.5069C121.982 32.2814 122.368 32.1699 122.843 32.1699C123.217 32.1699 123.604 32.2475 124.004 32.4026C124.405 32.5578 124.802 32.7978 125.202 33.1227L126.662 30.2594C125.963 29.886 125.234 29.6024 124.472 29.4084C123.711 29.2144 122.981 29.1175 122.283 29.1175C121.534 29.1175 120.858 29.229 120.254 29.4545C119.648 29.6799 119.139 29.9951 118.719 30.4C118.302 30.8049 117.977 31.2922 117.747 31.8595C117.517 32.4269 117.4 33.0597 117.4 33.7579C117.4 34.4562 117.509 35.0332 117.728 35.489C117.946 35.9448 118.232 36.3206 118.588 36.6212C118.945 36.9194 119.349 37.1619 119.805 37.3413C120.261 37.5231 120.724 37.688 121.199 37.8383C121.599 37.9765 121.939 38.1002 122.22 38.2117C122.501 38.3232 122.729 38.4444 122.904 38.5754C123.078 38.7063 123.204 38.8493 123.277 39.0069C123.352 39.1621 123.389 39.3463 123.389 39.5597C123.389 39.9088 123.241 40.2216 122.95 40.4955C122.656 40.7695 122.21 40.9077 121.612 40.9077C121.088 40.9077 120.557 40.7889 120.021 40.5513C119.485 40.3137 118.942 39.9525 118.394 39.4651L116.823 42.4206C118.346 43.4801 119.997 44.011 121.781 44.011C122.642 44.011 123.413 43.8947 124.092 43.6643C124.771 43.434 125.345 43.1091 125.813 42.6921C126.281 42.2751 126.637 41.7732 126.88 41.1865C127.122 40.5998 127.244 39.9452 127.244 39.2227L127.239 39.2275Z" fill="#30B396"/>
</g>
<g clip-path="url(#clip1_199_1517)">
<path d="M69.9192 17.4368L67.1237 14.6413L68.947 12.8181L71.7424 15.6136L69.9192 17.4368ZM77.0884 10.27L74.2929 7.47458L72.4697 9.29779L75.2652 12.0932L77.0884 10.27ZM82.4343 4.92402L79.6389 2.1286L77.8157 3.95181L80.6111 6.74723L82.4343 4.92402ZM102.419 20.8989L85.8965 37.4218C85.1255 38.1927 83.8721 38.1927 83.1011 37.4218L66.5782 20.8989C65.8073 20.1279 65.8073 18.8745 66.5782 18.1035L67.4898 17.1919L69.9192 19.6212L73.9293 15.6111L71.4999 13.1818L72.8358 11.8459L75.2652 14.2752L79.2752 10.2652L76.8459 7.83582L78.1818 6.49993L80.6111 8.92926L84.6212 4.91917L82.1919 2.48984L83.1035 1.57824C83.8745 0.807254 85.1279 0.807254 85.8989 1.57824L102.422 18.1011C103.193 18.8721 103.193 20.1255 102.422 20.8965L102.419 20.8989ZM90.2387 22.2275C90.2387 21.1559 89.9599 20.2855 89.4071 19.6164C88.8519 18.9496 87.9767 18.4163 86.779 18.0162C86.4784 17.9168 86.1777 17.8223 85.8723 17.735C85.5668 17.6477 85.2928 17.5459 85.0479 17.4271C84.8055 17.3083 84.6091 17.1676 84.4588 17.0052C84.3085 16.8428 84.2333 16.6367 84.2333 16.387C84.2333 16.0257 84.3836 15.7324 84.6818 15.5069C84.9825 15.2814 85.368 15.1699 85.8432 15.1699C86.2165 15.1699 86.6044 15.2475 87.0045 15.4026C87.4045 15.5578 87.8021 15.7978 88.2022 16.1227L89.6617 13.2594C88.9635 12.886 88.2337 12.6024 87.4724 12.4084C86.7111 12.2144 85.9814 12.1175 85.2831 12.1175C84.5339 12.1175 83.8575 12.229 83.2538 12.4545C82.6477 12.6799 82.1386 12.9951 81.7191 13.4C81.3021 13.8049 80.9772 14.2922 80.7469 14.8595C80.5166 15.4269 80.4002 16.0597 80.4002 16.7579C80.4002 17.4562 80.5093 18.0332 80.7275 18.489C80.9457 18.9448 81.2318 19.3206 81.5882 19.6212C81.9446 19.9194 82.3495 20.1619 82.8053 20.3413C83.2611 20.5231 83.7242 20.688 84.1994 20.8383C84.5994 20.9765 84.9388 21.1002 85.2201 21.2117C85.5013 21.3232 85.7292 21.4444 85.9038 21.5754C86.0783 21.7063 86.2044 21.8493 86.2771 22.0069C86.3523 22.1621 86.3887 22.3463 86.3887 22.5597C86.3887 22.9088 86.2408 23.2216 85.9498 23.4955C85.6565 23.7695 85.2104 23.9077 84.6115 23.9077C84.0878 23.9077 83.5569 23.7889 83.0211 23.5513C82.4853 23.3137 81.9422 22.9525 81.3942 22.4651L79.8232 25.4206C81.3458 26.4801 82.9968 27.011 84.7812 27.011C85.6419 27.011 86.4129 26.8947 87.0918 26.6643C87.7706 26.434 88.3452 26.1091 88.8132 25.6921C89.2811 25.2751 89.6375 24.7732 89.8799 24.1865C90.1224 23.5998 90.2436 22.9452 90.2436 22.2227L90.2387 22.2275Z" fill="#30B396"/>
</g>
<g clip-path="url(#clip2_199_1517)">
<path d="M57.9192 53.4368L55.1237 50.6413L56.947 48.8181L59.7424 51.6136L57.9192 53.4368ZM65.0884 46.27L62.2929 43.4746L60.4697 45.2978L63.2652 48.0932L65.0884 46.27ZM70.4343 40.924L67.6389 38.1286L65.8157 39.9518L68.6111 42.7472L70.4343 40.924ZM90.4193 56.8989L73.8965 73.4218C73.1255 74.1927 71.8721 74.1927 71.1011 73.4218L54.5782 56.8989C53.8073 56.1279 53.8073 54.8745 54.5782 54.1035L55.4898 53.1919L57.9192 55.6212L61.9293 51.6111L59.4999 49.1818L60.8358 47.8459L63.2652 50.2752L67.2752 46.2652L64.8459 43.8358L66.1818 42.4999L68.6111 44.9293L72.6212 40.9192L70.1919 38.4898L71.1035 37.5782C71.8745 36.8073 73.1279 36.8073 73.8989 37.5782L90.4218 54.1011C91.1927 54.8721 91.1927 56.1255 90.4218 56.8965L90.4193 56.8989ZM78.2387 58.2275C78.2387 57.1559 77.9599 56.2855 77.4071 55.6164C76.8519 54.9496 75.9767 54.4163 74.779 54.0162C74.4784 53.9168 74.1777 53.8223 73.8723 53.735C73.5668 53.6477 73.2928 53.5459 73.0479 53.4271C72.8055 53.3083 72.6091 53.1676 72.4588 53.0052C72.3085 52.8428 72.2333 52.6367 72.2333 52.387C72.2333 52.0257 72.3836 51.7324 72.6818 51.5069C72.9825 51.2814 73.368 51.1699 73.8432 51.1699C74.2165 51.1699 74.6044 51.2475 75.0045 51.4026C75.4045 51.5578 75.8021 51.7978 76.2022 52.1227L77.6617 49.2594C76.9635 48.886 76.2337 48.6024 75.4724 48.4084C74.7111 48.2144 73.9814 48.1175 73.2831 48.1175C72.5339 48.1175 71.8575 48.229 71.2538 48.4545C70.6477 48.6799 70.1386 48.9951 69.7191 49.4C69.3021 49.8049 68.9772 50.2922 68.7469 50.8595C68.5166 51.4269 68.4002 52.0597 68.4002 52.7579C68.4002 53.4562 68.5093 54.0332 68.7275 54.489C68.9457 54.9448 69.2318 55.3206 69.5882 55.6212C69.9446 55.9194 70.3495 56.1619 70.8053 56.3413C71.2611 56.5231 71.7242 56.688 72.1994 56.8383C72.5994 56.9765 72.9388 57.1002 73.2201 57.2117C73.5013 57.3232 73.7292 57.4444 73.9038 57.5754C74.0783 57.7063 74.2044 57.8493 74.2771 58.0069C74.3523 58.1621 74.3887 58.3463 74.3887 58.5597C74.3887 58.9088 74.2408 59.2216 73.9498 59.4955C73.6565 59.7695 73.2104 59.9077 72.6115 59.9077C72.0878 59.9077 71.5569 59.7889 71.0211 59.5513C70.4853 59.3137 69.9422 58.9525 69.3942 58.4651L67.8232 61.4206C69.3458 62.4801 70.9968 63.011 72.7812 63.011C73.6419 63.011 74.4129 62.8947 75.0918 62.6643C75.7706 62.434 76.3452 62.1091 76.8132 61.6921C77.2811 61.2751 77.6375 60.7732 77.8799 60.1865C78.1224 59.5998 78.2436 58.9452 78.2436 58.2227L78.2387 58.2275Z" fill="#30B396"/>
</g>
<g clip-path="url(#clip3_199_1517)">
<path d="M130.919 64.4368L128.124 61.6413L129.947 59.8181L132.742 62.6136L130.919 64.4368ZM138.088 57.27L135.293 54.4746L133.47 56.2978L136.265 59.0932L138.088 57.27ZM143.434 51.924L140.639 49.1286L138.816 50.9518L141.611 53.7472L143.434 51.924ZM163.419 67.8989L146.897 84.4218C146.126 85.1927 144.872 85.1927 144.101 84.4218L127.578 67.8989C126.807 67.1279 126.807 65.8745 127.578 65.1035L128.49 64.1919L130.919 66.6212L134.929 62.6111L132.5 60.1818L133.836 58.8459L136.265 61.2752L140.275 57.2652L137.846 54.8358L139.182 53.4999L141.611 55.9293L145.621 51.9192L143.192 49.4898L144.103 48.5782C144.874 47.8073 146.128 47.8073 146.899 48.5782L163.422 65.1011C164.193 65.8721 164.193 67.1255 163.422 67.8965L163.419 67.8989ZM151.239 69.2275C151.239 68.1559 150.96 67.2855 150.407 66.6164C149.852 65.9496 148.977 65.4163 147.779 65.0162C147.478 64.9168 147.178 64.8223 146.872 64.735C146.567 64.6477 146.293 64.5459 146.048 64.4271C145.805 64.3083 145.609 64.1676 145.459 64.0052C145.308 63.8428 145.233 63.6367 145.233 63.387C145.233 63.0257 145.384 62.7324 145.682 62.5069C145.982 62.2814 146.368 62.1699 146.843 62.1699C147.217 62.1699 147.604 62.2475 148.004 62.4026C148.405 62.5578 148.802 62.7978 149.202 63.1227L150.662 60.2594C149.963 59.886 149.234 59.6024 148.472 59.4084C147.711 59.2144 146.981 59.1175 146.283 59.1175C145.534 59.1175 144.858 59.229 144.254 59.4545C143.648 59.6799 143.139 59.9951 142.719 60.4C142.302 60.8049 141.977 61.2922 141.747 61.8595C141.517 62.4269 141.4 63.0597 141.4 63.7579C141.4 64.4562 141.509 65.0332 141.728 65.489C141.946 65.9448 142.232 66.3206 142.588 66.6212C142.945 66.9194 143.349 67.1619 143.805 67.3413C144.261 67.5231 144.724 67.688 145.199 67.8383C145.599 67.9765 145.939 68.1002 146.22 68.2117C146.501 68.3232 146.729 68.4444 146.904 68.5754C147.078 68.7063 147.204 68.8493 147.277 69.0069C147.352 69.1621 147.389 69.3463 147.389 69.5597C147.389 69.9088 147.241 70.2216 146.95 70.4955C146.656 70.7695 146.21 70.9077 145.612 70.9077C145.088 70.9077 144.557 70.7889 144.021 70.5513C143.485 70.3137 142.942 69.9525 142.394 69.4651L140.823 72.4206C142.346 73.4801 143.997 74.011 145.781 74.011C146.642 74.011 147.413 73.8947 148.092 73.6643C148.771 73.434 149.345 73.1091 149.813 72.6921C150.281 72.2751 150.637 71.7732 150.88 71.1865C151.122 70.5998 151.244 69.9452 151.244 69.2227L151.239 69.2275Z" fill="#30B396"/>
</g>
<path d="M39.7738 62.9329V53.6343C39.7738 44.4474 32.3264 37 23.1407 37C13.9538 37 6.50635 44.4474 6.50635 53.6343V62.9329M12.5047 62.9329V53.6343C12.5047 47.7688 17.2763 42.9984 23.1407 42.9984C29.005 42.9984 33.7754 47.7688 33.7754 53.6343V62.9329" fill="#D3DAE0"/>
<path d="M24.1109 37.0289C23.7898 37.0104 23.4665 37 23.1406 37C13.9538 37 6.50635 44.4474 6.50635 53.6343V62.9329H8.4469V53.6343C8.4469 44.7732 15.3757 37.5314 24.1109 37.0289Z" fill="#899EA8"/>
<path d="M25.0812 42.9983C24.7541 42.9983 24.4305 43.014 24.1108 43.043C29.522 43.5347 33.7753 48.0958 33.7753 53.6342V62.9329H35.7158V53.6342C35.7158 47.7688 30.9454 42.9983 25.0812 42.9983Z" fill="#899EA8"/>
<path d="M45.2798 62.9329H1V94.642H45.2798V62.9329Z" fill="#FFD15A"/>
<path d="M4.8811 62.9329H1V94.642H4.8811V62.9329Z" fill="#E2B338"/>
<path d="M27.9032 75.811C27.9032 73.1803 25.7706 71.0479 23.1401 71.0479C20.5095 71.0479 18.377 73.1803 18.377 75.811C18.377 77.6229 19.3888 79.1983 20.878 80.0035L20.1116 85.8665H26.1687L25.4023 80.0035C26.8913 79.1984 27.9032 77.6229 27.9032 75.811Z" fill="#262626"/>
<path d="M45.2798 62.9329H1V94.642H45.2798V62.9329Z" stroke="#262626" stroke-width="1.2"/>
<path d="M39.7738 62.9329V53.6343C39.7738 44.4474 32.3264 37 23.1407 37C13.9538 37 6.50635 44.4474 6.50635 53.6343V62.9329M12.5047 62.9329V53.6343C12.5047 47.7688 17.2763 42.9984 23.1407 42.9984C29.005 42.9984 33.7754 47.7688 33.7754 53.6343V62.9329" stroke="#262626" stroke-width="1.2"/>
<defs>
<clipPath id="clip0_199_1517">
<rect width="37" height="37" fill="white" transform="translate(103 18)"/>
</clipPath>
<clipPath id="clip1_199_1517">
<rect width="37" height="37" fill="white" transform="translate(66 1)"/>
</clipPath>
<clipPath id="clip2_199_1517">
<rect width="37" height="37" fill="white" transform="translate(54 37)"/>
</clipPath>
<clipPath id="clip3_199_1517">
<rect width="37" height="37" fill="white" transform="translate(127 48)"/>
</clipPath>
</defs>
</svg>
