<svg width="164" height="158" viewBox="0 0 164 158" fill="none" xmlns="http://www.w3.org/2000/svg">
<path d="M79.6992 60.8489C79.5357 60.5143 79.5357 60.1305 79.6992 59.796L81.2151 56.6949C82.0591 54.9682 81.3904 52.9102 79.6927 52.0094L76.6436 50.3916C76.3146 50.2171 76.0891 49.9066 76.0247 49.5399L75.4284 46.14C75.0963 44.247 73.3453 42.975 71.4427 43.2442L68.025 43.7276C67.6561 43.7797 67.2914 43.6611 67.0238 43.4022L64.5429 41.0023C63.1616 39.6659 60.9976 39.6659 59.6163 41.0023L57.1354 43.4024C56.8677 43.6614 56.503 43.7798 56.1342 43.7278L52.7165 43.2444C50.8132 42.975 49.0628 44.2472 48.7308 46.1402L48.1345 49.54C48.0701 49.9067 47.8445 50.2172 47.5157 50.3918L44.4665 52.0096C42.7688 52.9103 42.1001 54.9685 42.9441 56.6951L44.4599 59.7962C44.6235 60.1308 44.6235 60.5145 44.4599 60.849L42.944 63.9501C42.1 65.6767 42.7688 67.7348 44.4665 68.6355L47.5156 70.2534C47.8445 70.4278 48.0701 70.7384 48.1345 71.1051L48.7308 74.505C49.0331 76.2282 50.5107 77.4368 52.209 77.4366C52.3762 77.4366 52.5459 77.4249 52.7165 77.4007L56.1342 76.9173C56.5028 76.865 56.8678 76.9838 57.1355 77.2427L59.6163 79.6426C60.3071 80.3109 61.1932 80.6449 62.0796 80.6448C62.9657 80.6447 63.8524 80.3107 64.5429 79.6426L67.0238 77.2427C67.2914 76.9838 67.6563 76.8655 68.025 76.9173L71.4427 77.4007C73.3462 77.67 75.0963 76.3979 75.4284 74.5049L76.0248 71.1051C76.0892 70.7384 76.3147 70.4279 76.6436 70.2534L79.6927 68.6355C81.3904 67.7348 82.0591 65.6767 81.2151 63.95L79.6992 60.8489Z" fill="#7AEDD4" stroke="#262626" stroke-width="1.2"/>
<path d="M46.0326 81.4436V71.6033C46.0326 61.8813 38.1513 54 28.4305 54C18.7084 54 10.8271 61.8813 10.8271 71.6033V81.4436M17.1749 81.4436V71.6033C17.1749 65.3961 22.2245 60.3478 28.4305 60.3478C34.6365 60.3478 39.6848 65.3961 39.6848 71.6033V81.4436" fill="#D3DAE0"/>
<path d="M29.4572 54.0306C29.1175 54.0111 28.7753 54 28.4305 54C18.7084 54 10.8271 61.8813 10.8271 71.6033V81.4436H12.8807V71.6033C12.8807 62.226 20.2132 54.5624 29.4572 54.0306Z" fill="#899EA8"/>
<path d="M30.4839 60.3477C30.1378 60.3477 29.7953 60.3642 29.457 60.3949C35.1834 60.9153 39.6845 65.7421 39.6845 71.6032V81.4435H41.7381V71.6032C41.7381 65.3961 36.6897 60.3477 30.4839 60.3477Z" fill="#899EA8"/>
<path d="M51.8593 81.4436H5V115H51.8593V81.4436Z" fill="#FFD15A"/>
<path d="M9.10719 81.4436H5V115H9.10719V81.4436Z" fill="#E2B338"/>
<path d="M33.4704 95.0719C33.4704 92.2879 31.2136 90.0312 28.4298 90.0312C25.646 90.0312 23.3892 92.2879 23.3892 95.0719C23.3892 96.9893 24.46 98.6565 26.0359 99.5086L25.2248 105.713H31.6349L30.8237 99.5086C32.3996 98.6566 33.4704 96.9893 33.4704 95.0719Z" fill="#262626"/>
<path d="M51.8593 81.4436H5V115H51.8593V81.4436Z" stroke="#262626" stroke-width="1.2"/>
<path d="M46.0326 81.4436V71.6033C46.0326 61.8813 38.1513 54 28.4305 54C18.7084 54 10.8271 61.8813 10.8271 71.6033V81.4436M17.1749 81.4436V71.6033C17.1749 65.3961 22.2245 60.3478 28.4305 60.3478C34.6365 60.3478 39.6848 65.3961 39.6848 71.6033V81.4436" stroke="#262626" stroke-width="1.2"/>
<path d="M123.317 123.061H142.482V130H123.317V123.061Z" fill="#7AEDD4" stroke="#262626" stroke-linejoin="round"/>
<path d="M123.317 116.122H142.482V123.061H123.317V116.122Z" fill="#30B396" stroke="#262626" stroke-linejoin="round"/>
<path d="M123.317 109.514H142.482V116.122H123.317V109.514Z" fill="#7AEDD4" stroke="#262626" stroke-linejoin="round"/>
<path d="M123.317 102.574H142.482V109.514H123.317V102.574Z" fill="#30B396" stroke="#262626" stroke-linejoin="round"/>
<path d="M123.317 95.6353H142.482V102.574H123.317V95.6353Z" fill="#7AEDD4" stroke="#262626" stroke-linejoin="round"/>
<path d="M123.317 89.0266H142.482V95.6352H123.317V89.0266Z" fill="#30B396" stroke="#262626" stroke-linejoin="round"/>
<path d="M123.317 82.0879H142.482V89.027H123.317V82.0879Z" fill="#7AEDD4" stroke="#262626" stroke-linejoin="round"/>
<path d="M123.317 75.1487H142.482V82.0878H123.317V75.1487Z" fill="#30B396" stroke="#262626" stroke-linejoin="round"/>
<path d="M123.317 68.2095H142.482V75.1486H123.317V68.2095Z" fill="#7AEDD4" stroke="#262626" stroke-linejoin="round"/>
<path d="M123.317 61.6013H142.482V68.2099H123.317V61.6013Z" fill="#30B396" stroke="#262626" stroke-linejoin="round"/>
<path d="M123.317 54.6621H142.482V61.6012H123.317V54.6621Z" fill="#7AEDD4" stroke="#262626" stroke-linejoin="round"/>
<path d="M97.2129 123.061H116.708V130H97.2129V123.061Z" fill="#30B396" stroke="#262626" stroke-linejoin="round"/>
<path d="M97.2129 116.122H116.708V123.061H97.2129V116.122Z" fill="#7AEDD4" stroke="#262626" stroke-linejoin="round"/>
<path d="M97.2129 109.513H116.708V116.122H97.2129V109.513Z" fill="#30B396" stroke="#262626" stroke-linejoin="round"/>
<path d="M97.2129 102.574H116.708V109.513H97.2129V102.574Z" fill="#7AEDD4" stroke="#262626" stroke-linejoin="round"/>
<path d="M97.2129 95.635H116.708V102.574H97.2129V95.635Z" fill="#30B396" stroke="#262626" stroke-linejoin="round"/>
<path d="M97.2129 89.0266H116.708V95.6352H97.2129V89.0266Z" fill="#7AEDD4" stroke="#262626" stroke-linejoin="round"/>
<path d="M97.2129 82.0879H116.708V89.027H97.2129V82.0879Z" fill="#30B396" stroke="#262626" stroke-linejoin="round"/>
<path d="M97.2129 75.1487H116.708V82.0878H97.2129V75.1487Z" fill="#7AEDD4" stroke="#262626" stroke-linejoin="round"/>
<path d="M71.4399 123.061H90.605V130H71.4399V123.061Z" fill="#7AEDD4" stroke="#262626" stroke-linejoin="round"/>
<path d="M71.4399 116.122H90.605V123.061H71.4399V116.122Z" fill="#30B396" stroke="#262626" stroke-linejoin="round"/>
<path d="M71.4399 109.513H90.605V116.122H71.4399V109.513Z" fill="#7AEDD4" stroke="#262626" stroke-linejoin="round"/>
<path d="M71.4399 102.574H90.605V109.513H71.4399V102.574Z" fill="#30B396" stroke="#262626" stroke-linejoin="round"/>
<path d="M71.4399 95.635H90.605V102.574H71.4399V95.635Z" fill="#7AEDD4" stroke="#262626" stroke-linejoin="round"/>
<path d="M45.3359 123.061H64.8315V130H45.3359V123.061Z" fill="#7AEDD4" stroke="#262626" stroke-linejoin="round"/>
<path d="M45.3359 116.122H64.8315V123.061H45.3359V116.122Z" fill="#30B396" stroke="#262626" stroke-linejoin="round"/>
<path d="M45.3359 109.513H64.8315V116.122H45.3359V109.513Z" fill="#7AEDD4" stroke="#262626" stroke-linejoin="round"/>
<path d="M104.925 37.1988C104.502 37.1988 104.079 37.0376 103.757 36.715L97.8622 30.8202C97.2172 30.1752 97.2172 29.1289 97.8622 28.4838C98.5071 27.8387 99.5541 27.8387 100.199 28.4838L106.093 34.3785C106.739 35.0236 106.739 36.0699 106.093 36.715C105.771 37.0376 105.348 37.1988 104.925 37.1988V37.1988Z" fill="#262626"/>
<path d="M99.0304 37.1988C98.6077 37.1988 98.1846 37.0376 97.8622 36.715C97.2172 36.0699 97.2172 35.0236 97.8622 34.3785L103.757 28.4838C104.402 27.8387 105.449 27.8387 106.093 28.4838C106.739 29.1289 106.739 30.1752 106.093 30.8202L100.199 36.715C99.8762 37.0376 99.4532 37.1988 99.0304 37.1988V37.1988Z" fill="#262626"/>
<path d="M160.986 58.6272H152.725C151.813 58.6272 151.073 57.8875 151.073 56.9751C151.073 56.0627 151.813 55.323 152.725 55.323H160.986C161.899 55.323 162.638 56.0627 162.638 56.9751C162.638 57.8875 161.898 58.6272 160.986 58.6272Z" fill="#262626"/>
<path d="M156.691 62.5926C155.778 62.5926 155.039 61.8529 155.039 60.9405V52.6799C155.039 51.7675 155.778 51.0278 156.691 51.0278C157.603 51.0278 158.343 51.7675 158.343 52.6799V60.9405C158.343 61.8529 157.603 62.5926 156.691 62.5926Z" fill="#262626"/>
<path d="M145.116 34.5123C144.992 34.2871 144.82 34.1074 144.624 33.9678C144.452 33.832 144.252 33.7273 144.027 33.6669L134.101 31.0038C133.219 30.7676 132.314 31.29 132.078 32.1713C131.841 33.0528 132.364 33.9587 133.245 34.1951L139.255 35.8077L115.883 48.3598C115.348 48.648 114.971 49.2068 114.971 49.8148V66.7837H90.6048C89.6922 66.7837 88.8615 67.6278 88.8615 68.5402V87.3838H64.8315C63.9186 87.3838 63.2311 88.1144 63.2311 89.0268V101.277H44.675C43.7624 101.277 43.0229 102.041 43.0229 102.954C43.0229 103.866 43.7626 104.63 44.675 104.63H64.8312C65.7439 104.63 66.5844 103.817 66.5844 102.905V90.7373H90.6046C91.5172 90.7373 92.2147 89.9394 92.2147 89.0268V70.1372H116.708C117.621 70.1372 118.324 69.4526 118.324 68.5402V50.8021L140.97 38.6277L139.598 43.7936C139.362 44.675 139.89 45.5807 140.772 45.8164C140.915 45.8548 141.06 45.873 141.201 45.873C141.932 45.8727 142.601 45.3857 142.798 44.6473L145.063 36.1787C145.369 35.6879 145.415 35.0548 145.116 34.5123V34.5123Z" fill="#262626"/>
<path d="M67.446 61.7322C65.1665 61.7322 63.312 63.5867 63.312 65.8662C63.312 68.1457 65.1665 70.0001 67.446 70.0003C69.7255 70.0001 71.58 68.1457 71.58 65.8662C71.58 63.5867 69.7255 61.7322 67.446 61.7322ZM67.446 67.0586C66.7873 67.0586 66.2534 66.5247 66.2534 65.8662C66.2534 65.2076 66.7874 64.6737 67.446 64.6737C68.1047 64.6737 68.6386 65.2076 68.6386 65.8662C68.6384 66.5247 68.1044 67.0586 67.446 67.0586V67.0586Z" fill="#262626"/>
<path d="M56.7136 59.2681C58.9931 59.268 60.8476 57.4135 60.8476 55.134C60.8476 54.0298 60.4176 52.9916 59.6367 52.2109C58.8559 51.43 57.8177 51 56.7136 51C56.7134 51 56.7134 51 56.7134 51C55.6093 51 54.5711 51.43 53.7903 52.2109C53.0095 52.9916 52.5796 54.0298 52.5796 55.134C52.5796 57.4135 54.4341 59.268 56.7136 59.2681ZM56.7136 53.9415C57.3721 53.9415 57.906 54.4754 57.906 55.134C57.906 55.7925 57.3721 56.3266 56.7136 56.3266C56.055 56.3266 55.5211 55.7925 55.5211 55.134C55.5211 54.4754 56.055 53.9415 56.7136 53.9415Z" fill="#262626"/>
<path d="M71.58 52.7491C71.58 52.2819 71.398 51.8427 71.0677 51.5123C70.7373 51.1819 70.2981 51 69.8309 51C69.3638 51 68.9246 51.1818 68.5939 51.5123L53.092 67.0142C52.4101 67.6961 52.4101 68.8058 53.092 69.4878C53.4224 69.8182 53.8616 70.0003 54.3289 70.0003C54.7961 70.0003 55.2354 69.8183 55.5657 69.4878L71.0677 53.9859C71.398 53.6555 71.58 53.2163 71.58 52.7491V52.7491Z" fill="#262626"/>
</svg>
